<svg width="10" height="10" viewBox="0 0 10 10" fill="none"
     xmlns="http://www.w3.org/2000/svg">
    <path
            d="M8.98163 2.10416V4.27603H6.80975" stroke="white"
            stroke-width="1.1456" stroke-linecap="round"
            stroke-linejoin="round"/>
    <path
            d="M1.01837 7.89584V5.72397H3.19025" stroke="white"
            stroke-width="1.1456" stroke-linecap="round"
            stroke-linejoin="round"/>
    <path
            d="M1.92694 3.91391C2.11052 3.39511 2.42254 2.93128 2.83387 2.56569C3.2452 2.20009 3.74243 1.94466 4.27918 1.82321C4.81593 1.70176 5.3747 1.71827 5.90335 1.87118C6.432 2.02409 6.91329 2.30843 7.30233 2.69766L8.98191 4.27589M1.01837 5.7238L2.69795 7.30203C3.08699 7.69126 3.56829 7.9756 4.09694 8.12851C4.62558 8.28143 5.18435 8.29793 5.7211 8.17648C6.25785 8.05503 6.75509 7.7996 7.16642 7.434C7.57775 7.06841 7.88976 6.60458 8.07335 6.08578"
            stroke="white" stroke-width="1.1456"
            stroke-linecap="round"
            stroke-linejoin="round"/>
    <clipPath>
        <rect width="8.6875"
              height="8.6875"
              fill="white"
              transform="translate(0.65625 0.65625)"/>
    </clipPath>
</svg>
