<?xml version="1.0" encoding="utf-8"?><svg xmlns="http://www.w3.org/2000/svg" xmlns:xlink="http://www.w3.org/1999/xlink"><symbol viewBox="0 0 256 256" id="cat" xmlns="http://www.w3.org/2000/svg"><path d="M164.216 139.486c-10.518 3.328-24.077 5.793-41.235 5.793-17.111 0-30.642-2.451-41.149-5.765-38.399 42.885.824 85.034 13.139 96.461 1.413 1.311.985 3.529-.81 4.323-4.477 1.981-6.036 5.131-6.453 7.858-.432 2.832 1.979 5.344 5.02 5.344h18.056c7.606 0 11.035-4.702 11.955-11.653h.397c.92 6.951 4.349 11.653 11.955 11.653h18.252c3.041 0 5.452-2.513 5.02-5.344-.416-2.727-1.975-5.877-6.452-7.858-1.796-.794-2.223-3.012-.81-4.323 12.318-11.43 51.556-53.594 13.115-96.489z"/><path d="M123.968 169.5h-2.059c-7.9 0-14.304 6.404-14.304 14.304v.226s14.243 30.517 15.333 51.098c1.09-20.582 15.333-51.098 15.333-51.098.126-7.987-6.314-14.53-14.303-14.53zm-1.03 65.628a40.89 40.89 0 000 4.659 40.89 40.89 0 000-4.659zM192.285 93.744c6.845 0 14.545-6.329 14.545-6.329-10.227-1.706-12.33-11.645-17.807-24.41 22.519-11.25 16.81-45.832 13.712-58.937-.401-1.698-2.59-2.13-3.637-.735-2.699 3.594-8.444 8.53-20.429 11.296-11.576 2.671-18.086 8.631-21.552 13.279-16.285-6.556-34.135-5.59-34.135-5.59s-17.851-.966-34.135 5.59C85.379 23.26 78.869 17.3 67.293 14.629c-11.985-2.766-17.73-7.702-20.429-11.296-1.048-1.395-3.236-.962-3.637.735-3.098 13.104-8.807 47.687 13.712 58.937-5.477 12.764-7.58 22.703-17.807 24.41 0 0 7.7 6.329 14.545 6.329 0 0-3.422 8.137-12.834 9.945 0 0 5.134 9.041 21.39 9.041 0 0-5.134 7.233-11.123 9.041 0 0 18.823 23.507 71.871 23.507s71.871-23.507 71.871-23.507c-5.989-1.808-11.123-9.041-11.123-9.041 16.256 0 21.39-9.041 21.39-9.041-9.412-1.808-12.834-9.945-12.834-9.945z"/><path d="M123.497 101.516s-.031 10.225-11.853 11.085c1.051 10.022 5.954 17.609 11.853 17.609s10.802-7.587 11.853-17.609c-11.822-.86-11.853-11.085-11.853-11.085z"/><path d="M115.603 124.919c2.115 3.291 4.872 5.292 7.894 5.292 3.023 0 5.779-2.001 7.894-5.292-2.114-3.296-4.87-5.299-7.894-5.299-3.024-.001-5.78 2.003-7.894 5.299zM174.507 239.049c9.435-4.956 40.084-24.333 5.543-52.136-3.582 23.335-21.365 42.024-28.949 49.061-1.413 1.311-.986 3.529.81 4.323 4.477 1.981 6.036 5.131 6.452 7.858.432 2.832-1.979 5.344-5.02 5.344h20.047c3.081 0 5.469-2.573 5.005-5.439-.35-2.161-1.425-4.575-4.1-6.456-.937-.658-.81-2.018.212-2.555z"/><path d="M213.196 142.873c-7.008-.997-13.409 4.229-13.735 11.3-.826 17.904-6.032 30.472-12.354 39.225 4.205 4.499 6.724 8.74 7.975 12.693 16.366-14.382 24.355-34.792 28.035-48.067 1.944-7.01-2.719-14.126-9.921-15.151zM202.735 4.069c-.026-.11-.078-.199-.118-.297-2.177 4.411-10.31 19.205-23.363 23.556-15.401 5.134-6.845 16.256-6.845 16.256l-4.278 2.567s2.567 11.978 12.834 11.978l8.729 4.505c21.713-11.606 16.107-45.596 13.041-58.565zM66.708 27.327C53.655 22.976 45.522 8.182 43.345 3.771c-.04.099-.092.188-.118.297-3.066 12.969-8.672 46.959 13.041 58.566l8.729-4.505c10.267 0 12.834-11.978 12.834-11.978l-4.278-2.567s8.556-11.123-6.845-16.257zM132.046 90.987c0 4.166-4.383 10.057-8.549 10.057s-8.549-5.891-8.549-10.057 4.383-1.006 8.549-1.006 8.549-3.16 8.549 1.006z"/><circle cx="122.994" cy="164.405" r="11.063"/><path d="M122.981 145.279c-14.952 0-27.171-1.872-37.026-4.555 2.792 7.71 14.701 13.798 29.849 15.284 1.934-1.658 4.443-2.666 7.19-2.666s5.256 1.008 7.19 2.666c15.154-1.487 27.066-7.579 29.852-15.293-9.86 2.688-22.087 4.564-37.055 4.564zM71.565 239.049c-9.435-4.956-40.084-24.333-5.543-52.136 3.582 23.335 21.365 42.024 28.949 49.061 1.413 1.311.986 3.529-.81 4.323-4.477 1.981-6.036 5.131-6.452 7.858-.432 2.832 1.979 5.344 5.02 5.344H72.682c-3.081 0-5.469-2.573-5.005-5.439.35-2.161 1.425-4.575 4.1-6.456.937-.658.81-2.018-.212-2.555z"/><path d="M173.391 256h-20.047a2.5 2.5 0 110-5c.819 0 1.574-.333 2.072-.913.276-.322.583-.853.477-1.555-.412-2.699-2.045-4.645-4.993-5.949-1.637-.724-2.785-2.18-3.072-3.895a5.057 5.057 0 011.573-4.547c7.317-6.79 24.71-25.02 28.178-47.608a2.501 2.501 0 014.038-1.568c12.132 9.765 17.801 19.664 16.852 29.421-1.292 13.274-14.556 22.312-21.486 26.165a11.98 11.98 0 013.881 7.109c.327 2.018-.259 4.083-1.607 5.668-1.446 1.698-3.584 2.672-5.866 2.672zm-12.843-5h12.842c.814 0 1.564-.332 2.058-.912.233-.273.605-.85.479-1.628-.326-2.013-1.33-3.586-3.071-4.811a3.945 3.945 0 01-1.688-3.498c.091-1.409.904-2.648 2.175-3.316 5.677-2.982 19.005-11.187 20.148-22.933.694-7.131-3.27-14.623-11.793-22.307-5.049 22.108-21.66 39.495-28.897 46.211-.045.067-.022.142.121.205 5.692 2.518 7.445 6.701 7.912 9.767a6.815 6.815 0 01-.286 3.222zm15.121-9.737c.001-.001.001-.001 0 0zM92.729 256H72.682c-2.283 0-4.42-.974-5.865-2.67-1.348-1.584-1.934-3.65-1.607-5.668a11.975 11.975 0 013.881-7.109c-6.931-3.853-20.195-12.891-21.487-26.165-.95-9.758 4.72-19.657 16.852-29.422a2.5 2.5 0 014.038 1.568c3.468 22.588 20.861 40.818 28.179 47.608 1.265 1.174 1.853 2.874 1.573 4.547-.287 1.715-1.436 3.171-3.072 3.895-2.947 1.304-4.58 3.25-4.992 5.949-.107.702.2 1.232.476 1.554.498.581 1.254.913 2.073.913a2.5 2.5 0 11-.002 5zm-28.356-64.404c-8.523 7.685-12.488 15.176-11.793 22.308 1.144 11.746 14.471 19.95 20.148 22.932a4.025 4.025 0 012.175 3.315 3.944 3.944 0 01-1.688 3.499c-1.741 1.224-2.745 2.797-3.071 4.811-.126.778.247 1.354.479 1.628.493.58 1.243.912 2.058.912h12.842a6.829 6.829 0 01-.286-3.222c.467-3.065 2.22-7.249 7.912-9.767.143-.063.166-.137.164-.154-7.277-6.763-23.89-24.153-28.94-46.262zM135.091 256c-5.326 0-9.297-1.997-11.805-5.935-4.561-7.162-3.749-20.729 2.413-40.326 4.466-14.204 10.248-26.643 10.306-26.767a2.499 2.499 0 114.53 2.114c-6.199 13.285-20.625 50.372-13.032 62.293 1.552 2.436 4.033 3.62 7.587 3.62a2.5 2.5 0 01.001 5.001z"/><path d="M110.785 256a2.5 2.5 0 110-5c3.554 0 6.036-1.184 7.587-3.62 7.592-11.921-6.833-49.009-13.032-62.293a2.5 2.5 0 014.53-2.114c.058.124 5.84 12.563 10.306 26.767 6.162 19.596 6.974 33.164 2.413 40.326-2.507 3.937-6.479 5.934-11.804 5.934zm84.297-47.409a2.5 2.5 0 01-2.383-1.746c-1.208-3.817-3.704-7.767-7.417-11.74a2.501 2.501 0 01-.201-3.171c7.185-9.947 11.183-22.691 11.883-37.877a14.469 14.469 0 015.224-10.451 14.63 14.63 0 0111.361-3.208 14.552 14.552 0 0111.979 18.295c-4.009 14.459-12.259 34.746-28.794 49.277a2.51 2.51 0 01-1.652.621zm-4.79-15.391c2.467 2.851 4.395 5.724 5.763 8.587 13.878-13.502 21.047-31.421 24.654-44.431a9.55 9.55 0 00-7.864-12.008 9.63 9.63 0 00-7.468 2.109c-2.08 1.723-3.294 4.149-3.417 6.831-.71 15.352-4.633 28.43-11.668 38.912zm-67.311-45.421c-53.632 0-73.023-23.447-73.822-24.445a2.5 2.5 0 011.229-3.955c2.476-.748 4.857-2.674 6.652-4.46-13.49-1.683-18.158-9.619-18.371-9.995a2.499 2.499 0 011.702-3.69c4.569-.878 7.49-3.471 9.167-5.561-6.195-1.611-11.712-6.097-11.993-6.327a2.502 2.502 0 011.175-4.398c6.842-1.142 9.308-6.559 13.422-16.838.52-1.299 1.052-2.628 1.618-3.998-9.26-5.547-14.564-15.514-15.775-29.667-1.042-12.185 1.312-24.622 2.809-30.952A4.494 4.494 0 0144.276.097a4.53 4.53 0 014.587 1.735c2.478 3.298 7.784 7.774 18.992 10.36 11.144 2.572 17.899 8.065 21.807 12.72 15.522-5.741 31.559-5.18 33.319-5.098 1.763-.083 17.799-.642 33.319 5.098 3.908-4.655 10.663-10.148 21.807-12.72 11.208-2.586 16.515-7.062 18.992-10.361a4.536 4.536 0 014.587-1.734 4.494 4.494 0 013.482 3.396c1.496 6.33 3.851 18.767 2.809 30.952-1.211 14.153-6.515 24.12-15.775 29.667.566 1.37 1.098 2.699 1.618 3.998 4.114 10.279 6.58 15.697 13.422 16.838a2.498 2.498 0 011.175 4.398c-.281.23-5.798 4.716-11.993 6.327 1.677 2.09 4.597 4.683 9.166 5.561a2.502 2.502 0 011.702 3.69c-.213.376-4.881 8.312-18.371 9.995 1.795 1.786 4.176 3.712 6.652 4.46a2.5 2.5 0 011.229 3.955c-.799.999-20.19 24.445-73.821 24.445zM55.404 122.55c6.411 5.776 26.559 20.229 67.577 20.229 41.202 0 61.228-14.439 67.591-20.22-5.01-2.983-8.694-8.117-8.882-8.382a2.498 2.498 0 012.038-3.947c9.119 0 14.316-2.987 16.954-5.266-7.632-3.15-10.563-9.921-10.703-10.251a2.499 2.499 0 012.305-3.47c3.07 0 6.466-1.57 9.011-3.07-6.155-3.304-8.963-10.322-12.119-18.205a256.883 256.883 0 00-2.452-5.977 2.5 2.5 0 011.18-3.222c20.255-10.119 15.788-41.264 12.612-55.197-3.178 3.868-9.38 8.746-21.287 11.493-10.891 2.513-16.947 8.096-20.11 12.337a2.5 2.5 0 01-2.938.825c-15.552-6.261-32.894-5.422-33.068-5.413-.088.004-.18.004-.268 0-.171-.009-17.518-.848-33.068 5.413a2.5 2.5 0 01-2.938-.825c-3.163-4.241-9.219-9.824-20.11-12.337-11.908-2.748-18.11-7.625-21.287-11.493-3.176 13.934-7.643 45.079 12.612 55.197a2.499 2.499 0 011.18 3.222 256.883 256.883 0 00-2.452 5.977c-3.155 7.883-5.963 14.901-12.119 18.205 2.545 1.5 5.941 3.07 9.012 3.07a2.501 2.501 0 012.305 3.47c-.139.331-3.071 7.103-10.705 10.252 2.633 2.274 7.832 5.265 16.957 5.265a2.5 2.5 0 012.038 3.947c-.186.264-3.863 5.389-8.866 8.373z"/><path d="M189.696 65.135a2.5 2.5 0 01-1.181-4.705c8.562-4.577 13.44-13.583 14.5-26.768.664-8.262-.322-16.672-1.45-22.939-4.115 6.514-11.4 15.604-21.52 18.976-4.12 1.374-6.569 3.249-7.28 5.574-.995 3.253 1.599 6.752 1.625 6.787a2.503 2.503 0 01-.695 3.668l-2.618 1.571c1.021 2.854 3.778 8.331 9.888 8.331a2.5 2.5 0 110 5c-9.72 0-14.244-9.128-15.278-13.955a2.5 2.5 0 011.158-2.668l2.154-1.292c-1.032-2.134-2.073-5.443-1.015-8.903 1.211-3.962 4.737-6.941 10.48-8.855 12.118-4.039 19.835-18.083 21.912-22.291a2.522 2.522 0 012.333-1.392 2.502 2.502 0 012.226 1.558c.049.105.16.346.234.662 1.474 6.233 3.801 18.492 2.831 30.569-1.204 14.991-6.966 25.346-17.126 30.776-.377.201-.78.296-1.178.296zM153.343 256h-18.252c-4.218 0-9.201-1.291-12.153-6.489-2.953 5.199-7.935 6.489-12.153 6.489H92.729c-2.278 0-4.416-.968-5.865-2.655-1.336-1.555-1.929-3.584-1.626-5.566.468-3.066 2.22-7.249 7.913-9.767.142-.063.165-.137.163-.154-7.003-6.509-19.665-19.953-26.269-37.433-8.487-22.467-4.139-43.521 12.925-62.578a2.497 2.497 0 012.614-.717c11.884 3.749 25.476 5.649 40.397 5.649 14.957 0 28.576-1.91 40.48-5.676a2.497 2.497 0 012.616.715c17.082 19.061 21.44 40.121 12.954 62.595-6.603 17.486-19.269 30.934-26.231 37.394-.044.067-.021.142.122.205 5.692 2.518 7.444 6.701 7.912 9.767.303 1.982-.29 4.011-1.626 5.566-1.449 1.687-3.586 2.655-5.865 2.655zm-30.604-16.653h.397c1.254 0 2.314.929 2.479 2.172.868 6.557 3.791 9.481 9.477 9.481h18.252c.819 0 1.574-.333 2.072-.913.276-.322.583-.853.477-1.555-.412-2.699-2.045-4.645-4.993-5.949-1.637-.724-2.785-2.18-3.072-3.895-.28-1.673.308-3.373 1.572-4.547 12.213-11.332 48.995-51.181 14.006-91.791-12.013 3.603-25.603 5.428-40.425 5.428-14.786 0-28.346-1.816-40.337-5.401-34.95 40.601 1.819 80.436 14.028 91.764 1.265 1.174 1.853 2.874 1.573 4.547-.287 1.715-1.435 3.17-3.071 3.895-2.948 1.304-4.581 3.25-4.993 5.949-.107.702.2 1.233.477 1.555.498.58 1.253.913 2.072.913h18.056c5.686 0 8.609-2.924 9.476-9.481a2.498 2.498 0 012.477-2.172z"/><path d="M122.994 177.968c-7.479 0-13.563-6.084-13.563-13.563s6.084-13.563 13.563-13.563 13.563 6.084 13.563 13.563-6.084 13.563-13.563 13.563zm0-22.126c-4.722 0-8.563 3.841-8.563 8.563s3.841 8.563 8.563 8.563 8.563-3.841 8.563-8.563-3.841-8.563-8.563-8.563z"/><path d="M130.185 158.508a2.5 2.5 0 01-1.627-.602c-1.553-1.331-3.528-2.063-5.563-2.063s-4.011.733-5.564 2.064a2.513 2.513 0 01-1.871.59c-16.267-1.596-28.811-8.238-31.956-16.921a2.5 2.5 0 013.007-3.264c10.888 2.964 23.124 4.468 36.37 4.468 13.256 0 25.502-1.506 36.398-4.477a2.501 2.501 0 013.009 3.262c-3.139 8.688-15.684 15.334-31.959 16.932a2.863 2.863 0 01-.244.011zm-38.396-13.803c4.744 4.276 13.313 7.58 23.27 8.71a13.557 13.557 0 017.936-2.573c2.854 0 5.631.907 7.936 2.573 9.964-1.131 18.538-4.438 23.279-8.718-9.614 2.047-20.087 3.083-31.229 3.083-11.128-.001-21.589-1.033-31.192-3.075zm31.205 33.263c-7.479 0-13.563-6.084-13.563-13.563a2.5 2.5 0 012.5-2.5h22.126a2.5 2.5 0 012.5 2.5c0 7.479-6.084 13.563-13.563 13.563zm-8.191-11.063c1.072 3.506 4.339 6.063 8.191 6.063s7.119-2.557 8.191-6.063z"/><path d="M122.867 169.922a2.5 2.5 0 01-2.5-2.5v-3.017a2.5 2.5 0 115 0v3.017a2.5 2.5 0 01-2.5 2.5zm.63-66.378c-5.691 0-11.049-7.074-11.049-12.557 0-1.697.534-2.975 1.586-3.798 1.732-1.357 3.905-.817 6.007-.296 1.168.29 2.376.589 3.456.589s2.288-.299 3.456-.589c2.101-.521 4.274-1.06 6.007.296 1.053.823 1.586 2.102 1.586 3.798 0 5.483-5.358 12.557-11.049 12.557zm-6.026-12.115c.307 3.07 3.655 7.116 6.026 7.116s5.72-4.045 6.026-7.116c-.441.087-.963.217-1.368.317-1.322.328-2.968.736-4.658.736s-3.336-.408-4.658-.736c-.405-.1-.927-.23-1.368-.317z"/><path d="M136.43 115.143c-.402 0-.812-.015-1.231-.045-14.002-1-14.201-13.449-14.202-13.575a2.5 2.5 0 012.493-2.507h.007a2.5 2.5 0 012.5 2.477c.015.826.417 7.964 9.558 8.618 2.439.172 4.306-.358 5.682-1.629 2.661-2.457 2.728-6.931 2.728-6.976.011-1.376 1.161-2.458 2.51-2.484a2.496 2.496 0 012.49 2.495c0 .27-.049 6.647-4.302 10.608-2.154 2.004-4.92 3.018-8.233 3.018z"/><path d="M110.565 115.143c-3.314 0-6.079-1.013-8.233-3.019-4.253-3.96-4.302-10.339-4.302-10.608a2.5 2.5 0 115 0c0 .035.067 4.509 2.728 6.966 1.376 1.271 3.235 1.807 5.682 1.629 9.426-.673 9.557-8.279 9.558-8.602a2.5 2.5 0 012.5-2.493h.007a2.5 2.5 0 012.493 2.507c0 .125-.199 12.574-14.202 13.575-.419.029-.829.045-1.231.045z"/><path d="M123.497 132.71c-7.217 0-13.113-8.162-14.339-19.849a2.5 2.5 0 012.304-2.754c9.128-.665 9.52-7.805 9.535-8.618a2.508 2.508 0 012.5-2.464h.019a2.49 2.49 0 012.481 2.468c.016.828.419 7.951 9.535 8.614a2.498 2.498 0 012.304 2.754c-1.226 11.687-7.122 19.849-14.339 19.849zm-9.025-17.97c1.345 7.44 5.089 12.971 9.025 12.971s7.68-5.531 9.025-12.971c-4.599-.926-7.364-3.252-9.025-5.7-1.661 2.448-4.425 4.774-9.025 5.7zm111.611-12.201c-.195 0-.393-.023-.591-.071-32.438-7.864-61.307-5.99-61.594-5.97a2.5 2.5 0 11-.344-4.988c.295-.019 29.937-1.944 63.116 6.099a2.5 2.5 0 01-.587 4.93zm-2.666 24.475c-.389 0-.783-.091-1.152-.283-29.61-15.406-58.087-20.501-58.371-20.551a2.5 2.5 0 11.862-4.926c.292.051 29.53 5.283 59.817 21.041a2.5 2.5 0 01-1.156 4.719zm-201.5-24.475a2.501 2.501 0 01-.587-4.931c33.18-8.043 62.82-6.119 63.116-6.099a2.5 2.5 0 01-.343 4.989c-.29-.02-29.197-1.885-61.595 5.97a2.512 2.512 0 01-.591.071zm2.666 24.475a2.5 2.5 0 01-1.156-4.719c30.288-15.758 59.526-20.99 59.817-21.041a2.5 2.5 0 01.862 4.926c-.285.05-28.799 5.165-58.372 20.551a2.478 2.478 0 01-1.151.283zm113.56-43.657a2.5 2.5 0 01-2.5-2.492c-.017-5.29 4.273-9.607 9.562-9.624 2.591-.014 4.975.981 6.793 2.788a9.537 9.537 0 012.832 6.774 2.5 2.5 0 01-2.492 2.508h-.008a2.5 2.5 0 01-2.5-2.492 4.56 4.56 0 00-1.356-3.244 4.565 4.565 0 00-3.237-1.335h-.015a4.6 4.6 0 00-4.579 4.608 2.5 2.5 0 01-2.492 2.508l-.008.001zm-29.804-.023a2.5 2.5 0 01-2.5-2.5c0-2.533-2.061-4.593-4.594-4.593s-4.593 2.061-4.593 4.593a2.5 2.5 0 11-5 0c0-5.29 4.304-9.593 9.593-9.593 5.29 0 9.594 4.304 9.594 9.593a2.5 2.5 0 01-2.5 2.5zM56.266 65.135c-.398 0-.801-.095-1.177-.296-10.159-5.431-15.922-15.785-17.126-30.776-.97-12.078 1.357-24.337 2.831-30.569.075-.316.186-.557.238-.673a2.494 2.494 0 012.224-1.553 2.51 2.51 0 012.331 1.397c2.077 4.208 9.797 18.252 21.912 22.291 5.743 1.914 9.269 4.894 10.48 8.855 1.058 3.46.017 6.77-1.016 8.903l2.154 1.292a2.5 2.5 0 011.158 2.668c-1.034 4.827-5.559 13.955-15.278 13.955a2.5 2.5 0 110-5c6.069 0 8.848-5.489 9.881-8.335l-2.611-1.566a2.501 2.501 0 01-.695-3.668c.02-.026 2.633-3.546 1.619-6.81-.72-2.314-3.167-4.182-7.272-5.551-10.118-3.372-17.405-12.463-21.521-18.977-1.128 6.267-2.114 14.678-1.45 22.941 1.06 13.185 5.938 22.19 14.5 26.767a2.5 2.5 0 01-1.182 4.705z"/><path d="M123.497 132.71c-3.777 0-7.328-2.287-9.997-6.44a2.499 2.499 0 01-.001-2.701c2.668-4.159 6.219-6.45 9.999-6.45s7.331 2.291 9.999 6.45a2.503 2.503 0 01-.001 2.702c-2.671 4.152-6.222 6.439-9.999 6.439zm-4.808-7.793c1.13 1.368 2.792 2.793 4.808 2.793s3.678-1.425 4.809-2.793c-1.13-1.37-2.791-2.798-4.809-2.798-2.017 0-3.679 1.428-4.808 2.798z"/></symbol><symbol viewBox="-16 0 464 464.8" id="shiba" xmlns="http://www.w3.org/2000/svg"><path d="M86.93 0v16.266a169.37 169.37 0 006.449 46.558l9.437 33.192 72.051-71.91-12.219-6.13A169.267 169.267 0 0086.93 0zm212.199 18.16l-12.262 6.098 71.903 72.101 9.558-33.16a169.61 169.61 0 006.586-46.543V.391a169.45 169.45 0 00-75.785 17.77zm0 0M106.54 336.441a47.96 47.96 0 01-35.013-22.53 47.964 47.964 0 01-4.191-41.423 42.266 42.266 0 00-2.566-36.511l-1.512-2.52C27.91 237.98 1.19 267.68.418 303.305c-.777 35.625 24.625 66.46 59.738 72.52 35.117 6.058 69.383-14.481 80.59-48.305a47.745 47.745 0 01-34.207 8.921zm0 0"/><path d="M382.344 424.39l13.96-65.87a71.397 71.397 0 00-14.343-59.715 71.411 71.411 0 00-55.406-26.492l-192-.266a71.413 71.413 0 00-55.485 26.34 71.412 71.412 0 00-14.507 59.676L78.343 424h-8c-22.09-.031-40.023 17.852-40.054 39.945l96 .125 208 .297 96 .13c.031-22.09-17.851-40.024-39.945-40.056zm0 0"/><path d="M432.465 464.8c0-22.093-17.906-40-40-40h-8l13.87-65.89c5.692-26.957-4.667-54.777-26.605-71.445C333.043 389.168 234.746 439.793 152.547 464.8zm0 0M376.465 176.8h32c0 22.09-17.906 40-40 40h-32c0-22.093 17.91-40 40-40zm0 0M336.465 216.8h32c22.094 0 40 17.907 40 40h-32c-22.09 0-40-17.91-40-40zm0 0"/><path d="M336.465 168.8h-208v32.095l16 263.906h64v-120h48v120h64l16-263.906zm0 0"/><path d="M336.465 176.8h-208v24.095a102.11 102.11 0 0046.723 80 474.364 474.364 0 0032.796 19.203c.489.254.961.543 1.45.797l22.558 11.906 24-13.442 25.793-14.398 3.2-1.809a102.463 102.463 0 0051.48-82.351zm0 0"/><path d="M336.465 176.8h-208v24.095a102.11 102.11 0 0046.723 80 474.364 474.364 0 0032.796 19.203c.489.254.961.543 1.45.797l22.558 11.906 24-13.442 25.793-14.398 3.2-1.809a102.463 102.463 0 0051.48-82.351zm0 0"/><path d="M269.266 240.8h-73.602a32.005 32.005 0 01-20-7.015l-59.2-47.387a32.006 32.006 0 01-12-24.972v-59.371a32.006 32.006 0 019.376-22.63l45.25-45.25a31.999 31.999 0 0122.633-9.374H283.21a31.99 31.99 0 0122.629 9.375l45.25 45.25a31.99 31.99 0 019.375 22.629v59.37a31.982 31.982 0 01-12 24.973l-59.2 47.38a32.013 32.013 0 01-20 7.023zm0 0"/><path d="M300.465 112.8c-25.055.45-47.207 16.388-55.598 40h-24.8c-8.391-23.613-30.544-39.55-55.602-40-24.63.415-46.512 15.829-55.2 38.88-5.18 13.09-1.199 28.027 9.81 36.8l56.59 45.305a32.005 32.005 0 0020 7.016h73.6c7.27 0 14.325-2.473 20-7.016l56.626-45.297c11.007-8.773 14.988-23.71 9.808-36.8-8.691-23.067-30.59-38.485-55.234-38.887zm0 0"/><path d="M224.465 120.8h16c8.836 0 16 7.165 16 16 0 8.837-7.164 16-16 16h-16c-8.836 0-16-7.163-16-16 0-8.835 7.164-16 16-16zm0 0M256.465 184.8c0 13.255-10.746 24-24 24s-24-10.745-24-24l24-8zm0 0M192.465 96.8c0 8.837-7.164 16-16 16s-16-7.163-16-16c0-8.835 7.164-16 16-16s16 7.165 16 16zm112 0c0 8.837-7.164 16-16 16s-16-7.163-16-16c0-8.835 7.164-16 16-16s16 7.165 16 16zm0 0M168.465 48.8h16v16h-16zm112 0h16v16h-16zm0 0"/><path d="M281.809 156.36l-10.047 15.09a8.05 8.05 0 01-8.23 3.405l-23.067-4.617v-17.437h-16v17.437l-23.063 4.617a8.004 8.004 0 01-8.226-3.406l-10.055-15.09-13.312 8.88 10.058 15.081a23.946 23.946 0 0024.68 10.223l27.918-5.598 27.922 5.598a23.875 23.875 0 0024.68-10.223l10.054-15.082zm0 0"/></symbol><symbol viewBox="0 -10 511.987 511" id="star" xmlns="http://www.w3.org/2000/svg"><path d="M510.652 185.902a27.158 27.158 0 00-23.425-18.71l-147.774-13.419-58.433-136.77C276.71 6.98 266.898.494 255.996.494s-20.715 6.487-25.023 16.534l-58.434 136.746-147.797 13.418a27.208 27.208 0 00-23.402 18.71c-3.371 10.368-.258 21.739 7.957 28.907l111.7 97.96-32.938 145.09c-2.41 10.668 1.73 21.696 10.582 28.094 4.757 3.438 10.324 5.188 15.937 5.188 4.84 0 9.64-1.305 13.95-3.883l127.468-76.184 127.422 76.184c9.324 5.61 21.078 5.097 29.91-1.305a27.223 27.223 0 0010.582-28.094l-32.937-145.09 111.699-97.94a27.224 27.224 0 007.98-28.927zm0 0"/></symbol></svg>