<svg viewBox="0 0 162 47" fill="none" xmlns="http://www.w3.org/2000/svg">
<g opacity="0.5">
<path fill-rule="evenodd" clip-rule="evenodd" d="M18.5785 45.2415C16.5728 45.46 14.4612 45.3092 12.5298 44.778C10.5863 44.2508 8.77541 43.3569 7.22402 42.1743C5.67102 40.9918 4.37752 39.5207 3.44539 37.8787C2.51084 36.2383 1.94412 34.4318 1.76465 32.6229C2.27477 34.3681 3.14384 35.9698 4.27565 37.3055C5.40747 38.6428 6.79636 39.7157 8.30733 40.4735C9.81911 41.2328 11.453 41.6786 13.0787 41.8051C14.7166 41.9317 16.2987 41.7487 17.8558 41.2772C18.9302 40.9515 20.066 41.5561 20.3935 42.6274C20.7193 43.6987 20.1129 44.8312 19.0385 45.1569C18.9197 45.194 18.7984 45.219 18.6788 45.2327L18.5785 45.2415" fill="url(#paint0_linear)"/>
<path fill-rule="evenodd" clip-rule="evenodd" d="M38.8276 28.251C39.1535 30.2641 39.0621 32.4097 38.5472 34.3542C38.0379 36.3129 37.1285 38.1198 35.9354 39.6628C33.5524 42.7593 30.0248 44.7218 26.4212 45.2393C29.8744 44.0641 32.7103 41.5856 34.2344 38.5704C35.0031 37.0693 35.4536 35.4448 35.5606 33.8365C35.6652 32.218 35.4382 30.6652 34.8913 29.1622C34.5094 28.1075 35.0551 26.9459 36.111 26.5663C37.1669 26.1867 38.3325 26.7334 38.7154 27.7875C38.7586 27.9056 38.7897 28.0232 38.8097 28.143L38.8271 28.2541" fill="url(#paint1_linear)"/>
<path fill-rule="evenodd" clip-rule="evenodd" d="M21.6003 8.44922C23.604 8.21403 25.7129 8.34695 27.6521 8.86297C29.6012 9.37304 31.4203 10.2522 32.9831 11.4218C34.5492 12.5909 35.8582 14.051 36.8074 15.6851C37.7583 17.3178 38.3436 19.1195 38.5386 20.9265C38.0111 19.185 37.1259 17.59 35.9798 16.266C34.8345 14.9372 33.4351 13.8771 31.9157 13.1321C30.3972 12.3864 28.7596 11.9545 27.1329 11.8415C25.4922 11.729 23.9128 11.9247 22.3608 12.4092C21.2901 12.7442 20.1482 12.1485 19.8095 11.0808C19.4718 10.0124 20.0673 8.87369 21.1378 8.53949C21.2574 8.50181 21.3769 8.47633 21.4975 8.46077L21.5995 8.44911" fill="url(#paint2_linear)"/>
<path fill-rule="evenodd" clip-rule="evenodd" d="M1.67973 25.4271C1.32018 23.4202 1.37874 21.2736 1.86342 19.3209C2.34129 17.3531 3.22267 15.5321 4.38993 13.9757C6.7222 10.8431 10.2191 8.82473 13.8131 8.25703C10.3797 9.48296 7.584 12.0036 6.10883 15.042C5.36387 16.5558 4.93842 18.1864 4.8575 19.7962C4.77795 21.4197 5.03027 22.9663 5.59974 24.463C5.99925 25.5117 5.47265 26.6812 4.42295 27.0767C3.37325 27.4721 2.19893 26.9428 1.7992 25.8948C1.75434 25.7776 1.72167 25.6587 1.69997 25.5393L1.68051 25.4273" fill="url(#paint3_linear)"/>
<path d="M30.2593 26.8579C30.2593 21.7334 26.2156 17.5385 21.149 17.324C21.0777 17.324 21.0063 17.324 20.935 17.324H20.9112C20.8636 17.324 20.816 17.324 20.7685 17.324C20.7209 17.324 20.6733 17.324 20.6257 17.324H20.6019C20.5306 17.324 20.4592 17.324 20.3879 17.324C15.2737 17.5385 11.23 21.7334 11.23 26.8579C11.23 31.9586 15.2499 36.1297 20.2927 36.3918C20.3879 36.3918 20.483 36.4157 20.5544 36.4157C20.5782 36.4157 20.5782 36.4157 20.6019 36.4157C20.6495 36.4157 20.6971 36.4157 20.7447 36.4157C20.7922 36.4157 20.8398 36.4157 20.8874 36.4157C20.9112 36.4157 20.9112 36.4157 20.935 36.4157C21.0301 36.4157 21.1253 36.4157 21.1966 36.3918C26.2394 36.1297 30.2593 31.9586 30.2593 26.8579ZM12.2052 27.3346H15.2975C15.3451 28.7885 15.5354 30.1233 15.8922 31.3389C15.2261 31.5772 14.5839 31.8394 14.0368 32.1731C12.9664 30.8145 12.3004 29.1461 12.2052 27.3346ZM14.013 21.5666C14.5601 21.8764 15.2024 22.1624 15.8684 22.4008C15.5116 23.5925 15.3213 24.9511 15.2737 26.405H12.1814C12.3004 24.5698 12.9664 22.9013 14.013 21.5666ZM29.2841 26.3812H26.2156C26.168 24.975 25.9777 23.6402 25.6447 22.4485C26.3345 22.234 26.9768 21.9479 27.5477 21.6381C28.5705 22.9728 29.1889 24.6174 29.2841 26.3812ZM25.2641 26.3812H21.2204V23.1635C22.4335 23.1397 23.6229 22.9967 24.717 22.7345C25.0263 23.8309 25.2166 25.0703 25.2641 26.3812ZM21.2204 22.2101V18.3012C22.5049 18.4919 23.6704 19.8266 24.4078 21.8049C23.4088 22.0433 22.3384 22.1863 21.2204 22.2101ZM20.2689 18.3012V22.2101C19.151 22.1624 18.0806 22.0194 17.1053 21.7811C17.8427 19.8028 18.9844 18.468 20.2689 18.3012ZM20.2689 23.1635V26.3812H16.2252C16.2728 25.0465 16.4631 23.7832 16.7961 22.663C17.8903 22.949 19.0558 23.1158 20.2689 23.1635ZM16.2252 27.3346H20.2689V30.5523C19.0558 30.6 17.8903 30.7668 16.7961 31.0528C16.4631 29.9326 16.2728 28.6694 16.2252 27.3346ZM20.2689 31.5295V35.4385C18.9844 35.2716 17.8427 33.9369 17.1053 31.9824C18.0806 31.7202 19.151 31.5534 20.2689 31.5295ZM21.2204 35.4146V31.5057C22.3384 31.5295 23.4088 31.6725 24.4078 31.9109C23.6704 33.8892 22.5049 35.2239 21.2204 35.4146ZM21.2204 30.5523V27.3346H25.2641C25.2166 28.6455 25.0263 29.8849 24.717 31.0052C23.6229 30.743 22.4335 30.5761 21.2204 30.5523ZM26.2156 27.3346H29.3079C29.2127 29.0984 28.5705 30.743 27.5714 32.0539C27.0006 31.7441 26.3583 31.4819 25.6685 31.2435C25.9777 30.0756 26.168 28.7647 26.2156 27.3346ZM26.9054 20.923C26.4297 21.1614 25.9064 21.3759 25.3355 21.5666C24.9311 20.494 24.4316 19.5644 23.8369 18.8732C25.0025 19.3261 26.0491 20.0173 26.9054 20.923ZM17.6524 18.8494C17.0577 19.5406 16.5582 20.4225 16.1776 21.4712C15.6305 21.2806 15.131 21.066 14.6553 20.8277C15.4878 19.9696 16.5106 19.3023 17.6524 18.8494ZM14.6553 32.8881C15.1072 32.6498 15.6305 32.4114 16.1776 32.2446C16.5582 33.2933 17.0577 34.1752 17.6524 34.8664C16.5106 34.4136 15.4878 33.7462 14.6553 32.8881ZM23.8369 34.8664C24.4316 34.1752 24.9549 33.2456 25.3355 32.1731C25.9064 32.3638 26.4297 32.5544 26.9054 32.8166C26.0491 33.6985 25.0025 34.3897 23.8369 34.8664Z" fill="#7D7D7D"/>
</g>
<path d="M50.184 24V12.64H52.392V24H50.184ZM61.3701 16.704V24H59.1621V12.64H60.9221L66.7941 20.128V12.656H69.0021V24H67.1621L61.3701 16.704ZM84.2612 14.576H80.6292V24H78.4372V14.576H74.8052V12.64H84.2612V14.576ZM97.9595 22.064V24H90.0715V12.64H97.8155V14.576H92.2795V17.312H97.0635V19.104H92.2795V22.064H97.9595ZM104.081 24V12.64H109.105C109.628 12.64 110.108 12.7467 110.545 12.96C110.993 13.1733 111.377 13.4613 111.697 13.824C112.028 14.1867 112.278 14.592 112.449 15.04C112.63 15.488 112.721 15.9467 112.721 16.416C112.721 17.1413 112.534 17.808 112.161 18.416C111.798 19.024 111.302 19.4613 110.673 19.728L113.265 24H110.833L108.497 20.192H106.289V24H104.081ZM106.289 18.256H109.057C109.473 18.256 109.814 18.08 110.081 17.728C110.358 17.3653 110.497 16.928 110.497 16.416C110.497 16.064 110.422 15.7493 110.273 15.472C110.124 15.1947 109.932 14.976 109.697 14.816C109.473 14.656 109.228 14.576 108.961 14.576H106.289V18.256ZM121.33 16.704V24H119.122V12.64H120.882L126.753 20.128V12.656H128.962V24H127.122L121.33 16.704ZM143.613 22.064V24H135.725V12.64H143.469V14.576H137.933V17.312H142.717V19.104H137.933V22.064H143.613ZM158.23 14.576H154.598V24H152.406V14.576H148.774V12.64H158.23V14.576Z" fill="#474747"/>
<path d="M51.75 40.05C51.25 40.05 50.7967 39.95 50.39 39.75C49.9833 39.5433 49.6333 39.27 49.34 38.93C49.0467 38.59 48.82 38.2067 48.66 37.78C48.5 37.3467 48.42 36.9033 48.42 36.45C48.42 35.9767 48.5033 35.5267 48.67 35.1C48.8367 34.6667 49.07 34.2833 49.37 33.95C49.6767 33.61 50.0333 33.3433 50.44 33.15C50.8467 32.95 51.2867 32.85 51.76 32.85C52.2533 32.85 52.7033 32.9533 53.11 33.16C53.5167 33.3667 53.8667 33.6433 54.16 33.99C54.46 34.3367 54.6867 34.7233 54.84 35.15C55 35.5767 55.08 36.0133 55.08 36.46C55.08 36.9333 54.9967 37.3867 54.83 37.82C54.6633 38.2467 54.43 38.63 54.13 38.97C53.83 39.3033 53.4767 39.5667 53.07 39.76C52.6633 39.9533 52.2233 40.05 51.75 40.05ZM49.12 36.45C49.12 36.8367 49.1833 37.2067 49.31 37.56C49.4367 37.9133 49.6167 38.23 49.85 38.51C50.0833 38.79 50.36 39.0133 50.68 39.18C51.0067 39.34 51.3633 39.42 51.75 39.42C52.1567 39.42 52.52 39.3367 52.84 39.17C53.1667 38.9967 53.4433 38.7667 53.67 38.48C53.9033 38.1933 54.08 37.8767 54.2 37.53C54.32 37.1767 54.38 36.8167 54.38 36.45C54.38 36.0633 54.3167 35.6933 54.19 35.34C54.0633 34.9867 53.88 34.67 53.64 34.39C53.4067 34.11 53.13 33.89 52.81 33.73C52.49 33.57 52.1367 33.49 51.75 33.49C51.35 33.49 50.9867 33.5733 50.66 33.74C50.34 33.9067 50.0633 34.1333 49.83 34.42C49.6033 34.7 49.4267 35.0167 49.3 35.37C49.18 35.7233 49.12 36.0833 49.12 36.45ZM58.5498 40V32.9H63.2098V33.52H59.2498V36.13H62.5898V36.71H59.2498V40H58.5498Z" fill="black"/>
<path d="M73.8529 40.05C73.3862 40.05 72.9496 39.9567 72.5429 39.77C72.1362 39.5833 71.7762 39.3267 71.4629 39C71.1562 38.6667 70.9162 38.28 70.7429 37.84C70.5696 37.4 70.4829 36.9233 70.4829 36.41C70.4829 35.9233 70.5696 35.4667 70.7429 35.04C70.9162 34.6067 71.1596 34.2267 71.4729 33.9C71.7862 33.5733 72.1529 33.3167 72.5729 33.13C72.9929 32.9433 73.4496 32.85 73.9429 32.85C74.6029 32.85 75.1729 32.9933 75.6529 33.28C76.1329 33.56 76.4929 33.9333 76.7329 34.4L75.7029 35.16C75.5229 34.8133 75.2696 34.5467 74.9429 34.36C74.6229 34.1667 74.2729 34.07 73.8929 34.07C73.4929 34.07 73.1396 34.18 72.8329 34.4C72.5329 34.62 72.2962 34.91 72.1229 35.27C71.9562 35.63 71.8729 36.0233 71.8729 36.45C71.8729 36.8967 71.9629 37.3 72.1429 37.66C72.3229 38.02 72.5696 38.3067 72.8829 38.52C73.2029 38.7267 73.5662 38.83 73.9729 38.83C74.6596 38.83 75.2796 38.5067 75.8329 37.86V37.36H74.4029V36.35H76.9729V40H75.8329V39.2C75.2596 39.7667 74.5996 40.05 73.8529 40.05ZM83.329 40.05C82.809 40.05 82.3357 39.95 81.909 39.75C81.489 39.55 81.1257 39.28 80.819 38.94C80.519 38.5933 80.2857 38.2067 80.119 37.78C79.9523 37.3467 79.869 36.9033 79.869 36.45C79.869 35.9767 79.9557 35.5267 80.129 35.1C80.3023 34.6667 80.5457 34.2833 80.859 33.95C81.1723 33.61 81.539 33.3433 81.959 33.15C82.3857 32.95 82.8523 32.85 83.359 32.85C83.8723 32.85 84.339 32.9533 84.759 33.16C85.1857 33.3667 85.549 33.6433 85.849 33.99C86.1557 34.3367 86.389 34.7267 86.549 35.16C86.7157 35.5867 86.799 36.0233 86.799 36.47C86.799 36.9367 86.7123 37.3867 86.539 37.82C86.3657 38.2467 86.1223 38.63 85.809 38.97C85.5023 39.3033 85.1357 39.5667 84.709 39.76C84.289 39.9533 83.829 40.05 83.329 40.05ZM81.269 36.45C81.269 36.8633 81.349 37.25 81.509 37.61C81.6757 37.97 81.9123 38.2633 82.219 38.49C82.5323 38.7167 82.9057 38.83 83.339 38.83C83.7857 38.83 84.1623 38.7133 84.469 38.48C84.7757 38.2467 85.009 37.9467 85.169 37.58C85.329 37.2133 85.409 36.8367 85.409 36.45C85.409 36.0367 85.3257 35.65 85.159 35.29C84.9923 34.93 84.7523 34.64 84.439 34.42C84.1323 34.1933 83.7657 34.08 83.339 34.08C82.8923 34.08 82.5157 34.1967 82.209 34.43C81.9023 34.6633 81.669 34.9633 81.509 35.33C81.349 35.69 81.269 36.0633 81.269 36.45ZM93.0376 40.05C92.5176 40.05 92.0442 39.95 91.6176 39.75C91.1976 39.55 90.8342 39.28 90.5276 38.94C90.2276 38.5933 89.9942 38.2067 89.8276 37.78C89.6609 37.3467 89.5776 36.9033 89.5776 36.45C89.5776 35.9767 89.6642 35.5267 89.8376 35.1C90.0109 34.6667 90.2542 34.2833 90.5676 33.95C90.8809 33.61 91.2476 33.3433 91.6676 33.15C92.0942 32.95 92.5609 32.85 93.0676 32.85C93.5809 32.85 94.0476 32.9533 94.4676 33.16C94.8942 33.3667 95.2576 33.6433 95.5576 33.99C95.8642 34.3367 96.0976 34.7267 96.2576 35.16C96.4242 35.5867 96.5076 36.0233 96.5076 36.47C96.5076 36.9367 96.4209 37.3867 96.2476 37.82C96.0742 38.2467 95.8309 38.63 95.5176 38.97C95.2109 39.3033 94.8442 39.5667 94.4176 39.76C93.9976 39.9533 93.5376 40.05 93.0376 40.05ZM90.9776 36.45C90.9776 36.8633 91.0576 37.25 91.2176 37.61C91.3842 37.97 91.6209 38.2633 91.9276 38.49C92.2409 38.7167 92.6142 38.83 93.0476 38.83C93.4942 38.83 93.8709 38.7133 94.1776 38.48C94.4842 38.2467 94.7176 37.9467 94.8776 37.58C95.0376 37.2133 95.1176 36.8367 95.1176 36.45C95.1176 36.0367 95.0342 35.65 94.8676 35.29C94.7009 34.93 94.4609 34.64 94.1476 34.42C93.8409 34.1933 93.4742 34.08 93.0476 34.08C92.6009 34.08 92.2242 34.1967 91.9176 34.43C91.6109 34.6633 91.3776 34.9633 91.2176 35.33C91.0576 35.69 90.9776 36.0633 90.9776 36.45ZM99.7162 40V32.9H102.296C103.07 32.9 103.716 33.06 104.236 33.38C104.756 33.6933 105.146 34.12 105.406 34.66C105.666 35.1933 105.796 35.7867 105.796 36.44C105.796 37.16 105.653 37.7867 105.366 38.32C105.08 38.8533 104.673 39.2667 104.146 39.56C103.62 39.8533 103.003 40 102.296 40H99.7162ZM104.406 36.44C104.406 35.98 104.323 35.5767 104.156 35.23C103.99 34.8767 103.75 34.6033 103.436 34.41C103.123 34.21 102.743 34.11 102.296 34.11H101.096V38.79H102.296C102.75 38.79 103.133 38.69 103.446 38.49C103.76 38.2833 103.996 38.0033 104.156 37.65C104.323 37.29 104.406 36.8867 104.406 36.44ZM118.594 34.11H116.324V40H114.954V34.11H112.684V32.9H118.594V34.11ZM127.595 32.9V40H126.225V36.97H123.005V40H121.625V32.9H123.005V35.77H126.225V32.9H127.595ZM131.226 40V32.9H132.606V40H131.226ZM137.618 35.44V40H136.238V32.9H137.338L141.008 37.58V32.91H142.388V40H141.238L137.618 35.44ZM148.965 40.05C148.498 40.05 148.061 39.9567 147.655 39.77C147.248 39.5833 146.888 39.3267 146.575 39C146.268 38.6667 146.028 38.28 145.855 37.84C145.681 37.4 145.595 36.9233 145.595 36.41C145.595 35.9233 145.681 35.4667 145.855 35.04C146.028 34.6067 146.271 34.2267 146.585 33.9C146.898 33.5733 147.265 33.3167 147.685 33.13C148.105 32.9433 148.561 32.85 149.055 32.85C149.715 32.85 150.285 32.9933 150.765 33.28C151.245 33.56 151.605 33.9333 151.845 34.4L150.815 35.16C150.635 34.8133 150.381 34.5467 150.055 34.36C149.735 34.1667 149.385 34.07 149.005 34.07C148.605 34.07 148.251 34.18 147.945 34.4C147.645 34.62 147.408 34.91 147.235 35.27C147.068 35.63 146.985 36.0233 146.985 36.45C146.985 36.8967 147.075 37.3 147.255 37.66C147.435 38.02 147.681 38.3067 147.995 38.52C148.315 38.7267 148.678 38.83 149.085 38.83C149.771 38.83 150.391 38.5067 150.945 37.86V37.36H149.515V36.35H152.085V40H150.945V39.2C150.371 39.7667 149.711 40.05 148.965 40.05ZM159.641 34.76C159.581 34.6933 159.454 34.6067 159.261 34.5C159.067 34.3867 158.834 34.2867 158.561 34.2C158.294 34.1067 158.017 34.06 157.731 34.06C156.977 34.06 156.601 34.3267 156.601 34.86C156.601 35.0533 156.661 35.2067 156.781 35.32C156.901 35.4333 157.081 35.53 157.321 35.61C157.561 35.69 157.861 35.7767 158.221 35.87C158.687 35.99 159.091 36.13 159.431 36.29C159.777 36.45 160.041 36.6633 160.221 36.93C160.407 37.19 160.501 37.5367 160.501 37.97C160.501 38.4767 160.377 38.8867 160.131 39.2C159.891 39.5067 159.571 39.73 159.171 39.87C158.771 40.01 158.337 40.08 157.871 40.08C157.337 40.08 156.807 40 156.281 39.84C155.761 39.6733 155.297 39.4467 154.891 39.16L155.501 37.97C155.561 38.03 155.667 38.11 155.821 38.21C155.974 38.3033 156.161 38.4 156.381 38.5C156.601 38.5933 156.841 38.6733 157.101 38.74C157.361 38.8067 157.624 38.84 157.891 38.84C158.651 38.84 159.031 38.5967 159.031 38.11C159.031 37.9033 158.954 37.7367 158.801 37.61C158.647 37.4833 158.431 37.3767 158.151 37.29C157.877 37.2033 157.557 37.1067 157.191 37C156.737 36.8733 156.361 36.7333 156.061 36.58C155.767 36.42 155.547 36.2233 155.401 35.99C155.254 35.75 155.181 35.4467 155.181 35.08C155.181 34.5933 155.294 34.1867 155.521 33.86C155.754 33.5267 156.067 33.2767 156.461 33.11C156.854 32.9367 157.291 32.85 157.771 32.85C158.264 32.85 158.724 32.93 159.151 33.09C159.577 33.25 159.944 33.4333 160.251 33.64L159.641 34.76Z" fill="#474747"/>
<defs>
<linearGradient id="paint0_linear" x1="11.1231" y1="32.6229" x2="11.1231" y2="45.3382" gradientUnits="userSpaceOnUse">
<stop stop-color="#20CD84"/>
<stop offset="1" stop-color="#2E2F41" stop-opacity="0"/>
</linearGradient>
<linearGradient id="paint1_linear" x1="34.9193" y1="26.0817" x2="31.3752" y2="46.1157" gradientUnits="userSpaceOnUse">
<stop stop-color="#20CD84"/>
<stop offset="1" stop-color="#2E2F41" stop-opacity="0"/>
</linearGradient>
<linearGradient id="paint2_linear" x1="30.0427" y1="9.09015" x2="28.572" y2="19.5211" gradientUnits="userSpaceOnUse">
<stop stop-color="#20CD84"/>
<stop offset="1" stop-color="#2E2F41" stop-opacity="0"/>
</linearGradient>
<linearGradient id="paint3_linear" x1="9.61516" y1="7.12851" x2="4.16477" y2="27.4032" gradientUnits="userSpaceOnUse">
<stop stop-color="#20CD84"/>
<stop offset="1" stop-color="#2E2F41" stop-opacity="0"/>
</linearGradient>
</defs>
</svg>
