<svg width="68" height="27" viewBox="0 0 68 27" fill="none" xmlns="http://www.w3.org/2000/svg"><path d="M.692 10.84c-.074 1.01 1.525 1.004 1.599 0 .195-2.65-.188-5.307-.214-7.96C2.067 1.872.47 1.87.48 2.88c.025 2.66.408 5.31.212 7.96zm4.548.278c.21-1.034.185-2.042.158-3.072.036-.647.071-1.295.104-1.943.802 1.626 1.477 3.318 2.55 4.802.426.587 1.29.48 1.46-.188.685-2.695.398-5.804.358-8.641-.014-1.01-1.69-1.014-1.69 0v.386c0 .034.098.065.1.095.048 1.866.237 3.848.036 5.71-.953-1.977-1.623-4.254-2.824-5.938h.009c-.325-.646-1.521-.533-1.511.346.016 1.302-.17 2.582-.205 3.881-.013.45 0 .899.021 1.348a141.289 141.289 0 00-.142 3.008c-.024.87 1.393 1.089 1.566.209m18.873.399a.835.835 0 00.416-.29.81.81 0 00.168-.472v-.088c.027-.353-.271-.658-.588-.757l-.133-.044a.703.703 0 00-.487-.002.689.689 0 00-.367.314c-.431.143-.87.263-1.313.36-1.404.297-1.253.01-1.406-1.29l-.071-.56c1.047.004 2.09-.113 3.11-.347.997-.247.57-1.763-.427-1.515-.94.213-1.904.312-2.87.293-.032-.353-.06-.7-.064-1.06-.013-.882.158-1.738.268-2.608a15.692 15.692 0 013.09-.11c1.03.049 1.027-1.523 0-1.57-1.348-.08-2.7.01-4.025.264-.36.071-.57.42-.587.757-.125 1.788-.4 3.373-.181 5.187.098.814.214 1.623.27 2.44.025.365-.05.763.142 1.099.897 1.573 3.826.406 5.046 0m7.445-1.333c-1.495-.56-2.393-1.928-3.612-2.898 1.603-.725 3.276-1.828 2.947-3.613-.305-1.666-2.333-2.367-3.868-1.96-.437-.428-1.39-.254-1.381.528.017 1.438.034 2.874.038 4.31-.403.327-.437.943 0 1.247 0 .98-.011 1.96-.034 2.95-.021.863 1.444.888 1.598 0 .017-.708.028-1.416.034-2.123 1.3.966 2.259 2.464 3.855 3.067.961.364 1.377-1.155.427-1.515l-.004.007zm-4.304-6.883c1.245-.62 2.706.58 1.393 1.755a5.116 5.116 0 01-1.37.831c-.005-.86-.013-1.723-.023-2.586zm7.128 7.222c0-1.323.037-2.645.067-3.968.147.34.313.672.498.994.826 1.426 1.414 2.964 2.528 4.209.377.42 1.232.225 1.336-.346.552-3.047-.37-6.439-.671-9.497a.783.783 0 00-.081-.481l-.047-.097c-.342-.683-1.56-.374-1.49.396.108 1.187.164 2.388.305 3.572.134 1.134.39 2.266.5 3.404a20.764 20.764 0 01-.862-2.03c-.63-1.689-1.215-2.713-1.579-4.323a.664.664 0 00-.182-.354.683.683 0 00-.355-.19c-.389-.54-1.468-.395-1.46.439.035 2.757-.095 5.515-.105 8.273 0 1.011 1.594 1.012 1.598 0M45.145 8.82c-.639.506-1.979.42-3.016.42-.024-.756-.04-1.572-.05-2.309h2.457c1.125 0 1.125-1.474 0-1.474h-2.462c0-.92.021-1.74.056-2.607 1.05.024 2.101.092 3.155.082 1.027-.008 1.03-1.581 0-1.571-1.311.01-2.616-.111-3.927-.097a.821.821 0 00-.56.234.794.794 0 00-.24.551c-.142 2.682-.099 5.364 0 8.047.015.39.357.83.8.785 1.576-.162 3.615.083 4.921-.954.802-.636-.336-1.742-1.13-1.112M53.244.73a62.282 62.282 0 00-5.616.42c-1.007.122-1.02 1.694 0 1.571a55.88 55.88 0 011.509-.165c-.21 1.26-.21 2.504-.192 3.799.023 1.641-.188 2.404-.198 4.043 0 1.01 1.592 1.012 1.599 0 .009-1.4.204-1.94.205-3.345 0-1.575-.093-3.09.238-4.633.816-.057 1.635-.1 2.455-.124V2.25l.218.018c.897-.12.675-1.57-.212-1.54M6.026 21.613c.208-.576.156-.998-.054-1.308.026-.248.066-.495.118-.74a.784.784 0 00-.293-.82.818.818 0 00-.881-.068c-.656.323-1.333.603-2.025.84-.812.28-.738 1.56.212 1.54a.594.594 0 00.21-.056v.028c.284-.1.566-.205.845-.314.343.25-.21.944-.632 1.148-1.266.615-1.817-.168-1.824-1.426-.008-1.566.854-3.658 2.318-4.419.91-.473.102-1.83-.806-1.356-2.43 1.266-5.127 7.73-1.303 8.958.748.24 1.727.037 2.555-.412.092.899.212 1.799.27 2.707.064 1.004 1.663 1.01 1.598 0-.087-1.357-.35-2.73-.409-4.095.036-.07.068-.141.096-.214m4.171-6.915a.83.83 0 00-.899-.13c-1.83.81-2.048 4.094-1.864 5.739.228 2.03 1.769 3.712 3.902 2.508 3.079-1.737 1.488-8.043-1.14-8.118v.001zm.097 6.857c-1.618.538-1.65-3.29-.802-4.949a.823.823 0 00.349-.182c.817-.711 1.424 1.326 1.533 1.83.231 1.079.225 2.866-1.08 3.301zm4.382-5.398a.75.75 0 00-.202.643c-.673 1.3-.732 3.045-.427 4.34.427 1.783 2.04 2.659 3.507 1.244 1.373-1.32 1.6-3.749 1.09-5.487-.628-2.139-2.522-2.3-3.966-.735l-.002-.004zm1.742 5.106c-.305.287-.363.42-.58.146-.286-.348-.327-.995-.351-1.417-.063-1.11.11-2.52 1.06-3.253a.857.857 0 00.143-.14.101.101 0 01.036 0c.361.16.455 1.015.495 1.33.136 1.067.036 2.541-.804 3.332m5.005-6.381a.742.742 0 00-.516.183c-.276.098-.495.255-.497.629 0 2.207-.05 4.33.096 6.54-.056 0-.142.092-.2.085-.723-.05-1.02.947-.57 1.41.79.817 2.658.153 3.507-.233 1.267-.577 2.549-1.587 2.94-2.962.711-2.53-2.25-5.634-4.759-5.652h-.001zm3.217 5.243c-.198.84-1.122 1.492-1.851 1.863a5.48 5.48 0 01-.692.287c-.12-1.908-.103-3.815-.093-5.724 1.405.433 2.95 2.239 2.633 3.574m9.592-4.062c.712-.156 1.487-.32 2.517-.58.996-.252.57-1.768-.428-1.515-2.623.662-3.578.7-6.137 1.598-.963.34-.548 1.858.427 1.515.79-.28 1.424-.473 2.01-.63a24.977 24.977 0 00-.173 3.107c.023 1.285 0 2.574.007 3.86 0 1.01 1.6 1.013 1.598 0v-3.514c-.01-1.232.134-2.462.188-3.713a1.23 1.23 0 000-.128m6.658-.291a22.852 22.852 0 00-.269 3.838c-.77.101-1.54.205-2.314.294-.068-1.01-.054-2.014.285-2.98.34-.965-1.202-1.367-1.54-.42-.442 1.233-.402 2.5-.3 3.78-.33.363-.299.993.103 1.222.037.464.064.929.061 1.392 0 1.01 1.592 1.012 1.598 0 0-.474-.032-.953-.074-1.434.726-.087 1.45-.184 2.173-.28 0 .814-.013 1.63-.074 2.446-.076 1.008 1.523 1.004 1.598 0 .074-1.003.065-1.999.058-2.998a.879.879 0 000-.876 20.296 20.296 0 01.24-3.562c.173-.99-1.368-1.414-1.543-.42m3.06-.108c-.017 2.47-.206 4.934-.314 7.401a.7.7 0 00-.111.454 1.035 1.035 0 00.316.758c.5.499 1.34.113 1.364-.56.1-2.687.325-5.367.344-8.057 0-1.01-1.592-1.012-1.599 0m7.729-1.499l-.068-.011c-.443-.07-.837.107-.982.548-.016.044-.03.087-.044.13a.718.718 0 00.09.686c.026 1.526.163 3.046.218 4.569-.712-1.102-1.253-2.317-1.77-3.515.017-.196.079-.392.093-.588.073-1.009-1.683-1.019-1.683-.014 0 .048-.09.096-.103.149-.494 2.201-.381 4.43-.367 6.668 0 1.01 1.586 1.013 1.586 0 0-1.051.076-2.1.175-3.14.62 1.183 1.343 2.303 2.302 3.26.507.507 1.327.107 1.362-.56.134-2.481-.235-4.95-.22-7.432 0-.312-.248-.7-.589-.757m8.498 10.259c-.07-.047.042-2.163.06-2.588.032-.83.115-1.66.106-2.491-.008-.65-.66-.903-1.203-.678a6.418 6.418 0 01-2.09.525c-.997.117-1.054 1.607 0 1.57.595-.019 1.975-.55 1.38.792-.226.508-1.457.77-1.915.722-.996-.11-1.177-1.051-1.221-1.898-.054-1.075.427-4.364 1.922-4.545 1.008-.12 1.02-1.694 0-1.57-3.284.394-4.686 6.545-2.636 8.755.997 1.07 2.645 1.056 3.877.42.032 1.002.252 1.89.912 2.34.855.575 1.65-.785.808-1.356m3.28-6.149c-1.502-.569 1.322-3.09 2.497-2.676.97.34 1.387-1.178.427-1.516-2.126-.748-5.764 2.162-4.924 4.431.55 1.48 2.344 1.36 3.638 1.438.787.047 1.493.331.805 1.09-.275.3-.652.42-1.024.54a7.734 7.734 0 01-1.122.28s-.366.05-.666.069c-.257-.636-1.466-.515-1.554.348-.246 2.437 6.59.825 6.462-1.994-.11-2.448-3.097-1.463-4.537-2.008m-48.945-7.103c.222-1.493.25-2.987.234-4.494-.009-.85-.274-2.453.192-3.266a13.382 13.382 0 012.106-.14c1.03.021 1.03-1.55 0-1.57-1.803-.037-3.56.39-5.327.656-1.013.153-.583 1.666.427 1.515a42.24 42.24 0 001.105-.182 9.596 9.596 0 00-.107 1.523c-.048 1.854.104 3.702-.17 5.548-.143.988 1.392 1.416 1.542.42m45.47-6.424a.642.642 0 01-.328.08c-.47 0-.712 1.488-.739 1.798-.028.373-.045 1.292.519.968.593-.327 1.31-2.456.548-2.847z" fill="#0070E2"/><path d="M64.688.431a5.765 5.765 0 00-3.028-.37 5.722 5.722 0 00-2.785 1.225 4.676 4.676 0 00-1.655.748c-2.106 1.492-2.26 4.619-1.075 6.718 1.75 3.095 5.709 3.938 8.648 1.939 1.89-1.285 2.563-3.036 2.392-4.702.855-2.1.406-4.354-2.498-5.552V.43zm-4.966 8.475c-1.528.524-2.187-1.171-2.095-2.36.073-.957.513-2.589 1.592-2.939a.64.64 0 01.45-.211c2.99-.202 2.136 4.794.053 5.506v.004zm4.984-4.269c-.41.028-.825.027-1.232.076 0 .192 0 .382-.008.574h.007c.124 0 .246.008.37.01h.202c.009 0 .117-.013.057 0a.681.681 0 01.495.067.66.66 0 01.311.385c.087.313-.11.727-.458.79a3.278 3.278 0 01-.73.045c-.096 0-.192-.01-.286-.007a58.36 58.36 0 01-.065 1.495c-.048.824-1.359.827-1.309 0 .078-1.318.114-2.638.117-3.96 0-.467.417-.67.779-.611.581-.08 1.166-.128 1.753-.147.355-.025.655.313.655.642a.653.653 0 01-.196.451.676.676 0 01-.46.193" fill="#0070E2"/></svg>