<svg width="20" height="20" viewBox="0 0 40 39" fill="none" xmlns="http://www.w3.org/2000/svg"  >
<path style="fill:white;"  fill-rule="evenodd" clip-rule="evenodd" d="M20.9585 19.186C21.0318 18.9915 21.0448 18.9058 21.0888 18.8431C22.2631 17.217 23.4391 15.5924 24.6167 13.9694C24.8561 13.6403 25.1346 13.3364 25.3431 12.99C25.7291 12.3471 25.5044 11.6803 24.83 11.3682C23.9847 10.9772 23.3202 11.1319 22.6898 11.9401C21.5872 13.3499 20.5154 14.7821 19.4274 16.2029C19.302 16.3671 19.1587 16.5184 18.9828 16.7234C18.745 16.4987 18.5495 16.319 18.3606 16.134C17.1569 14.959 15.9223 13.8137 14.7643 12.596C14.015 11.8078 12.7837 11.9837 12.124 12.5878C11.4188 13.234 11.3797 13.9402 12.0279 14.6455C12.2853 14.9246 12.5736 15.1755 12.8374 15.4478C14.046 16.6927 15.2627 17.9308 16.4549 19.192C16.9354 19.7003 16.9142 19.7601 16.4663 20.2712C15.6438 21.2092 14.8115 22.1383 13.9906 23.0784C13.3309 23.834 12.6811 24.5982 12.0312 25.3629C11.6631 25.7976 11.5963 26.3004 11.826 26.806C12.0442 27.2915 12.5117 27.3756 12.9922 27.3878C13.5427 27.402 13.9906 27.2049 14.3489 26.7777C14.9923 26.0081 15.6454 25.2456 16.3002 24.4865C17.0543 23.6138 17.8166 22.7479 18.6277 21.8174C18.903 22.1287 19.0952 22.3494 19.2906 22.5678C20.4666 23.8811 21.6083 25.2256 22.8332 26.4905C23.3104 26.9837 23.944 27.3528 24.5597 27.6775C25.177 28.0028 26.1135 27.7122 26.5435 27.1762C26.9409 26.6812 26.8855 26.105 26.3301 25.4106C25.7552 24.6907 25.1672 23.9804 24.5629 23.2848C23.3723 21.915 22.167 20.5582 20.9585 19.186ZM39.1909 18.6371C38.6355 26.9493 35.0115 33.2939 27.4296 37.0741C24.488 38.5406 21.3168 39.0687 18.0202 38.6875C10.5262 37.8213 5.32555 33.7755 2.05499 27.1132C0.554894 24.0571 -0.020058 20.7893 0.245431 17.3937C0.367588 15.8423 0.791077 14.3474 1.45561 12.9428C3.54369 8.53172 6.60739 4.99404 10.9122 2.61653C13.313 1.29039 15.8979 0.539692 18.6342 0.270457C22.8771 -0.14667 26.8448 0.678462 30.4916 2.87567C35.0278 5.6102 37.668 9.70102 38.7283 14.8355C38.9856 16.0752 39.041 17.3561 39.1909 18.6371Z" fill="#1A1919"/>
</svg>
