<svg width="20" height="18" viewBox="0 0 20 18" fill="none" xmlns="http://www.w3.org/2000/svg">
<path fill-rule="evenodd" clip-rule="evenodd" d="M11.8633 4.90329C11.8591 4.97328 11.8941 5.07212 11.9291 4.96919C11.9312 4.8992 11.8983 4.80036 11.8633 4.90329ZM17.7157 9.36005C17.5181 9.43004 17.5201 9.6956 17.1846 9.62561C16.8676 9.93233 16.3941 10.0785 16.1204 10.4243C15.9845 10.5581 15.9886 10.3955 15.8527 10.3584C15.6407 10.4758 15.5151 10.6858 15.4533 10.9575C14.9943 11.3157 14.6505 11.7933 14.1894 12.1535C14.1668 12.3079 14.1215 12.4417 13.9918 12.487C13.8765 12.6558 14.0926 12.7443 13.858 12.7526C13.5842 12.7814 13.7962 12.4046 13.858 12.3532C13.9156 12.1679 13.9404 11.9497 14.0577 11.8221C14.0762 11.4207 14.3809 11.0954 14.2574 10.7578C13.8086 10.7084 13.858 11.1572 13.6583 11.3548C13.5327 11.6512 13.3475 11.8859 13.259 12.2194C12.9296 12.7114 12.734 13.3351 12.4602 13.8827C12.2523 13.9836 12.0609 14.105 11.7953 14.1483C11.9723 13.3948 12.2256 12.7175 12.3944 11.9538C12.5447 11.6389 12.5343 11.1613 12.7258 10.8896C12.7278 10.6405 12.8143 10.3358 12.8596 10.2905C12.9028 10.2494 12.8019 10.1073 12.7937 10.0908C12.7505 10.0085 12.7237 9.99821 12.594 9.89322C12.2811 10.0003 12.1432 10.2844 11.995 10.5561C11.8632 10.869 11.6204 11.0687 11.5298 11.4227C11.1778 11.9353 10.8896 12.5117 10.5993 13.084C10.3811 12.9481 10.2061 12.7669 9.80061 12.8184C9.93441 12.2873 10.3626 11.645 10.0661 11.0892C9.9879 11.0789 9.87676 11.1016 9.86647 11.0234C9.358 11.1366 9.12952 11.5277 8.93602 11.9538C8.77751 11.7294 9.27156 10.9719 8.80221 10.8237C8.46461 10.7743 8.39047 10.9884 8.20314 11.0892C8.16609 11.186 8.10022 11.2519 8.00553 11.2889C7.98494 11.3486 7.82439 11.5792 7.80587 11.4227C7.85939 11.151 8.06113 10.7517 7.80587 10.5561C7.32005 10.6034 7.12447 10.941 6.87333 11.223C6.72511 11.0254 7.07095 10.7578 7.00713 10.4243C6.98655 10.2679 6.80127 10.2761 6.74157 10.1588C6.19812 10.3255 5.89551 10.7331 5.60937 11.1551C5.46527 11.1675 5.57851 10.9205 5.54351 10.8237C5.59086 10.6405 5.41177 10.6899 5.40971 10.5561C4.96506 10.4676 4.86215 10.7187 4.61307 10.8237C4.60895 10.8628 4.60276 10.9019 4.54512 10.8896C4.55129 10.9698 4.44837 10.9307 4.54512 10.8896C4.54924 10.8484 4.55543 10.8114 4.61307 10.8237C4.67071 10.5787 4.91567 10.447 4.74687 10.1588C4.06138 10.1176 4.05313 10.7516 3.68053 11.0234C3.54055 11.5257 3.14735 11.7768 3.0156 12.2873C3.0403 12.5282 3.17412 12.662 3.41497 12.6867C3.72169 12.7052 3.77315 12.4685 3.88019 12.2873C4.06134 12.3717 4.11693 12.5817 4.41336 12.5529C4.57805 12.5632 4.68717 12.5179 4.74687 12.4191C4.86215 12.4397 4.95064 12.1062 5.01034 12.2873C4.98358 12.4479 5.13181 12.4314 5.07829 12.6187C5.15857 12.6126 5.11946 12.7155 5.07829 12.6187C4.15194 12.5982 3.24411 13.0161 2.41657 12.6867C2.64713 12.3182 2.91679 11.9888 3.0156 11.4886C3.24204 11.116 3.44587 10.7208 3.48087 10.1588C3.27295 9.98175 3.01975 10.1897 2.88389 10.2905C2.89006 10.3708 2.78508 10.3317 2.88389 10.2905C2.94153 9.79648 3.05885 9.35802 3.08355 8.82692C3.06914 8.64165 2.96623 8.54489 2.75008 8.56135C2.88183 8.30198 2.78094 7.98289 2.55038 7.89643C2.34041 7.88614 2.14897 7.89437 2.08515 8.03023C1.94517 8.03023 1.83609 8.39256 1.75169 8.22994C1.79697 7.69883 1.69402 7.31182 1.68579 6.83218C1.83606 6.80541 1.6508 6.4431 1.95135 6.56661C1.904 6.09727 1.98429 5.75555 2.21691 5.56822C2.29513 5.55793 2.40628 5.58059 2.41657 5.50236C2.62243 5.49619 2.73567 5.58264 2.88389 5.63617H7.87172C8.10846 5.51883 8.59224 5.64646 8.80221 5.50236C8.72193 5.50854 8.76104 5.40561 8.80221 5.50236C9.38684 5.67734 10.0765 5.40973 10.799 5.50236C11.3116 4.75099 10.7928 3.24616 11.0645 2.17572C11.2107 2.10161 11.3363 2.00489 11.5956 2.044C12.172 2.24368 12.4108 2.78299 12.7937 3.17411C12.979 3.3882 13.1087 3.65789 13.3248 3.83904C13.401 4.16429 13.7427 4.21986 13.7901 4.57187C14.1195 4.88683 14.4921 5.15652 14.7885 5.50236C14.9985 5.57853 14.9655 5.48382 15.122 5.56822C15.4225 6.06639 15.865 6.4225 16.3179 6.76628C16.427 6.92479 16.5588 7.05862 16.6515 7.23154C16.8861 7.28506 16.8388 7.6206 17.0508 7.69676C17.1043 7.92732 16.9252 7.97879 17.0508 8.09613C17.1846 8.29375 17.3843 8.42753 17.6478 8.49546C17.4296 8.6272 17.6354 8.60048 17.6478 8.82692C17.8001 8.87838 17.6746 9.20154 17.7157 9.36005ZM11.995 14.6814H11.8633V14.5476H11.995V14.6814ZM10.7311 15.9454C10.5849 15.9371 10.7023 15.6633 10.6652 15.546C10.8031 15.5172 10.8401 15.5913 10.9307 15.6119C10.9637 15.8219 10.7516 15.7889 10.7311 15.9454ZM8.60251 12.7526C8.56957 12.7176 8.65193 12.6682 8.67046 12.6867C8.70339 12.7196 8.62104 12.7711 8.60251 12.7526ZM7.4065 12.6187H7.2727V12.487H7.4065V12.6187ZM1.81959 9.95912C1.81136 9.87883 1.91635 9.91795 1.81959 9.95912C1.82577 10.0394 1.72078 10.0003 1.81959 9.95912ZM1.95135 12.6867C1.60757 12.7917 1.75784 12.1823 1.81959 12.0876C1.96163 12.0753 1.84844 12.3223 1.88549 12.4191C1.79697 12.5858 2.14691 12.627 1.95135 12.6867ZM17.5161 7.89643C17.5511 7.93142 17.4687 7.98084 17.4501 7.96438C17.4151 7.92938 17.4975 7.8779 17.5161 7.89643ZM18.1809 7.09774C17.1558 5.73086 15.8363 4.65421 14.6547 3.43967C14.033 2.86534 13.3475 2.35482 12.7937 1.71049C12.3614 1.54375 12.1967 1.1094 11.8633 0.845901C11.4845 0.625637 11.3466 0.164547 10.8649 0.0472088H10.3317C10.2535 0.0801449 10.1814 0.119259 10.1341 0.181015C9.91175 0.314819 9.96529 0.710045 9.93441 1.11146C9.85825 2.06251 9.90971 3.30382 9.80061 4.1046C8.21347 3.89669 6.31959 3.99549 4.54512 3.97284C4.23428 4.01607 3.93992 4.07784 3.61467 4.1046C2.63069 4.07372 1.72078 4.11899 0.955003 4.30426C0.668865 4.52864 0.413613 4.78598 0.222168 5.10299C0.364208 7.13478 0.255089 9.41566 0.288025 11.5545C0.438299 12.1371 0.228352 13.0799 0.487729 13.5513C0.605066 13.611 0.693584 13.6995 0.75534 13.8168C2.26014 14.0227 4.06752 13.6419 5.60937 13.8827C5.89963 13.8848 5.97994 13.6768 6.34225 13.7509C6.9454 13.8127 7.54237 13.8436 8.13729 13.7509C8.45224 13.7901 8.62106 13.9753 8.80221 14.1483H9.20154C9.24271 14.1297 9.45887 13.9836 9.4671 14.1483C9.43622 14.9573 9.5021 15.6654 9.60091 16.3447C9.61943 16.9787 9.43213 17.4728 9.80061 17.8083C9.92412 17.8166 10.0229 17.8516 10.0661 17.9401C10.8566 18.043 10.9904 17.4913 11.4639 17.2752C13.8189 14.8193 16.2788 12.4685 18.712 10.0908C18.9055 9.92821 19.0929 9.76149 19.379 9.69356C19.3873 9.52476 19.4758 9.43418 19.6446 9.42595C19.6281 9.23244 19.7948 9.22214 19.7763 9.02658C19.5848 8.04671 18.8479 7.60826 18.1809 7.09774Z" fill="#303030"/>
</svg>
