<svg width="18" height="16" viewBox="0 0 18 16" fill="none" xmlns="http://www.w3.org/2000/svg">
<path fill-rule="evenodd" clip-rule="evenodd" d="M16.8457 3.51382C16.8324 3.65445 16.8046 3.79331 16.7788 3.93042C16.62 4.77946 16.4574 5.62851 16.3013 6.47756C16.1772 7.15433 16.0489 7.8311 15.9436 8.50963C15.8357 9.2075 15.7539 9.90713 15.6599 10.6068C15.5493 11.4277 15.5252 12.2591 15.3626 13.0748C15.2904 13.4387 15.2169 13.8008 15.2122 14.1752C15.2108 14.2983 15.1362 14.3633 15.0061 14.3633C14.5113 14.365 14.0165 14.365 13.5216 14.365V14.3404C13.0445 14.3404 12.5675 14.3404 12.0902 14.3387C12.0072 14.3387 11.9536 14.2701 11.9798 14.2033C12.3099 13.3648 12.6392 12.5281 12.9719 11.6913C13.3632 10.7087 13.7589 9.72608 14.1506 8.74344C14.3005 8.3655 14.431 7.98053 14.5941 7.60962C14.9221 6.86429 15.187 6.09785 15.4495 5.32966C15.5236 5.11345 15.6045 4.89902 15.6773 4.68104C15.7107 4.58085 15.7474 4.47888 15.7536 4.37517C15.7659 4.16774 15.701 3.98669 15.4929 3.8988C15.104 3.7318 14.7187 3.55426 14.32 3.41539C13.8351 3.24664 13.3838 3.0058 12.9204 2.7931C12.8941 2.7808 12.8779 2.74564 12.8573 2.72279C12.8902 2.71576 12.9248 2.69994 12.9558 2.70521C13.8414 2.8599 14.7259 3.01809 15.6231 3.09719C15.9566 3.12532 16.2881 3.17807 16.6202 3.22378C16.7965 3.25014 16.8631 3.33276 16.8457 3.51382ZM11.4096 13.1064C11.3053 13.3103 11.2278 13.5283 11.1309 13.7357C11.042 13.9273 10.9522 14.1189 10.8467 14.3035C10.7505 14.4687 10.6641 14.4916 10.4967 14.4002C9.67175 13.9537 8.79687 13.6179 7.94449 13.2312C7.6235 13.0853 7.2874 12.9728 6.95569 12.8533C5.9604 12.4912 4.98092 12.0886 3.97227 11.7634C3.20039 11.5138 2.44469 11.2132 1.68214 10.9355C1.58598 10.9003 1.57983 10.8651 1.65295 10.7878C1.72098 10.7157 1.84087 10.6788 1.8247 10.5487C1.81433 10.4661 1.6737 10.4345 1.49949 10.4767C1.44869 10.489 1.39649 10.4978 1.34428 10.5065C1.2984 10.5118 1.24443 10.4468 1.26025 10.4029C1.29681 10.3044 1.33637 10.206 1.37293 10.1075C1.42531 9.96514 1.51496 9.87374 1.6686 9.83155C1.78532 9.79991 1.89853 9.74188 2.00294 9.68035C2.13777 9.59773 2.1281 9.429 1.98712 9.34111C1.91435 9.29716 1.77565 9.27078 1.80308 9.18465C1.87005 8.97371 1.90872 8.73113 2.19156 8.66433C2.36172 8.62566 2.52362 8.54831 2.68569 8.47976C2.74933 8.45163 2.80523 8.40416 2.85937 8.35846C2.97486 8.26354 2.94322 8.05258 2.80242 8.01039C2.7024 7.98226 2.59305 7.98755 2.4911 7.96294C2.4468 7.95239 2.3909 7.91723 2.41481 7.85043C2.44979 7.75023 2.49286 7.65355 2.52678 7.55335C2.57635 7.40745 2.67708 7.31782 2.82245 7.27563C2.92406 7.24574 3.02742 7.22289 3.12797 7.18949C3.22887 7.15785 3.33048 7.12622 3.42628 7.08051C3.57658 7.01196 3.67853 6.84494 3.63405 6.75177C3.57358 6.62521 3.46055 6.58127 3.33012 6.57424C3.24223 6.57072 3.15293 6.5795 3.06574 6.56895C3.01195 6.56368 2.9833 6.52852 3.00721 6.46348C3.04605 6.35801 3.10846 6.27893 3.21481 6.23674C3.3463 6.18577 3.47708 6.13301 3.60962 6.08379C3.76291 6.0293 3.89053 5.93964 3.99336 5.81307C4.08336 5.70057 4.03608 5.567 3.88596 5.54239C3.78242 5.52481 3.67625 5.52129 3.57148 5.50899C3.55548 5.50723 3.52718 5.48789 3.52823 5.48262C3.53438 5.44922 3.5386 5.40527 3.56128 5.38769C3.64355 5.3244 3.7274 5.25935 3.82074 5.2154C3.99688 5.13454 4.17917 5.06601 4.3611 4.99746C4.49787 4.94648 4.60808 4.86562 4.68877 4.74257C4.76945 4.61776 4.71373 4.43492 4.56712 4.398C4.44917 4.36988 4.32419 4.36988 4.20219 4.35406C4.13012 4.34702 4.09303 4.26617 4.12081 4.20289C4.17302 4.08511 4.26741 4.0113 4.36725 3.93571C4.70406 3.6773 5.03682 3.41537 5.36642 3.14818C5.46187 3.07083 5.54748 2.97941 5.62851 2.88625C5.69092 2.81593 5.70938 2.71752 5.65313 2.64193C5.61674 2.59447 5.53816 2.56456 5.47365 2.55226C5.40685 2.54171 5.33407 2.56105 5.26446 2.56983C5.17042 2.58038 5.09237 2.71048 4.9825 2.60853C5.05475 2.53294 5.11979 2.44855 5.19995 2.38351C5.44605 2.18311 5.70287 1.99504 5.94598 1.79113C6.06411 1.69093 6.02333 1.50988 5.88165 1.43781C5.85053 1.42198 5.81608 1.41143 5.78233 1.4044C5.74805 1.39561 5.70252 1.40262 5.67985 1.38328C5.64662 1.3534 5.61059 1.30595 5.60988 1.26552C5.60883 1.2163 5.64223 1.16707 5.6628 1.11961C5.85387 0.669596 5.84333 0.759254 6.18945 0.898124C6.40215 0.984259 6.61344 1.0792 6.8337 1.13897C7.49957 1.32003 8.14084 1.56787 8.77789 1.82979C9.46345 2.1128 10.1501 2.39055 10.8362 2.6718C10.9339 2.71223 11.0344 2.74916 11.1264 2.80189C11.1881 2.83705 11.2292 2.90032 11.2058 2.97943C11.186 3.04799 11.1591 3.11303 11.1359 3.17983C10.9947 3.57886 10.8529 3.97614 10.7614 4.39275C10.6748 4.78827 10.5106 5.16445 10.3208 5.52481C10.1392 5.86935 9.64046 6.09257 9.29047 5.99765C8.91517 5.89569 8.74484 5.63377 8.81691 5.24177C8.8874 4.86032 8.97248 4.48065 9.05106 4.10095C9.06512 4.0324 9.09272 3.96207 9.09096 3.89351C9.0834 3.5894 9.24952 3.4013 9.49087 3.2554C9.58017 3.2009 9.69865 3.22024 9.77265 3.30813C9.90695 3.46634 9.96444 3.64917 9.9066 3.84957C9.85316 4.0359 9.77512 4.21519 9.70955 4.398C9.65611 4.54742 9.58826 4.69511 9.55978 4.84804C9.54624 4.92187 9.59933 5.01503 9.64169 5.0871C9.68863 5.16796 9.80395 5.17674 9.87233 5.12401C9.89992 5.10116 9.93684 5.08711 9.95512 5.05898C10.2409 4.62831 10.4983 4.18533 10.4763 3.64391C10.4707 3.5068 10.4315 3.36792 10.396 3.23257C10.3093 2.90209 10.033 2.76673 9.75156 2.66302C9.58368 2.59973 9.40913 2.64544 9.24442 2.74037C8.86947 2.95483 8.62952 3.29231 8.50331 3.67728C8.33877 4.17651 8.25457 4.70388 8.1382 5.22069C8.12677 5.27167 8.1317 5.32615 8.1259 5.43514C8.13785 5.51951 8.14805 5.66192 8.17828 5.79903C8.2899 6.30529 8.62443 6.5795 9.1168 6.69025C9.92735 6.87131 10.7425 6.39317 11.0311 5.85527C11.2493 5.44745 11.417 5.0238 11.5467 4.58083C11.6506 4.2275 11.7815 3.87946 11.904 3.5314C11.9287 3.46109 12.0153 3.42945 12.0714 3.46988C12.3788 3.68433 12.7215 3.82145 13.0757 3.93571C13.1927 3.97262 13.3056 4.02712 13.4149 4.08512C13.8533 4.31365 14.2893 4.54569 14.7259 4.77773C14.7977 4.81464 14.8216 4.87438 14.7968 4.95173C14.7263 5.1697 14.6584 5.3877 14.5828 5.60392C14.344 6.28772 14.0655 6.9557 13.7756 7.61841C13.6979 7.79595 13.6311 7.98053 13.5696 8.16334C13.2173 9.21981 12.7897 10.2464 12.3579 11.2712C12.2966 11.4171 12.2224 11.5595 12.1486 11.7001C11.903 12.1695 11.6504 12.6353 11.4096 13.1064ZM5.88463 13.9045C5.74418 13.908 5.60373 13.9062 5.46328 13.9062C5.46275 13.9133 5.46257 13.9185 5.46222 13.9238C4.88529 13.8728 4.30854 13.8219 3.73162 13.7709C3.41696 13.7445 3.10213 13.7182 2.78765 13.6918C2.65458 13.6795 2.60132 13.6127 2.62294 13.4808C2.6486 13.3244 2.69694 13.1715 2.70626 13.015C2.73368 12.565 2.84882 12.5773 3.18774 12.7162C3.67484 12.9148 4.17671 13.0765 4.66539 13.2717C5.08833 13.4422 5.50177 13.6355 5.91891 13.8201C5.93333 13.8254 5.94159 13.8447 5.95249 13.8588C5.92981 13.8746 5.90766 13.9045 5.88463 13.9045ZM17.6533 2.56633C17.4678 2.51184 17.278 2.4714 17.0878 2.438C16.4455 2.32549 15.8023 2.21652 15.1589 2.10929C14.9508 2.07413 14.7411 2.04424 14.531 2.0249C14.0207 1.97568 13.5098 1.93528 12.9997 1.88606C12.8067 1.86848 12.6144 1.84208 12.4226 1.81396C12.3917 1.80868 12.3412 1.78232 12.3391 1.76122C12.3189 1.56962 12.3193 1.37452 12.2917 1.18467C12.2041 0.581724 11.687 0.0754623 11.0939 0.0244846C10.5683 -0.0229778 10.078 0.115879 9.61673 0.361979C9.47487 0.437566 9.35903 0.544795 9.28837 0.695971C9.22104 0.841872 9.24759 1.01767 9.36765 1.13193C9.49474 1.25147 9.66613 1.28134 9.80166 1.18642C9.93034 1.09501 10.0502 0.987781 10.1638 0.878794C10.2591 0.785627 10.3659 0.736402 10.4955 0.739917C10.6368 0.743432 10.7804 0.73991 10.9177 0.768036C11.0174 0.787372 11.1202 0.834841 11.2006 0.898124C11.3755 1.03524 11.4658 1.21455 11.4607 1.44835C11.453 1.80167 11.3936 1.86672 11.0627 1.80695C10.924 1.78234 10.7846 1.72257 10.6484 1.7296C10.4243 1.74191 10.2325 1.65575 10.034 1.58544C9.83418 1.51688 9.63484 1.44306 9.44218 1.35517C8.52194 0.938554 7.55688 0.655547 6.58742 0.386595C6.26451 0.296945 5.94124 0.191466 5.61111 0.151036C5.30015 0.114121 4.96053 0.0192108 4.66978 0.156323C4.40611 0.279373 4.34476 0.604555 4.22452 0.855928C3.78857 1.76298 3.3702 2.67882 2.94041 3.58939C2.29914 4.94821 1.6904 6.31936 1.20013 7.74146C0.895496 8.62566 0.553593 9.49756 0.23296 10.3765C0.154384 10.5927 0.10288 10.8177 0.0207886 11.0321C-0.0337049 11.1745 0.0276442 11.273 0.104287 11.3697C0.19464 11.4839 0.324721 11.5366 0.459548 11.5876C0.821314 11.7282 1.17834 11.8829 1.53553 12.0359C1.62589 12.0728 1.67704 12.1607 1.64715 12.2504C1.52692 12.6125 1.54573 12.9834 1.551 13.3543C1.551 13.567 1.54362 13.7797 1.55329 13.9906C1.56313 14.2086 1.67335 14.3369 1.87796 14.3317C2.30424 14.3229 2.72191 14.3914 3.14309 14.4353C3.61718 14.4828 4.0976 14.4916 4.56624 14.5707C5.21718 14.6815 5.86987 14.6516 6.52238 14.6604C6.82227 14.6656 7.12111 14.634 7.41379 14.7395C7.50994 14.7729 7.62491 14.7694 7.72968 14.7623C8.02078 14.7395 8.28885 14.8186 8.55094 14.9311C9.10186 15.1684 9.65154 15.411 10.2047 15.643C10.4811 15.759 10.765 15.8557 11.0434 15.9665C11.1612 16.0122 11.2473 15.9664 11.3308 15.8926C11.4713 15.7678 11.5224 15.6043 11.5539 15.425C11.5715 15.3248 11.6511 15.2809 11.7492 15.2914C11.9768 15.316 12.2041 15.367 12.4318 15.367C13.3174 15.3652 14.1952 15.4391 15.0691 15.5832C15.2245 15.6078 15.3865 15.6114 15.5446 15.6026C15.7393 15.5903 15.8821 15.4584 15.8858 15.2633C15.8896 15.0471 15.9304 14.8397 16.0106 14.6445C16.1874 14.2139 16.2264 13.7551 16.305 13.3033C16.4019 12.7478 16.4808 12.1888 16.5887 11.6369C16.6902 11.1165 16.8289 10.605 16.9343 10.0864C17.0748 9.39561 17.2008 8.70124 17.3298 8.00689C17.4172 7.5393 17.509 7.07171 17.5816 6.60061C17.6779 5.97305 17.7672 5.34373 17.8414 4.71266C17.9073 4.15191 17.9551 3.58939 17.9978 3.02688C18.0172 2.77726 17.908 2.64016 17.6533 2.56633Z" fill="#303030"/>
</svg>
