<svg width="27" height="24" viewBox="0 0 27 24" fill="none" xmlns="http://www.w3.org/2000/svg">
<path d="M13.245 0.405518C7.3146 0.405518 2.42104 5.00012 1.8593 10.8525C0.836892 11.5642 0.240172 12.7545 0.401027 13.9524C0.555164 15.1001 1.44227 15.9725 2.57908 16.1697C4.24397 20.4802 8.40168 23.5388 13.245 23.5388C18.8348 23.5388 23.4931 19.465 24.4812 14.0957C25.5615 13.5665 26.24 12.4436 26.1358 11.2717C26.0338 10.1262 25.283 9.20105 24.2288 8.78956C22.8573 3.95502 18.4589 0.405518 13.245 0.405518ZM13.245 2.35811C17.7525 2.35811 21.5087 5.5203 22.4901 9.77136C22.0419 9.6722 21.6853 9.49121 21.3683 9.24186C20.8612 8.84288 20.4264 8.22102 20.0222 7.26719C19.8624 6.88605 19.493 6.64284 19.1342 6.68251C18.9307 6.7088 18.7358 6.81952 18.592 6.99141C16.6534 9.27919 14.7127 10.2958 12.2168 10.8083C9.94638 11.2745 7.17561 11.2752 3.76626 11.2717C4.12078 6.28254 8.22046 2.35811 13.245 2.35811ZM19.022 9.3301C19.4055 9.98306 19.826 10.5693 20.3681 10.9959C21.0828 11.5445 22.0423 11.8593 22.7331 11.9777C22.7331 17.2967 18.5034 21.5862 13.245 21.5862C8.46413 21.5862 4.51756 18.0318 3.84105 13.3897C7.21491 13.3974 10.0274 13.4153 12.5159 12.9044C14.9278 12.4091 17.0616 11.3095 19.022 9.3301ZM16.5168 12.0219C16.0381 12.1733 15.7942 12.9013 15.9653 13.6546C16.1363 14.4079 16.6644 14.8981 17.1431 14.7467C17.6218 14.5953 17.8657 13.8673 17.6946 13.114C17.451 12.2809 17.0735 11.9164 16.5168 12.0219ZM9.04782 13.3897C8.5522 13.3897 8.15043 14.0219 8.15043 14.8018C8.15043 15.5816 8.5522 16.2139 9.04782 16.2139C9.54344 16.2139 9.94522 15.5816 9.94522 14.8018C9.94522 14.0219 9.54344 13.3897 9.04782 13.3897ZM15.5913 16.5448C15.2718 16.5679 14.9703 16.8096 14.8342 17.1515C14.6287 17.6365 14.3877 17.8587 13.9929 18.0451C13.598 18.2315 13.0263 18.3319 12.3383 18.3319C11.8642 18.3242 11.4281 18.8314 11.4281 19.3909C11.4281 19.9505 11.8642 20.4579 12.3383 20.45C13.1459 20.45 13.9297 20.3629 14.6566 20.0198C15.3834 19.6766 16.0399 19.0273 16.4327 18.1003C16.5814 17.7707 16.5673 17.3472 16.397 17.0325C16.2268 16.7178 15.9072 16.5243 15.5913 16.5448Z" fill="#20CD84"/>
</svg>
