<svg width="14" height="15" viewBox="0 0 14 15" fill="none" xmlns="http://www.w3.org/2000/svg">
<path d="M0.270478 10.0541C0.0119639 10.2021 -0.0767314 10.5296 0.072356 10.7861L0.613181 11.7141C0.761908 11.9689 1.09235 12.0584 1.35213 11.9104C1.61064 11.7623 1.69934 11.4348 1.55025 11.1784L2.5167 10.6255C2.85021 11.0832 3.25421 11.4855 3.71391 11.8191L3.20806 12.5559C3.03986 12.8007 3.10404 13.1338 3.35084 13.3C3.59745 13.4661 3.93367 13.4038 4.10204 13.1586L4.64737 12.3643C5.17828 12.6066 5.75282 12.7702 6.35909 12.8302V13.9286C6.06037 13.9286 5.81826 14.1684 5.81826 14.4643C5.81826 14.7602 6.06037 15 6.35909 15H7.44074C7.73945 15 7.98156 14.7602 7.98156 14.4643C7.98156 14.1684 7.73945 13.9286 7.44074 13.9286V12.83C8.047 12.7702 8.62154 12.6064 9.15245 12.3641L9.69778 13.1584C9.86633 13.4037 10.2024 13.4661 10.449 13.2998C10.696 13.1334 10.7601 12.8005 10.5918 12.5557L10.0859 11.8189C10.5454 11.4854 10.9496 11.083 11.2831 10.6254L12.2496 11.1782C12.1003 11.4346 12.1892 11.7621 12.4477 11.9102C12.7073 12.0582 13.0377 11.9688 13.1866 11.7139L13.7275 10.7859C13.8767 10.5295 13.7879 10.202 13.5293 10.0539C13.2692 9.90554 12.9398 9.99375 12.7906 10.25L11.8263 9.69839C12.0623 9.18161 12.2214 8.62339 12.2808 8.03554H12.8492C13.1479 8.03554 13.39 7.79571 13.39 7.49982C13.39 7.20393 13.1479 6.96411 12.8492 6.96411H12.2809C12.2218 6.37607 12.0626 5.81804 11.8265 5.30125L12.7908 4.74964C12.9415 5.0075 13.2721 5.09268 13.5295 4.94571C13.788 4.79768 13.8767 4.47018 13.7276 4.21375L13.1868 3.28571C13.037 3.02929 12.7067 2.94125 12.4479 3.08946C12.1894 3.2375 12.1007 3.565 12.2498 3.82143L11.2833 4.37429C10.9498 3.91661 10.5458 3.51429 10.0861 3.18071L10.5919 2.44393C10.7601 2.19911 10.696 1.86607 10.4492 1.69982C10.202 1.53339 9.86579 1.59696 9.69796 1.84125L9.15263 2.63554C8.62172 2.39321 8.04718 2.22964 7.44092 2.16964V1.07143C7.73963 1.07143 7.98174 0.831607 7.98174 0.535714C7.98174 0.239821 7.73963 0 7.44092 0H6.35927C6.06055 0 5.81844 0.239821 5.81844 0.535714C5.81844 0.831607 6.06055 1.07143 6.35927 1.07143V2.17C5.753 2.22982 5.17846 2.39357 4.64755 2.63589L4.10222 1.84161C3.93457 1.59732 3.59817 1.53339 3.35102 1.70018C3.10404 1.86661 3.03986 2.19946 3.20824 2.44429L3.71409 3.18107C3.25457 3.51464 2.85039 3.91696 2.51688 4.37464L1.55043 3.82179C1.6997 3.56536 1.61082 3.23786 1.35231 3.08982C1.09253 2.94143 0.762809 3.02964 0.613361 3.28607L0.0725362 4.21411C-0.0767315 4.47054 0.0121441 4.79804 0.270658 4.94607C0.528091 5.09286 0.858715 5.00786 1.00943 4.75L1.97372 5.30161C1.73774 5.81839 1.57855 6.37661 1.51924 6.96446H0.951016C0.652301 6.96446 0.410191 7.20429 0.410191 7.50018C0.410191 7.79607 0.652301 8.03589 0.951016 8.03589H1.51924C1.57837 8.62393 1.73756 9.18196 1.97372 9.69875L1.00943 10.2504C0.859256 9.99393 0.529533 9.90571 0.270478 10.0541ZM6.90009 3.21429C9.28567 3.21429 11.2267 5.13696 11.2267 7.5C11.2267 9.86304 9.28567 11.7857 6.90009 11.7857C4.51451 11.7857 2.57349 9.86304 2.57349 7.5C2.57349 5.13696 4.51451 3.21429 6.90009 3.21429Z" fill="white"/>
</svg>
