<svg width="36" height="24" viewBox="0 0 36 24" fill="none" xmlns="http://www.w3.org/2000/svg">
<path d="M18.0705 0.405518C13.2002 0.405518 9.15029 4.50388 8.43283 9.83852C7.55053 9.82091 6.59009 10.0296 5.85341 10.3871C4.70627 11.017 3.69281 12.4072 3.44988 13.6652C3.07785 16.2842 2.85179 17.9688 0.83528 19.9405C0.545934 20.22 0.394564 20.6744 0.448169 21.1027C0.501777 21.5309 0.758584 21.9189 1.10493 22.0947C3.83079 23.4654 5.87097 23.9445 7.68246 23.1651C9.12168 22.5459 10.1771 21.2768 11.3171 19.5525C13.0721 21.4786 15.4524 22.6701 18.0705 22.6701C20.6886 22.6701 23.0689 21.4786 24.8239 19.5525C25.9638 21.2768 27.0193 22.5459 28.4585 23.1651C30.27 23.9445 32.3102 23.4654 35.0361 22.0947C35.3824 21.9189 35.6392 21.5309 35.6928 21.1027C35.7464 20.6745 35.5951 20.22 35.3057 19.9405C33.2892 17.9688 33.0632 16.2843 32.6911 13.6652C32.3043 11.9247 31.3197 10.9195 30.2876 10.3871C29.3924 9.97283 28.5804 9.84768 27.7082 9.83852C26.9907 4.50388 22.9408 0.405518 18.0705 0.405518H18.0705ZM18.0705 2.9745C21.6784 2.9745 24.6691 5.84382 25.3984 9.7047C23.4957 8.42376 22.2554 7.09891 21.7755 5.18221C21.6312 4.60914 21.0994 4.19859 20.5796 4.25898C20.3816 4.28177 20.1892 4.36584 20.0285 4.49982C17.7977 6.36672 16.4022 7.66879 14.9752 8.54063C13.8061 9.25487 12.5684 9.72743 10.6722 10.0526C11.2827 6.018 14.3552 2.9745 18.0705 2.9745ZM20.2278 7.53712C21.3121 9.81959 23.25 11.3632 25.5039 12.7152C25.0003 16.8935 21.8748 20.1011 18.0705 20.1011C14.2497 20.1011 11.1083 16.8666 10.6253 12.6617C12.9262 12.2994 14.5639 11.705 16.0421 10.8019C17.401 9.97168 18.6867 8.85682 20.2278 7.53712ZM14.6938 11.966C14.0722 11.966 13.5682 12.5411 13.5682 13.2504C13.5682 13.9599 14.0722 14.5349 14.6938 14.5349C15.3154 14.5349 15.8194 13.9599 15.8194 13.2504C15.8194 12.5411 15.3154 11.966 14.6938 11.966ZM22.1976 11.966C21.5759 11.966 21.072 12.5411 21.072 13.2504C21.072 13.9599 21.5759 14.5349 22.1976 14.5349C22.8192 14.5349 23.3231 13.9599 23.3231 13.2504C23.3231 12.5411 22.8192 11.966 22.1976 11.966ZM8.35076 12.4075C8.47902 14.2773 9.00982 16.0199 9.85152 17.5187C8.65746 19.3534 7.75837 20.3811 6.88518 20.7567C6.10211 21.0936 5.09705 21.0464 3.49676 20.4088C4.91262 18.392 5.36321 16.2427 5.66582 14.1202C5.81208 13.3727 6.2921 12.9816 6.7445 12.742C7.33597 12.5048 7.81086 12.4215 8.35076 12.4075ZM27.7902 12.4075C28.4026 12.4032 28.9657 12.5291 29.3965 12.742C29.9437 13.0083 30.3552 13.5521 30.4752 14.1202C30.7778 16.2427 31.2284 18.392 32.6442 20.4088C31.0439 21.0464 30.0389 21.0936 29.2558 20.7567C28.3826 20.3811 27.4835 19.3534 26.2895 17.5187C27.1312 16.0199 27.6619 14.2773 27.7902 12.4075H27.7902ZM15.8194 16.8497C16.1946 17.706 16.9449 18.5624 18.0705 18.5624C19.1961 18.5624 19.9464 17.706 20.3216 16.8497H15.8194Z" fill="#20CD84"/>
</svg>
