<svg width="26" height="24" viewBox="0 0 26 24" fill="none" xmlns="http://www.w3.org/2000/svg">
<path d="M2.59889 18.9271C4.86365 21.9435 8.59621 23.919 12.8128 23.919C19.7049 23.919 25.3125 18.6448 25.3125 12.1618C25.3125 5.67927 19.7049 0.405518 12.8128 0.405518C5.92008 0.405518 0.3125 5.67953 0.3125 12.1618C0.3125 14.634 1.12998 16.9289 2.52099 18.8241C2.54317 18.8609 2.56923 18.8951 2.59889 18.9271ZM16.9853 21.8408C16.9808 21.8408 16.9772 21.8397 16.9733 21.8397C15.7536 21.8397 15.4509 21.6111 15.1568 21.3887C14.9267 21.2158 14.7881 20.9686 14.8189 20.7861C14.845 20.6328 14.9866 20.444 15.1366 20.2443C15.1804 20.1867 15.2236 20.1291 15.2655 20.0707C15.846 19.2648 16.1783 18.2868 16.2022 17.3166C16.2055 17.1875 16.1675 17.0606 16.0943 16.9511C15.2633 15.7176 13.6716 16.288 12.3936 16.7467C11.7705 16.9698 11.0933 17.2128 10.5755 17.2433C10.6204 17.2042 10.6669 17.1649 10.7135 17.125C11.177 16.7315 11.7536 16.2421 11.7234 15.4498C11.692 14.6681 11.0331 13.7918 10.1012 13.7332C8.65387 13.6409 8.02767 13.2438 7.9312 12.9317C7.90154 12.8352 7.92372 12.7554 7.9506 12.7067C8.75727 12.9419 10.2375 13.3142 11.1107 12.3362C11.7735 11.5986 11.6815 10.5048 10.8585 9.33442L10.8022 9.25463C10.4119 8.70189 10.0086 8.13011 10.1502 7.68948C10.2348 7.42745 10.5347 7.18549 10.7859 7.00481C11.4323 6.54071 12.148 6.17413 12.9131 5.91523L12.9722 5.89515C13.9413 5.56794 15.4058 5.07333 15.513 3.76422C15.571 3.04878 15.1535 2.49473 14.8184 2.04941C14.7726 1.98762 14.7277 1.92713 14.6839 1.86716C16.333 2.13154 17.8587 2.73851 19.176 3.60804L16.7568 6.79962C16.1495 7.60005 16.1137 8.36425 16.6615 8.84451C16.9343 9.0836 17.2652 9.14904 17.4454 9.18502C17.9067 9.27471 18.3832 9.3232 18.885 9.3292C18.9105 9.32946 18.9418 9.32998 18.9712 9.33077C18.9809 9.36727 18.9917 9.42306 18.9983 9.50571C19.0405 10.0572 18.9664 10.625 18.7835 11.1483C18.7084 11.3629 18.7563 11.5991 18.9102 11.7727C19.306 12.2186 20.0337 12.2843 20.6774 11.9339C20.7553 11.8919 20.8323 11.8455 20.9091 11.7988C21.0061 11.7402 21.168 11.6419 21.2204 11.64C21.2833 11.6481 21.5032 11.7978 21.619 11.8838C21.9173 12.1062 22.3262 12.4102 22.8817 12.4134C22.885 12.4136 22.8875 12.4136 22.8908 12.4136C23.2623 12.4134 23.6185 12.2684 23.9151 12.0165C23.9162 12.0655 23.9195 12.1133 23.9195 12.1623C23.9193 16.5347 21.0471 20.286 16.9853 21.8408ZM23.6091 9.71664C23.4738 9.95286 23.3898 10.1935 23.3161 10.4065C23.2656 10.5533 23.2179 10.6923 23.1611 10.8083C23.0599 11.013 22.9249 11.1032 22.8903 11.1032C22.8141 11.1027 22.6147 10.9543 22.4831 10.8563C22.1734 10.6258 21.7565 10.3103 21.1669 10.3309C20.8376 10.3427 20.5659 10.4623 20.3467 10.5843C20.404 10.1977 20.4176 9.80503 20.3871 9.40951C20.3383 8.80097 20.0969 8.38354 19.6703 8.16896C19.385 8.02504 19.0942 8.02165 18.8789 8.01904C18.4897 8.01409 18.1018 7.97498 17.7298 7.9025C17.7168 7.89989 17.7049 7.89754 17.6946 7.89546C17.7248 7.8162 17.785 7.69965 17.8906 7.56042L20.2668 4.42543C21.8929 5.81198 23.0785 7.64568 23.6091 9.71664ZM12.8128 1.71568C12.8918 1.71568 12.9702 1.71985 13.0495 1.72115C13.1853 2.14405 13.447 2.49343 13.6824 2.8063C13.9307 3.13586 14.1447 3.42032 14.1253 3.66384C14.0874 4.12637 13.2086 4.42334 12.5026 4.66165L12.4424 4.68224C11.5432 4.98651 10.7013 5.4175 9.94066 5.96372C9.52319 6.26434 9.01812 6.68933 8.81826 7.3096C8.48589 8.3413 9.12734 9.24942 9.64239 9.97946L9.69755 10.0577C10.0294 10.5293 10.3202 11.1874 10.0463 11.4922C9.75937 11.8134 8.97266 11.6359 8.24278 11.42C7.7998 11.2878 7.30943 11.4236 6.96237 11.7733C6.52882 12.2113 6.40519 12.8675 6.6483 13.4461C6.91996 14.0932 7.72413 14.895 10.0083 15.0405C10.1181 15.0472 10.3235 15.2811 10.3321 15.498C10.3384 15.6665 10.1183 15.8664 9.78099 16.1527C9.40842 16.469 8.98624 16.8275 8.7983 17.3641C8.71264 17.6086 8.78693 17.878 8.98901 18.0519C10.0682 18.9824 11.6327 18.4218 12.8904 17.9708C13.7658 17.6569 14.4774 17.4246 14.7929 17.5539C14.7283 18.1861 14.491 18.8101 14.1131 19.336C14.0763 19.3865 14.0383 19.4374 14 19.4877C13.7863 19.7719 13.5205 20.1257 13.4434 20.5804C13.332 21.2354 13.6558 21.937 14.2858 22.4107C14.3255 22.4407 14.3654 22.4704 14.4067 22.4996C13.8858 22.5703 13.3536 22.6089 12.8128 22.6089C9.12457 22.6089 5.85244 20.9079 3.83134 18.2977C3.89426 17.1839 4.45283 16.4194 4.91244 15.802L4.97592 15.717C5.1209 15.5202 5.31328 15.2144 5.30607 14.828C5.29581 14.3865 5.0369 14.0776 4.84813 13.8521C4.81237 13.8093 4.77661 13.7668 4.74417 13.7246C4.28928 13.1215 4.60169 12.1837 5.12644 11.6077L5.17523 11.5543C5.41723 11.292 5.78314 10.8957 5.73989 10.346C5.70358 9.83684 5.31605 9.39125 4.75027 9.20979C4.34971 9.08281 3.94749 9.10967 3.60902 9.15269C3.08815 9.21735 2.57754 9.3292 2.07885 9.47912C3.34124 5.01493 7.67423 1.71568 12.8128 1.71568ZM1.77808 10.9861C2.42175 10.7207 3.09591 10.5374 3.79225 10.4511C3.9741 10.4282 4.17674 10.4102 4.30231 10.4501C4.31035 10.4527 4.31811 10.4555 4.32449 10.4589C4.27736 10.5286 4.18422 10.6292 4.12296 10.6952L4.0689 10.7546C3.17935 11.731 2.73527 13.3251 3.60874 14.4833C3.65476 14.5435 3.7041 14.6032 3.75372 14.6627C3.80362 14.7216 3.87403 14.8058 3.90424 14.8564C3.89399 14.8775 3.87292 14.9132 3.83217 14.9685L3.77091 15.0506C3.46654 15.4592 3.07457 15.9866 2.79265 16.6661C2.09631 15.3017 1.70545 13.7738 1.70545 12.1618C1.70545 11.7641 1.73151 11.3725 1.77808 10.9861Z" fill="white"/>
</svg>
