<svg width="22" height="24" viewBox="0 0 22 24" fill="none" xmlns="http://www.w3.org/2000/svg">
<path d="M20.7732 0.838882C20.4974 0.571306 20.1161 0.405518 19.6948 0.405518H17.1517C16.8704 0.405518 16.6432 0.626569 16.6432 0.898514V1.88451C16.6432 2.15697 16.8707 2.3775 17.1517 2.3775H19.1862V4.84274V6.19964C19.1862 7.38818 18.3979 8.39911 17.7608 9.354C16.759 10.8553 14.493 10.8554 13.491 9.35451C12.8318 8.36749 12.0655 7.43085 12.0655 6.19964V4.84274V2.3775H14.1001C14.3814 2.3775 14.6086 2.15697 14.6086 1.88451V0.898514C14.6086 0.626569 14.3811 0.405518 14.0998 0.405518H11.5567C11.1354 0.405518 10.7541 0.571306 10.4778 0.838882C10.2015 1.10646 10.0308 1.47633 10.0308 1.88476V4.843V5.18101C10.0308 6.89133 10.5653 8.48316 11.4663 9.95366C13.0718 12.5731 14.6086 13.456 14.5662 14.8795C14.5384 15.7925 14.5662 16.7078 14.5662 17.6221C14.5662 19.7966 12.7404 21.5666 10.4972 21.5666H9.52192C7.27846 21.5666 5.45288 19.7966 5.45288 17.6221V14.066C6.92315 13.6419 7.99596 12.3235 7.99596 10.7597C7.99596 8.8538 6.4016 7.30824 4.43548 7.30824C2.46884 7.30824 0.875 8.8538 0.875 10.7597C0.875 12.3235 1.94728 13.6419 3.41809 14.066V17.6218C3.41888 20.8896 6.15103 23.5388 9.52219 23.5388H10.4974C13.8678 23.5388 16.601 20.8896 16.601 17.6221V16.0264C16.601 15.2733 16.5795 13.8825 16.9189 13.2044C18.0495 12.3274 19.3347 11.4147 20.0127 10.0819C20.9713 8.64612 21.2208 6.89133 21.2208 5.18126V4.84326V1.88476C21.2208 1.47633 21.0495 1.10671 20.7732 0.838882ZM2.52876 10.7597C2.52876 9.74084 3.38468 8.91087 4.43601 8.91087C5.48708 8.91087 6.34326 9.74084 6.34326 10.7597C6.34326 11.7791 5.48708 12.6086 4.43601 12.6086C3.38441 12.6089 2.52876 11.7791 2.52876 10.7597Z" fill="#20CD84"/>
</svg>
