<svg width="40" height="41" viewBox="0 0 40 41" fill="none" xmlns="http://www.w3.org/2000/svg">
<g opacity="0.5">
<path fill-rule="evenodd" clip-rule="evenodd" d="M18.5785 39.2416C16.5728 39.4601 14.4612 39.3094 12.5298 38.7781C10.5863 38.251 8.77541 37.357 7.22402 36.1745C5.67102 34.9919 4.37752 33.5208 3.44539 31.8788C2.51084 30.2384 1.94412 28.4319 1.76465 26.623C2.27477 28.3682 3.14384 29.97 4.27565 31.3056C5.40747 32.643 6.79636 33.7159 8.30733 34.4736C9.81911 35.2329 11.453 35.6787 13.0787 35.8053C14.7166 35.9318 16.2987 35.7488 17.8558 35.2773C18.9302 34.9516 20.066 35.5562 20.3935 36.6275C20.7193 37.6988 20.1129 38.8313 19.0385 39.157C18.9197 39.1941 18.7984 39.2191 18.6788 39.2328L18.5785 39.2416Z" fill="url(#paint0_linear)"/>
<path fill-rule="evenodd" clip-rule="evenodd" d="M38.8276 22.2511C39.1535 24.2642 39.0621 26.4098 38.5472 28.3544C38.0379 30.313 37.1285 32.1199 35.9354 33.663C33.5524 36.7594 30.0248 38.7219 26.4212 39.2394C29.8744 38.0642 32.7103 35.5857 34.2344 32.5705C35.0031 31.0694 35.4536 29.445 35.5606 27.8367C35.6652 26.2181 35.4382 24.6653 34.8913 23.1623C34.5094 22.1076 35.0551 20.9461 36.111 20.5664C37.1669 20.1868 38.3325 20.7335 38.7154 21.7876C38.7586 21.9057 38.7897 22.0234 38.8097 22.1431L38.8271 22.2543" fill="url(#paint1_linear)"/>
<path fill-rule="evenodd" clip-rule="evenodd" d="M21.6003 2.44934C23.604 2.21415 25.7129 2.34707 27.6521 2.86309C29.6012 3.37317 31.4203 4.25237 32.9831 5.42187C34.5492 6.59103 35.8582 8.05117 36.8074 9.68523C37.7583 11.3179 38.3436 13.1196 38.5386 14.9266C38.0111 13.1851 37.1259 11.5902 35.9798 10.2662C34.8345 8.93736 33.4351 7.87719 31.9157 7.13221C30.3972 6.38655 28.7596 5.95458 27.1329 5.84162C25.4922 5.72913 23.9128 5.92484 22.3608 6.40931C21.2901 6.74431 20.1482 6.14861 19.8095 5.0809C19.4718 4.01251 20.0673 2.87381 21.1378 2.53961C21.2574 2.50193 21.3769 2.47645 21.4975 2.46089L21.5995 2.44923" fill="url(#paint2_linear)"/>
<path fill-rule="evenodd" clip-rule="evenodd" d="M1.67998 19.4271C1.32043 17.4202 1.37898 15.2736 1.86367 13.3209C2.34153 11.3531 3.22292 9.53206 4.39018 7.97567C6.72245 4.84309 10.2193 2.82473 13.8133 2.25703C10.38 3.48296 7.58424 6.00359 6.10907 9.04195C5.36412 10.5558 4.93866 12.1864 4.85775 13.7962C4.77819 15.4197 5.03051 16.9663 5.59998 18.463C5.99949 19.5117 5.47289 20.6812 4.42319 21.0767C3.37349 21.4721 2.19917 20.9428 1.79945 19.8948C1.75459 19.7776 1.72191 19.6587 1.70021 19.5393L1.68076 19.4273" fill="url(#paint3_linear)"/>
<path d="M30.2593 20.8579C30.2593 15.7334 26.2156 11.5385 21.149 11.324C21.0777 11.324 21.0063 11.324 20.935 11.324H20.9112C20.8636 11.324 20.816 11.324 20.7685 11.324C20.7209 11.324 20.6733 11.324 20.6257 11.324H20.6019C20.5306 11.324 20.4592 11.324 20.3879 11.324C15.2737 11.5385 11.23 15.7334 11.23 20.8579C11.23 25.9586 15.2499 30.1297 20.2927 30.3918C20.3879 30.3918 20.483 30.4157 20.5544 30.4157C20.5782 30.4157 20.5782 30.4157 20.6019 30.4157C20.6495 30.4157 20.6971 30.4157 20.7447 30.4157C20.7922 30.4157 20.8398 30.4157 20.8874 30.4157C20.9112 30.4157 20.9112 30.4157 20.935 30.4157C21.0301 30.4157 21.1253 30.4157 21.1966 30.3918C26.2394 30.1297 30.2593 25.9586 30.2593 20.8579ZM12.2052 21.3346H15.2975C15.3451 22.7885 15.5354 24.1233 15.8922 25.3389C15.2261 25.5772 14.5839 25.8394 14.0368 26.1731C12.9664 24.8145 12.3004 23.1461 12.2052 21.3346ZM14.013 15.5666C14.5601 15.8764 15.2024 16.1624 15.8684 16.4008C15.5116 17.5925 15.3213 18.9511 15.2737 20.405H12.1814C12.3004 18.5698 12.9664 16.9013 14.013 15.5666ZM29.2841 20.3812H26.2156C26.168 18.975 25.9777 17.6402 25.6447 16.4485C26.3345 16.234 26.9768 15.9479 27.5477 15.6381C28.5705 16.9728 29.1889 18.6174 29.2841 20.3812ZM25.2641 20.3812H21.2204V17.1635C22.4335 17.1397 23.6229 16.9967 24.717 16.7345C25.0263 17.8309 25.2166 19.0703 25.2641 20.3812ZM21.2204 16.2101V12.3012C22.5049 12.4919 23.6704 13.8266 24.4078 15.8049C23.4088 16.0433 22.3384 16.1863 21.2204 16.2101ZM20.2689 12.3012V16.2101C19.151 16.1624 18.0806 16.0194 17.1053 15.7811C17.8427 13.8028 18.9844 12.468 20.2689 12.3012ZM20.2689 17.1635V20.3812H16.2252C16.2728 19.0465 16.4631 17.7832 16.7961 16.663C17.8903 16.949 19.0558 17.1158 20.2689 17.1635ZM16.2252 21.3346H20.2689V24.5523C19.0558 24.6 17.8903 24.7668 16.7961 25.0528C16.4631 23.9326 16.2728 22.6694 16.2252 21.3346ZM20.2689 25.5295V29.4385C18.9844 29.2716 17.8427 27.9369 17.1053 25.9824C18.0806 25.7202 19.151 25.5534 20.2689 25.5295ZM21.2204 29.4146V25.5057C22.3384 25.5295 23.4088 25.6725 24.4078 25.9109C23.6704 27.8892 22.5049 29.2239 21.2204 29.4146ZM21.2204 24.5523V21.3346H25.2641C25.2166 22.6455 25.0263 23.8849 24.717 25.0052C23.6229 24.743 22.4335 24.5761 21.2204 24.5523ZM26.2156 21.3346H29.3079C29.2127 23.0984 28.5705 24.743 27.5714 26.0539C27.0006 25.7441 26.3583 25.4819 25.6685 25.2435C25.9777 24.0756 26.168 22.7647 26.2156 21.3346ZM26.9054 14.923C26.4297 15.1614 25.9064 15.3759 25.3355 15.5666C24.9311 14.494 24.4316 13.5644 23.8369 12.8732C25.0025 13.3261 26.0491 14.0173 26.9054 14.923ZM17.6524 12.8494C17.0577 13.5406 16.5582 14.4225 16.1776 15.4712C15.6305 15.2806 15.131 15.066 14.6553 14.8277C15.4878 13.9696 16.5106 13.3023 17.6524 12.8494ZM14.6553 26.8881C15.1072 26.6498 15.6305 26.4114 16.1776 26.2446C16.5582 27.2933 17.0577 28.1752 17.6524 28.8664C16.5106 28.4136 15.4878 27.7462 14.6553 26.8881ZM23.8369 28.8664C24.4316 28.1752 24.9549 27.2456 25.3355 26.1731C25.9064 26.3638 26.4297 26.5544 26.9054 26.8166C26.0491 27.6985 25.0025 28.3897 23.8369 28.8664Z" fill="#7D7D7D"/>
</g>
<defs>
<linearGradient id="paint0_linear" x1="11.1231" y1="26.623" x2="11.1231" y2="39.3383" gradientUnits="userSpaceOnUse">
<stop stop-color="#20CD84"/>
<stop offset="1" stop-color="#2E2F41" stop-opacity="0"/>
</linearGradient>
<linearGradient id="paint1_linear" x1="34.9193" y1="20.0818" x2="31.3752" y2="40.1158" gradientUnits="userSpaceOnUse">
<stop stop-color="#20CD84"/>
<stop offset="1" stop-color="#2E2F41" stop-opacity="0"/>
</linearGradient>
<linearGradient id="paint2_linear" x1="30.0427" y1="3.09027" x2="28.572" y2="13.5213" gradientUnits="userSpaceOnUse">
<stop stop-color="#20CD84"/>
<stop offset="1" stop-color="#2E2F41" stop-opacity="0"/>
</linearGradient>
<linearGradient id="paint3_linear" x1="9.6154" y1="1.12851" x2="4.16502" y2="21.4032" gradientUnits="userSpaceOnUse">
<stop stop-color="#20CD84"/>
<stop offset="1" stop-color="#2E2F41" stop-opacity="0"/>
</linearGradient>
</defs>
</svg>
