<svg width="26" height="24" viewBox="0 0 26 24" fill="none" xmlns="http://www.w3.org/2000/svg">
<path d="M11.0522 0.405518C5.30245 0.405518 0.625 4.9332 0.625 10.4988C0.625 14.8077 3.20975 18.8552 7.22942 20.2998C7.58899 20.4218 7.94077 20.2811 8.26261 20.2077C9.15292 20.447 10.0852 20.5924 11.0522 20.5924C12.1629 20.5924 13.2345 20.4205 14.2392 20.1077C15.0583 22.1163 17.0833 23.5388 19.4448 23.5388C22.5259 23.5388 25.0399 21.113 25.0399 18.1306C25.0399 16.1697 23.9586 14.443 22.3377 13.4916C22.5487 13.184 22.9494 12.919 23.2597 12.4685C22.7692 12.785 22.2758 12.9978 21.9881 13.307C21.7239 13.1758 21.4477 13.0659 21.1615 12.9762C21.3685 12.1841 21.4794 11.3526 21.4794 10.4991C21.4794 4.93342 16.802 0.405743 11.0522 0.405743V0.405518ZM11.0522 1.88258C13.5229 1.88258 15.7516 2.85398 17.3626 4.42129C16.6218 7.02049 15.1428 8.44697 12.9914 9.39103C10.7686 10.3664 7.79471 10.7467 4.3842 10.9912C4.00362 11.0182 3.67588 11.3604 3.67686 11.7297C3.67686 13.9123 4.11762 15.7055 5.11537 17.2995C3.28072 15.6313 2.15093 13.1311 2.15093 10.4988C2.15093 5.73147 6.12713 1.88258 11.0522 1.88258ZM18.4991 5.77527C19.417 7.1309 19.9535 8.7529 19.9535 10.4988C19.9535 11.2686 19.854 12.0126 19.6594 12.7221C19.5878 12.7194 19.5171 12.7145 19.4448 12.7145C16.3638 12.7145 13.8497 15.148 13.8497 18.1304C13.8497 18.3143 13.8549 18.4975 13.8736 18.6766C12.9872 18.9621 12.0391 19.1151 11.0522 19.1151C10.0118 19.1127 9.23124 19.0079 8.36591 18.7151C6.17915 16.8713 5.37582 15.1176 5.25842 12.3991C8.40651 12.1508 11.2735 11.7702 13.6272 10.7374C15.8148 9.77738 17.5403 8.19431 18.4991 5.77533L18.4991 5.77527ZM15.1214 10.9912C14.5595 10.9912 14.1041 11.4321 14.1041 11.9759C14.1041 12.5197 14.5595 12.9606 15.1214 12.9606C15.6832 12.9606 16.1386 12.5197 16.1386 11.9759C16.1386 11.4321 15.6832 10.9912 15.1214 10.9912ZM8.50898 12.4683C7.94715 12.4683 7.49169 12.9091 7.49169 13.453C7.49169 13.9968 7.94715 14.4377 8.50898 14.4377C9.07082 14.4377 9.52627 13.9968 9.52627 13.453C9.52627 12.9091 9.07082 12.4683 8.50898 12.4683ZM19.4448 14.1839C21.7012 14.1839 23.514 15.9463 23.514 18.1304C23.514 20.3145 21.7012 22.0692 19.4448 22.0692C17.1885 22.0692 15.3757 20.3145 15.3757 18.1304C15.3757 15.9463 17.1885 14.1839 19.4448 14.1839ZM13.3173 15.1685C13.1372 15.1784 12.9667 15.2884 12.8881 15.4455C12.8974 15.4275 12.6432 15.6321 12.3079 15.707C11.9726 15.782 11.579 15.7352 11.537 15.7147C11.2977 15.5978 10.9702 15.7024 10.8495 15.9339C10.7289 16.1655 10.8368 16.4825 11.076 16.5994C11.5427 16.8252 12.0392 16.7783 12.5304 16.6686C13.0217 16.5589 13.5305 16.3943 13.7941 15.8839C13.9549 15.5785 13.671 15.1525 13.3173 15.1685V15.1685ZM17.4103 15.1762C16.9889 15.1762 16.6473 15.5068 16.6473 15.9147C16.6473 16.3226 16.9889 16.6533 17.4103 16.6533C17.8316 16.6533 18.1732 16.3226 18.1732 15.9147C18.1732 15.5068 17.8316 15.1762 17.4103 15.1762ZM20.4621 15.9147C20.0407 15.9147 19.6992 16.2454 19.6992 16.6533C19.6992 17.0612 20.0407 17.3918 20.4621 17.3918C20.8835 17.3918 21.2251 17.0612 21.2251 16.6533C21.2251 16.2454 20.8835 15.9147 20.4621 15.9147ZM16.1386 17.3918C15.8843 18.3765 16.1386 19.8535 17.4103 20.3459C18.6819 20.8383 19.9535 20.0997 20.7164 19.115L16.1386 17.3918Z" fill="#20CD84"/>
</svg>
