<svg width="20" height="18" viewBox="0 0 20 18" fill="none" xmlns="http://www.w3.org/2000/svg">
<path fill-rule="evenodd" clip-rule="evenodd" d="M18.2355 11.3195C18.2705 11.5666 17.8464 11.3744 17.8341 11.5745C17.6818 11.7373 17.8547 11.9766 17.9679 12.0825C17.7435 12.2512 17.5336 11.8648 17.3669 11.7647C17.0849 11.6941 16.9428 11.4901 16.6341 11.447C16.4776 11.4686 16.3212 11.4882 16.3665 11.702C15.7922 11.4862 15.6769 10.835 15.0326 10.684C14.4563 10.6859 14.2443 11.0351 14.2999 11.6372C13.3715 11.4842 12.5502 11.2273 11.5643 11.1293C11.307 11.1194 11.2555 10.9154 10.9653 10.939C10.708 11.0959 10.4671 11.2685 10.498 11.702C10.1296 11.4156 9.97933 10.9233 9.42975 10.8115C9.05306 10.8546 8.85751 11.0704 8.76282 11.3842C8.83075 11.7628 8.95835 12.0884 9.23006 12.2728C9.22182 12.414 8.94805 12.3002 8.83072 12.3375C8.79162 12.8808 8.87397 13.3123 8.89662 13.7988C8.51993 13.585 8.83896 12.7102 8.16175 12.7827C7.79124 12.767 7.91478 13.2241 7.89625 13.5438C7.96624 13.9635 8.16588 14.2636 8.22969 14.6893C8.42936 14.701 8.16588 14.9521 8.22969 14.6893C7.82008 14.1675 7.73158 13.3417 7.49487 12.6552C7.39606 12.4454 7.33223 12.7867 7.16139 12.718C7.02142 12.3434 6.84439 12.004 6.62826 11.702C6.64472 11.3882 6.5871 11.1469 6.42861 11.0018C5.89755 10.941 5.9552 11.4411 5.96137 11.8922C6.08282 12.4963 6.2907 13.0201 6.42861 13.6085C6.04781 13.1534 5.84198 12.5493 5.56204 12.0197C5.42207 11.7549 5.22444 11.5039 5.09476 11.2567C4.94656 10.9782 4.91776 10.6546 4.62753 10.4937C4.43815 10.7605 4.64607 11.194 4.69547 11.447C4.77986 11.7471 4.87657 12.0354 4.96097 12.3375C4.50195 11.906 4.39289 11.143 4.02649 10.6212C3.98327 10.2407 3.75476 10.0328 3.69301 9.66798C3.50158 9.40515 3.49746 8.96379 3.29368 8.71469C2.94993 8.60093 2.72148 8.92653 2.62679 8.84023C2.61033 8.29691 3.06728 8.20279 3.35957 7.95172C3.58805 7.63789 3.93387 7.43779 4.16029 7.12592C4.76134 6.61595 5.37677 6.12363 5.89548 5.5352C6.58916 5.11742 6.99671 4.42504 7.69656 4.01118C8.0856 3.55612 8.56932 3.16777 8.96247 2.80294C9.10656 2.66956 9.19097 2.44203 9.42975 2.42241C9.34124 3.24818 9.36591 4.18378 9.23006 4.96443C9.58822 5.13115 9.98959 5.25667 10.3642 5.40966C13.0319 5.45085 15.6708 5.52149 18.3014 5.59995C18.2808 7.1436 18.3507 8.83435 18.2355 10.1132C18.2746 10.4506 18.3878 11.0037 18.2355 11.3195ZM11.1649 12.463C11.1299 12.4317 11.2123 12.3826 11.2308 12.4002C11.2658 12.4336 11.1835 12.4827 11.1649 12.463ZM11.097 12.2728C11.0579 12.2708 11.0188 12.263 11.0311 12.21C10.9365 12.1943 10.918 12.1041 10.8294 12.0825C10.8583 11.9236 11.0888 12.0786 11.0311 12.21C11.0723 12.2139 11.1094 12.2198 11.097 12.2728C11.1773 12.2669 11.1382 12.3649 11.097 12.2728ZM19.769 8.52445C19.7649 8.4401 19.7011 8.43617 19.7011 8.33221C19.7011 8.11057 19.7402 8.22828 19.7011 8.07922C19.6743 7.97722 19.7566 7.92817 19.769 7.88698C19.7896 7.81244 19.6681 7.7634 19.7011 7.63394C19.7484 7.45741 19.7031 7.49666 19.7011 7.31621C19.699 7.18087 19.7669 7.18673 19.7011 7.12592C19.6743 7.10042 19.7031 6.91016 19.7011 6.87094C19.7011 6.81209 19.7649 6.81996 19.769 6.80623C19.7813 6.75131 19.7031 6.74933 19.7011 6.74344C19.6496 6.0334 19.7916 5.43322 19.6352 4.83694C19.4952 4.75848 19.3841 4.65258 19.3017 4.5192C18.1388 4.42701 16.9387 4.42503 15.7654 4.45641C14.0364 4.50152 12.2579 4.47409 10.6318 4.5192C10.6195 3.2168 10.5166 2.00068 10.4301 0.7689C10.216 0.613947 10.0575 0.404087 9.62939 0.451162C9.55117 0.482544 9.47915 0.519812 9.42975 0.578655C9.17245 0.672804 8.97481 0.82382 8.83072 1.02389C8.53843 1.10627 8.41083 1.34361 8.22969 1.53191C7.82419 1.86535 7.44546 2.22625 7.09553 2.61265C6.79089 2.66169 6.74353 2.95593 6.49446 3.05793C5.94076 3.60909 5.42412 4.19752 4.76132 4.64669C4.06559 5.40381 3.25458 6.04912 2.5609 6.80623C2.32007 6.91803 2.16983 7.11416 1.95987 7.25146C1.77873 7.43976 1.65109 7.67906 1.3588 7.76144C1.2106 7.97916 0.978031 8.11841 0.825711 8.33221C0.57253 8.4499 0.214347 8.47148 0.224639 8.84023C0.187588 9.4267 0.57663 9.60716 0.757768 9.98572C1.0727 10.2584 1.39997 10.5173 1.76018 10.7487C1.81576 10.99 2.21717 11.1645 2.22746 11.3195C2.23158 11.394 2.26861 11.3489 2.29331 11.3842C2.45387 11.6196 2.74618 11.7922 2.89438 11.955C2.95202 12.0217 2.95816 12.1394 3.02609 12.21C3.24634 12.4395 3.52836 12.6239 3.76095 12.8455C4.11088 13.179 4.4361 13.5928 4.76132 13.8615C4.78602 13.8831 4.86424 13.8498 4.89511 13.8615C5.00627 13.9106 5.09067 14.1146 5.16065 14.1793C5.90991 14.858 6.66121 15.4699 7.36312 16.1505C7.70893 16.4134 7.97032 16.7566 8.29555 17.041C8.47874 17.1626 8.6352 17.3098 8.76282 17.4843C8.96249 17.6138 9.39269 17.5216 9.69734 17.549C10.0781 17.2117 9.96697 16.4075 10.0308 15.77C10.0081 15.0502 10.1481 14.4833 10.0966 13.736C12.1221 13.836 14.6539 14.0008 16.6341 13.736C16.8934 13.8694 17.3998 13.7674 17.7682 13.7988C18.2273 13.7066 18.7624 13.687 19.1679 13.5438C19.2503 13.4124 19.3614 13.3064 19.5014 13.226C19.6269 13.1142 19.6599 12.9122 19.769 12.7827C19.6064 11.2057 19.8225 9.9916 19.769 8.52445Z" fill="#303030"/>
</svg>
