<svg width="18" height="18" viewBox="0 0 18 18" fill="none" xmlns="http://www.w3.org/2000/svg"><path fill-rule="evenodd" clip-rule="evenodd" d="M10.524 5.648c-.003.057.026.138.054.054.002-.057-.025-.138-.053-.054zm4.789 3.647c-.162.057-.16.274-.435.217-.259.25-.646.37-.87.653-.112.11-.108-.023-.22-.053-.173.095-.276.267-.326.49-.376.293-.657.683-1.034.978-.019.127-.056.236-.162.273-.094.138.083.21-.11.217-.224.024-.05-.284 0-.327.048-.151.068-.33.164-.434.015-.328.264-.595.163-.87-.367-.041-.326.326-.49.488-.103.242-.254.434-.327.707-.269.403-.429.913-.653 1.361-.17.083-.327.182-.544.217.145-.616.352-1.17.49-1.795.123-.258.115-.649.271-.871.002-.204.073-.453.11-.49.035-.034-.047-.15-.054-.163-.036-.068-.057-.076-.164-.162-.256.087-.368.32-.49.542-.107.256-.306.42-.38.71-.288.419-.524.89-.762 1.358-.178-.11-.321-.259-.653-.217.11-.434.46-.96.217-1.415-.064-.008-.155.01-.163-.053-.416.092-.603.412-.761.76-.13-.183.274-.803-.11-.924-.276-.04-.337.135-.49.217a.272.272 0 01-.162.164c-.017.049-.148.237-.163.11.044-.223.209-.55 0-.71-.398.039-.558.315-.763.546-.121-.162.162-.38.11-.654-.018-.128-.17-.12-.218-.217-.445.136-.692.47-.926.815-.118.01-.026-.192-.054-.27.039-.15-.108-.11-.11-.22-.363-.072-.448.133-.651.22-.004.031-.009.063-.056.053.005.066-.08.034 0 0 .003-.034.008-.064.056-.054.047-.2.247-.308.109-.544-.56-.034-.568.485-.872.707-.115.412-.437.617-.544 1.035.02.197.13.306.326.326.251.016.293-.178.38-.326.15.069.195.24.437.217.135.008.224-.029.273-.11.094.017.167-.256.216-.107-.022.131.099.118.055.27.066-.004.034.08 0 0-.758-.016-1.5.326-2.178.056.19-.301.41-.57.49-.98.186-.305.353-.628.381-1.088-.17-.145-.377.025-.488.108.005.066-.081.034 0 0 .047-.404.143-.763.163-1.198-.012-.151-.096-.23-.273-.217.108-.212.026-.473-.163-.544-.172-.008-.329-.002-.38.11-.115 0-.205.296-.274.163.037-.435-.047-.751-.053-1.144.122-.022-.03-.318.217-.217-.039-.384.027-.664.217-.817.064-.008.155.01.163-.054.169-.005.262.066.383.11h4.08c.194-.096.59.008.762-.11-.066.005-.034-.079 0 0 .478.143 1.043-.075 1.634 0 .42-.614-.005-1.846.217-2.721.12-.061.222-.14.435-.108.471.163.667.604.98.924.151.176.258.396.434.544.063.267.342.312.381.6.27.258.574.478.817.761.172.063.145-.015.273.054.246.408.608.7.978.98.09.13.197.24.273.381.192.044.153.318.327.38.044.19-.103.232 0 .328.11.161.273.27.488.326-.178.108-.01.086 0 .271.125.043.022.307.056.437zm-4.68 4.353h-.108v-.109h.107v.11zm-1.035 1.035c-.12-.007-.023-.231-.054-.327.113-.024.143.037.218.054.026.171-.147.145-.164.273zM7.857 12.07c-.027-.028.04-.069.055-.054.027.027-.04.07-.055.054zm-.979-.11h-.11v-.107h.11v.108zM2.307 9.786c-.007-.066.08-.034 0 0 .005.065-.08.033 0 0zm.108 2.231c-.281.086-.159-.412-.108-.49.116-.01.024.192.054.271-.073.137.214.17.054.22zm12.734-3.919c.03.029-.038.07-.053.056-.029-.029.038-.071.053-.056zm.545-.653c-.84-1.119-1.919-2-2.886-2.993-.508-.47-1.07-.888-1.522-1.415-.354-.137-.489-.492-.761-.708-.31-.18-.423-.557-.817-.653H9.27a.383.383 0 00-.161.11c-.182.109-.138.432-.164.76-.062.779-.02 1.795-.11 2.45-1.298-.17-2.847-.09-4.299-.108-.254.035-.495.086-.761.108-.805-.026-1.55.011-2.176.163a2.44 2.44 0 00-.6.654c.116 1.662.027 3.528.054 5.278.123.477-.049 1.248.163 1.634a.496.496 0 01.22.217c1.23.168 2.71-.143 3.97.054.238.002.304-.168.6-.108.494.05.982.076 1.469 0 .258.032.396.184.544.325h.327c.033-.015.21-.134.217 0a9.621 9.621 0 00.11 1.797c.015.52-.139.923.163 1.198.101.007.182.035.217.108.647.084.756-.368 1.144-.544 1.927-2.01 3.94-3.933 5.93-5.878.158-.134.312-.27.546-.326.006-.138.079-.212.217-.218-.013-.159.123-.167.108-.327-.157-.802-.76-1.16-1.305-1.578z" fill="#303030"/></svg>