<svg width="22" height="22" viewBox="0 0 22 22" fill="none" xmlns="http://www.w3.org/2000/svg"><path fill-rule="evenodd" clip-rule="evenodd" d="M17.4 14.09c-.013.225-.23.245-.26.454-.147-.057-.214-.364-.39-.194-.097.055-.14.162-.13.324-.086.162.256.202.064.26-.115.404-.543.496-.779.778-.367.154-.538.503-.91.65-.424.617-1.292.787-1.884 1.236-.148.114-.361.174-.52.26-.082.045-.107.151-.194.194-.09.044-.232.025-.325.066-.03.012-.177.098-.26.13a14.91 14.91 0 01-1.04.325 1.445 1.445 0 01-.324.064c-.063.008-.107.059-.13.065-.686.154-1.314.184-1.885.455H7.07c-.256.014-.358-.262-.52 0-.204-.168.163-.31.065-.584-.282-.068-.298.133-.455.192-.013.052 0 .13-.064.132-.027.125-.023.28-.195.26.065-.086.061-.242.195-.26.014-.05.002-.13.064-.131-.024-.283.186-.332.196-.584-.137-.138-.253.077-.39.13-.095.04.006.079 0 0 .033-.378-.153-.54-.195-.844.719.58 1.748.85 3.118.78.83-.1 1.374-.54 1.82-1.04.448-.504.835-1.147.91-2.014.013-.318-.186-.674-.066-.78.062-.054.19-.021.26-.064-.136.483-.053 1.13.325 1.299.448.057.577-.203.65-.52-.03-.23-.282-.238-.455-.324.044-.262-.062-.371-.065-.586.184-.01.27-.12.455-.13-.027.568-.006 1.089.584 1.04.093-.015.11-.107.195-.13.038-.21-.044-.303-.065-.455-.04-.155.082-.47-.065-.52.097-.184.383-.18.65-.195-.07.461-.433 1.592.39 1.494.226-.033.095-.424.13-.65v-.844h.974c-.193.28-.455 1.095-.065 1.365.569-.016.461-.982.39-1.43.654.047 1.106-.107 1.754-.066.114.123-.081.301-.195.392zM5.704 18.637c-.034-.033.047-.082.065-.064.034.033-.047.082-.065.064zm-.13.194c-.033-.033.047-.082.065-.066.034.035-.047.085-.065.066zm-.13.195c-.033-.033.047-.082.065-.064.034.033-.047.082-.065.064zm-.26-.713c.029-.095.058.006.13 0-.016.082-.13.065-.13 0zm-.714.26h-.13c-.054-.184.091-.17.065-.326.075.02.223.283.065.326zm-.195.258c-.004.041-.01.078-.065.066-.27-.062-.014.194 0 0 .003-.04.009-.078.065-.066-.062-.268.195-.012 0 0zm1.04-1.817c.176.276.194.713.324 1.038-.21-.223-.633-.702-.324-1.038zm1.559-.91c.204-.141.401-.291.714-.326.095-.039-.007-.078 0 0a.586.586 0 01-.26.26c.017.234-.195.238-.195.455-.205.013-.083.35-.325.324-.007-.187.036-.424-.065-.518-.233-.017-.238.194-.454.194.048-.276.36-.289.585-.39zm1.17-.131c.008-.16.011-.316-.131-.324.318-.246.79-.336 1.17-.52.4-.142.882-.201 1.233-.39.152-.02.25.01.326.066-.008.922-.557 1.305-.975 1.817-.143-.051-.084-.305-.26-.323-.277-.019-.282.237-.455.323-.074.164-.03.447-.26.455-.322-.035.092-.242 0-.455.127-.11.14-.336.13-.584-.075.01-.115-.014-.13-.065-.331.037-.431.305-.584.52-.123.05-.134.226-.195.324-.062.102-.123.268-.26.26-.079-.332.287-.74.39-1.104zm9.94-3.119c-.478.088-.62-.16-.975-.195-.453.025-1.013-.059-1.365.066-1.55.076-2.888.36-4.093.779-.693.13-1.242.405-1.949.52-.538.285-1.422.223-1.884.584-1.26.365-2.314.934-3.184 1.69-.455.367-.826.82-1.234 1.234-.073.221-.241.428-.325.586-.096.18-.083.248-.13.455-.005.023-.122.16-.13.192-.036.166-.076.361 0 .521.16.221.435.076.715.066.254.287.674.41 1.104.52.43.133.949.176 1.43.26h3.508c.2-.082.462-.102.715-.13.306-.128.546-.32.844-.456.077-.01.185.012.195-.065.112-.025.167.096.195 0 .145-.05.253-.136.454-.13.277-.135.568-.255.91-.325.757-.498 1.686-.826 2.34-1.428a4.092 4.092 0 001.104-.781c.45-.2.744-.553 1.104-.844.162-.443.41-.804.65-1.168.182-.123.25-.357.325-.586.154-.148.211-.396.195-.715-.109-.086-.102-.29-.195-.39-.151-.043-.174-.215-.325-.26zm.714 2.406c-.354.598-.777 1.129-1.3 1.557-.18.295-.482.471-.78.651-.265.21-.454.496-.779.65-.491.439-1.173.689-1.69 1.105a5.671 5.671 0 00-1.169.452c-.254.006-.405.115-.585.197-.234.025-.433.086-.584.195-.918.141-1.739.383-2.599.584-.98.016-2.06-.068-2.858.13-.724-.143-1.655-.08-2.404-.196-.418-.057-.601-.35-.91-.518-.247-.207-.505-.404-.65-.715-.044-.672.126-1.131.195-1.689.39-.543.827-1.037 1.235-1.56.466-.464.989-.874 1.429-1.364.628-.303 1.18-.684 1.82-.975.673-.236 1.298-.52 2.013-.715.295-.18.673-.279 1.04-.39.222-.016.312-.164.585-.129.063-.153.374-.057.455-.194a12.11 12.11 0 002.079-.65c.629-.063 1.258-.129 1.949-.131h.13c-.013-.055.025-.06.065-.066.68-.088 1.525.179 2.338.066.154.107.394.127.585.195.109.129.373.104.454.26.425.053.633.322.846.586.048.274.08.568.129.844-.165.789-.709 1.197-1.04 1.82zM2.846 13.504h.13v.13h-.13v-.13zm.26 1.17c.109-.086.101-.29.195-.39.163-.012.203.1.26.195-.087.28-.328.408-.455.65-.16-.062.09-.25 0-.455zm-.065-6.498c.185-.311.398-.596.52-.973.207-.183.48-.301.454-.715-.425-.19-.66.321-.843.586-.153-.019-.039-.287 0-.326.037-.115-.08-.381.064-.39a2.03 2.03 0 01.13-.78c.044-.54.242-.928.325-1.428.311-.275.67-.5.974-.781.389-.002.561-.217.91-.26.277-.11.602-.179.845-.324.58-.176 1.283-.234 2.08-.195 1.013.201 1.654.77 2.599 1.04.452.39.957.73 1.429 1.104.289.426.676.754.91 1.235.29.402.453.93.714 1.363.165.549.419 1.01.65 1.496.197.493.519.864.714 1.362h-.78c-1.07.1-1.957.381-2.858.65-.428.158-.914.256-1.43.326-.133.17-.515.09-.65.26-.302-.02-.433.129-.714.129-.382.203-.818.352-1.234.52-.352.234-.787.382-1.17.584-.818.33-1.71.586-2.273 1.17-.181-.143-.231-.42-.325-.65.015-.417.366-.5.39-.909-.348-.25-.43.24-.715.26-.05-.168-.065-.369-.195-.455.22-.733.744-1.161.91-1.948-.596-.174-.906.473-1.17.844-.205-.119-.23-.543-.13-.78.18-.167.269-.423.39-.65.224-.47.564-.822.65-1.428-.276-.179-.524.145-.715.26-.02.151-.225.12-.195.324-.114-.019-.201.305-.26.13v-.65zm1.69-6.756c.17-.133.258-.348.454-.455C5.413.935 5.608.87 5.9.9c.215.024.282.195.39.326.236.002.285.19.26.455-.066.043-.068.15-.195.129-.093-.004-.184-.01-.196.065-.244-.049-.31.08-.519.066-.323.13-.449.46-.975.39a.326.326 0 00-.194-.196c-.079-.403.114-.534.26-.715zm15.656 10.266c-.246-.166-.406-.418-.65-.586-.46-.209-.96-.381-1.428-.584-.365-.09-.863-.047-1.17-.195-.263-.084-.358-.336-.65-.389-.244-.449-.562-.824-.714-1.365-.261-.432-.54-.846-.78-1.299-.258-.436-.445-.94-.714-1.364-.155-.193-.236-.46-.39-.65-.083-.264-.316-.377-.39-.65-.597-.55-1.249-1.047-1.819-1.624-.488-.205-.857-.529-1.365-.715a8.628 8.628 0 00-1.429-.714H7.654c-.12-.139-.088-.432-.26-.52-.13-.131-.307-.213-.39-.39C6.607.499 6.374.19 5.77.252c-.121.053-.188.02-.325.065-.617.203-1.071.787-1.43 1.235-.075.336-.177.644-.129 1.103-.18.276-.535.377-.714.651-.277.177-.439.472-.716.65.004.11-.05.166-.13.195-.165.332-.312.682-.52.973.026.285-.185.334-.194.586-.134.125-.126.393-.26.518-.038.136.08.429-.065.455-.032 1.744.035 3.387.26 4.873-.035.523.24 1.07.26 1.43.004.074.055.094.065.13.046.155.072.356.13.52.015.043.106.133.13.194.11.281.133.509.194.779.006.025.123.162.13.197.082.362-.06.619 0 .973-.082.156-.124.353-.324.39a1.149 1.149 0 01-.26.52c-.209.723-.612 1.25-.65 2.143.005.3.09.518.195.715-.044.37.146.504.195.78.297.396.685.702 1.105.974 1.34.35 2.9.478 4.612.455a9.88 9.88 0 012.08-.194c.203-.144.612-.08.779-.26.372.003.55-.185.91-.195.175-.17.564-.13.714-.324.328-.041.57-.166.844-.26.29-.035.586-.064.845-.131.748-.269 1.366-.67 2.08-.974.096-.164.291-.23.454-.326.124-.135.249-.27.455-.326.307-.21.556-.481.91-.647.526-.58 1.088-1.12 1.558-1.756.276-.264.434-.647.65-.973.248-.316.413-.713.65-1.04.187-.614.462-1.14.52-1.884-.144-.246-.25-.529-.39-.779z" fill="#303030"/></svg>