<svg width="20" height="20" viewBox="0 0 20 20" fill="none" xmlns="http://www.w3.org/2000/svg"><path fill-rule="evenodd" clip-rule="evenodd" d="M16.73 13.609a130.98 130.98 0 00-6.727.128c-1.47.053-3.018.027-4.443.126-.75.012-1.372.151-2.03.254-.63.132-1.21.313-1.143 1.143.314.623 1.131.329 1.903.316 3.64-.024 6.82.104 10.345 0h2.159c.802.064 1.122-.357 1.205-1.016-.132-.608-.465-1.015-1.27-.951zm-2.031-4.506c-3.266.141-6.825-.013-10.09.128-.203.07-.421.128-.698.126-.13.166-.638-.045-.762.128-.47.113-.768.427-.762.952.154.543.655.742 1.396.697.633-.066 1.32-.075 2.03-.064 1.955.105 4.227.064 6.22.064.686 0 1.343.026 1.968 0 .734.038 1.284-.11 2.029-.064.384.026.657-.062.89-.19a.573.573 0 00.253-.254c.169-.021.058-.322.19-.38-.03-.582-.37-.855-.697-1.143-.54-.092-1.432-.109-1.967 0zm-11.106-2.6c.766-.026 1.459.021 2.159.062a58.003 58.003 0 015.836-.19c.935-.062 1.97-.062 2.983-.062 1.02 0 2.046.064 2.92 0 .203-.284.53-.444.508-.954-.077-.642-.488-.95-1.143-1.015-.015.049-.054.074-.126.064-2.784-.075-5.148.266-7.87.254-1.393-.039-2.522.185-3.87.19H3.975c-.3.042-.76-.082-.952.063-.742-.064-1.08.276-1.015 1.016.181.538.855.582 1.585.572z" fill="#fff"/></svg>