<svg width="18" height="16" viewBox="0 0 18 16" fill="none" xmlns="http://www.w3.org/2000/svg"><path fill-rule="evenodd" clip-rule="evenodd" d="M12.67 8.868h-.986c-.063.002-.068.063-.148.05-.224.005-.2.258-.393.294-.051-.407-.141-.777-.295-1.083-.243-.2-.627-.259-1.034-.295-.55.058-1.005.21-1.526.295-.425.031-.703-.085-1.133-.05a1.49 1.49 0 00-.541.297c-.026.301.056.712-.05.934H6.22c-.194.064-.12-.142-.246-.147-.17.059-.37.09-.59.098-.17-.077-.213-.28-.296-.442-.225-.045-.28.082-.443.099.011-.21-.004-.391-.148-.444-.478.097-.596.553-1.083.64.016-.115.05-.213.147-.246-.203-.103-.208-.232-.098-.443-.205-.157-.295.142-.492.147.103-.126.132-.327.196-.492-.01-.07-.08-.084-.098-.147-.424-.048-.46.294-.787.345.045-.31-.187-.34-.296-.493.055-.208.157-.37.198-.59-.033-.22-.307-.09-.395-.15.063-.196.25-.482.099-.737-.167-.018-.21.085-.296.147-.109-.021-.123.296-.197.149-.005-.287.216-.342.247-.591.155-.085.281-.404.098-.542-.29.038-.392.264-.59.393.004.06-.072.031 0 0 .1-.276.224-.53.344-.787.124-.214.401-.447.246-.787-.216-.052-.161.165-.345.147-.005-.06-.014-.116-.098-.098-.216-.052-.162.165-.345.147v-.443c1.39-.44 3.392-.002 4.972-.196h.837a61.12 61.12 0 013.397-.148 65.796 65.796 0 014.185-.1c.615-.085 1.133-.003 1.821-.049.213.395.246.97.394 1.429-.07 1.266.262 2.134.246 3.348-1.326.232-2.819.298-4.135.541zm3.69 5.513c-.25.133-.544.009-.836 0-.376-.01-.769.09-1.083 0-.007-.5.29-.693.492-.985.452-.08 1.016-.232 1.527-.098-.001.395.026.813-.1 1.083zM7.255 9.852c.002-.358.241-.481.295-.787.363.034.61-.046.886-.098.625.135 1.036-.16 1.674-.148.03.282.207.416.295.64.033.278-.045.447-.098.64-.668.218-1.417.355-2.216.444-.227-.036-.325-.202-.442-.346-.17-.077-.344-.149-.394-.345zm-2.56-.787c.183.037.027.234-.148.196-.044-.157.162-.067.148-.196zm-2.806 0c.04.026.08.05.148.049.048.268-.194.345-.296.196.015-.116.17-.091.148-.245zm11.864 4.628c0 .28-.034.523-.098.738-.27.103-.474-.017-.788 0-.332.045-.674.08-.985.147h-1.033c-.171-.04-.19.073-.345.05H6.318c-.3.06-.669.053-1.033.05-.254.073-.639.018-.837.147-.297-.036-.612.123-.788.049.025-.322.053-.476-.049-.74-.192-.512-.642-.769-1.083-1.032a2.016 2.016 0 00-.591-.05c.012-.981-.036-1.9-.197-2.707.87-.115 1.952-.017 2.905-.05.17-.039.189.074.345.05.618.004 1.271-.025 1.82.049.113.15.086.44.247.541.114.15.246.28.394.395.665.101 1.276-.036 1.969.049.515-.044.97-.146 1.28-.395.26-.132.34-.446.541-.64.256-.071.61-.045.936-.049 1.146-.181 2.243-.415 3.544-.443.08.015.085-.046.148-.05h.345c.157.336.088.898.147 1.33.03.446.064.89.099 1.33-.151.047-.55-.026-.788-.05-.233.071-.401.066-.64.148-.052.018-.112.084-.148.098-.08.033-.162.012-.246.05-.137.063-.257.219-.443.296-.161.216-.231.523-.443.689zM2.872 15.02c-.25-.003-.408.085-.688.05-.21-.038-.584.09-.641-.099-.064-.213.102-.193.197-.245.057-.09.129-.167.197-.247v-.64c.456.036.726.258.935.541v.64zM1.1 9.311c.021-.071.043.004.099 0-.013.062-.099.05-.1 0zm4.578-7.778c.359-.216 1.06-.09 1.428-.296 1.513.117 2.718-.331 4.135-.148.117.221.215.69.099.985-.274-.018-.495-.095-.69.05-.215.047-.164.361-.246.541a56.463 56.463 0 00-3.002.05c-.162 0-.246.083-.444.048-.118-.03-.356.062-.394-.049-.19.01-.052-.31-.147-.394-.196-.084-.52-.038-.788-.05.023-.238-.051-.575.05-.737zm12.16 6.745a40.082 40.082 0 01-.246-3.348c-.09-.452-.235-.85-.295-1.33-.105-.158-.094-.43-.247-.54-.055-.225-.26-.3-.393-.444-.37-.133-.996-.126-1.428-.05h-1.92c-.281.016-.621.119-.837.05-.145-.349-.089-.895-.099-1.38C12.27.9 12.177.549 11.98.303 11.471.05 10.457.062 9.764.153c-.69.017-1.333.079-2.067.051-.229.082-.615.008-.837.098-.052.111-.31.018-.443.05-.131.032-.308.019-.394.097-.576.08-.996.316-1.23.738-.073.257-.046.612-.05.936-.318-.184-.816-.094-.837.297.028.12.042.252.197.245.012.152.405-.077.345.147-.769.121-1.634-.067-2.511 0-.348.095-.761.125-1.083.247-.325.2-.581.468-.788.788-.05 1.004-.14 2.081.05 2.953v1.133c.19.684.061 1.386.147 2.166.084.097.151.21.295.245.127.07.28.117.296.295-.228 1.244.004 2.666-.05 4.039-.054.374-.173.816.05 1.081.493.213 1.39.021 1.97.147.233-.027.453-.07.737-.047.59-.149 1.21-.268 1.871-.345 3.495.049 6.902.186 10.486.147.424-.085.908-.11 1.182-.344.068-.458.15-.901.197-1.38-.094-.676-.032-1.51-.05-2.264.034-.76-.176-1.52-.05-2.214.051-.049.1-.098.148-.149.123.008.24.01.247-.098.164-.065.306-.152.394-.294.075-.34-.173-.354-.148-.64z" fill="#1A9090"/></svg>