<svg width="20" height="20" viewBox="0 0 20 20" fill="none" xmlns="http://www.w3.org/2000/svg"><path fill-rule="evenodd" clip-rule="evenodd" d="M18.007 10.42c-.096.31-.187.62-.5.802-.093.055-.15.169-.22.26-.103.137-.203.276-.302.415-.551.771-1.324 1.194-2.231 1.377a7.203 7.203 0 01-2.614.041c-.702-.114-1.315.015-1.896.417-.47.326-.898.706-1.338 1.07-.485.402-.992.77-1.54 1.084-.05.029-.103.05-.154.075-.212.1-.292.06-.305-.153a4.298 4.298 0 01-.007-.4c.009-.44.016-.877.036-1.316.007-.17.05-.337.07-.506.038-.292.011-.568-.195-.805a.525.525 0 00-.389-.2 7.51 7.51 0 01-.844-.124c-.207-.04-.253-.107-.253-.312-.002-.134.012-.27-.005-.4-.01-.063-.068-.131-.123-.174-.066-.052-.204-.01-.25.07-.078.13-.148.265-.22.399-.045.083-.085.17-.142.244-.012.016-.117-.006-.135-.038-.036-.059-.066-.142-.053-.208a5.62 5.62 0 01.162-.663c.06-.185.105-.365.075-.56-.02-.133-.204-.22-.31-.135a1.9 1.9 0 00-.321.319c-.104.135-.184.289-.267.438-.05.09-.106.166-.218.127-.187-.064-.28-.194-.235-.337.123-.38.255-.757.381-1.137.048-.144.1-.288.127-.438a.31.31 0 00-.121-.303c-.036-.028-.12-.04-.152-.018a.766.766 0 00-.194.2c-.214.338-.42.682-.63 1.023-.045.073-.115.064-.177-.01-.162-.188-.216-.38-.114-.628.219-.53.438-1.055.786-1.517.02-.03.044-.062.058-.097a.247.247 0 00-.03-.268c-.064-.076-.15-.116-.255-.085a1.17 1.17 0 00-.575.353c-.082.094-.173.18-.262.267l.003.028a.057.057 0 01-.025.006l-.028.062c-.043-.06-.005-.059.028-.062l.01-.022.012-.012c-.002-.03-.007-.06.003-.084.243-.579.483-1.162.948-1.61a.69.69 0 00.077-.084c.062-.079.09-.168.052-.266-.045-.11-.113-.203-.24-.223a.534.534 0 00-.434.093c-.089.071-.164.16-.251.232-.032.025-.06.119-.116.044-.02-.025.018-.101.041-.15a2.8 2.8 0 01.597-.76c.264-.25.527-.5.787-.749.166-.158.318-.324.412-.541.109-.251.314-.424.536-.581.702-.49 1.49-.76 2.324-.9.376-.062.757-.078 1.135-.128.263-.034.523-.09.785-.136.544-.098 1.084-.217 1.63-.285a4.295 4.295 0 011.754.132c.604.18 1.197.389 1.766.654.673.314 1.329.663 1.993.998.672.338 1.146.866 1.48 1.534.493.989.783 2.019.756 3.132-.012.513.006 1.03-.153 1.529zm1.476-1.99c-.095-.74-.253-1.461-.533-2.154a3.541 3.541 0 00-.515-.884c-.545-.693-1.192-1.285-1.876-1.835-.37-.298-.78-.544-1.182-.8a1.932 1.932 0 00-.468-.207c-.836-.26-1.671-.518-2.512-.76-.457-.13-.91-.293-1.392-.297-1.538-.014-1.272-.094-2.635.344-.036.011-.075.016-.11.029a2.967 2.967 0 01-1.063.189 1.991 1.991 0 00-.939.21c-.272.135-.555.25-.82.396-.42.228-.835.461-1.237.714-.451.283-.91.565-1.324.896-1.6 1.28-2.464 2.917-2.37 5.005.048 1.078.406 2.044 1.012 2.926.28.406.641.69 1.1.876.81.328 1.607.695 2.465.884.02.005.04.007.057.013.337.11.43.222.435.577.005.342-.027.686-.012 1.028.02.481-.032.951-.145 1.416-.05.202-.13.398-.174.603a2.29 2.29 0 00-.05.506c.003.164.1.28.253.35a.575.575 0 00.388.052c.333-.078.656-.192.962-.349.87-.444 1.66-1.008 2.415-1.621.34-.276.652-.585.994-.86.281-.225.577-.436.885-.624a1.934 1.934 0 011.085-.303c.171.005.344 0 .581 0 .537.08 1.109-.04 1.668-.257.354-.137.718-.25 1.07-.39.264-.105.542-.203.772-.362a18.27 18.27 0 001.267-.973c.235-.192.43-.43.702-.58.095-.052.168-.154.232-.246.089-.123.16-.259.237-.39.354-.6.522-1.266.675-1.934.087-.385.151-.786.102-1.188z" fill="#fff"/></svg>