<svg width="124" height="124" viewBox="0 0 124 124" fill="none" xmlns="http://www.w3.org/2000/svg">
<path d="M90.49 72.09C90.49 65.76 90.41 59.43 90.33 53.09C90.3415 51.6672 90.2108 50.2468 89.94 48.85C89.6481 47.4557 89.504 46.0345 89.51 44.61C89.51 42.24 89.39 39.86 89.51 37.49C89.539 34.0114 89.1427 30.5424 88.33 27.16C88.2658 26.848 88.12 26.5587 87.9074 26.3215C87.6948 26.0844 87.4231 25.9078 87.12 25.81C86.3964 25.505 85.6313 25.3096 84.85 25.23C82.32 25.1 79.79 25.06 77.26 24.99C76.16 24.99 75.05 24.99 73.94 24.92C73.6221 24.8884 73.3164 24.7812 73.0485 24.6072C72.7806 24.4332 72.5582 24.1976 72.4 23.92C72.15 23.51 71.92 23.1 71.71 22.67C71.4015 22.1138 70.9716 21.6344 70.4522 21.2673C69.9328 20.9003 69.3373 20.6551 68.71 20.55C68.0927 20.4116 67.4627 20.3378 66.83 20.33C65.72 20.33 64.61 20.33 63.51 20.27C63.1885 20.2518 62.8773 20.1499 62.6072 19.9745C62.3371 19.7992 62.1175 19.5563 61.97 19.27C61.7121 18.8721 61.5165 18.4371 61.39 17.98C60.78 15.09 58.93 12.87 57.39 10.51C57.0797 10.0535 56.6644 9.67804 56.1789 9.41529C55.6934 9.15254 55.152 9.01012 54.6 8.99999C52.7821 8.79698 50.9426 9.06788 49.2604 9.78633C47.5781 10.5048 46.1104 11.6463 45 13.1C44.4753 13.7072 44.1291 14.4479 44 15.24C43.85 16.33 43.81 17.45 43.59 18.53C43.4577 19.1447 43.1471 19.7069 42.6972 20.1462C42.2472 20.5854 41.6778 20.8824 41.06 21C40.4425 21.1401 39.813 21.2205 39.18 21.24C38.08 21.32 36.97 21.35 35.86 21.41C35.3846 21.4132 34.9191 21.5463 34.5137 21.7948C34.1084 22.0433 33.7786 22.3978 33.56 22.82C33.3253 23.2372 32.9819 23.583 32.5664 23.8207C32.1508 24.0584 31.6787 24.1791 31.2 24.17C29.3029 24.1669 27.4112 24.3748 25.56 24.79C24.7849 24.9558 23.9923 25.0263 23.2 25C19.72 25.07 16.2 25.12 12.76 25.17C12.2058 25.1413 11.6574 25.2949 11.1987 25.6073C10.74 25.9197 10.3963 26.3737 10.22 26.9C10.1557 27.0436 10.099 27.1905 10.05 27.34C9.34122 29.9301 8.94506 32.5957 8.87005 35.28C8.92005 40.66 8.76005 46 8.76005 51.42C8.76005 67.56 8.78671 83.7 8.84005 99.84C8.84005 103.16 9.20005 106.49 8.07005 109.72C7.74005 112.48 8.63005 113.11 10.87 113.91C11.4721 114.1 12.0987 114.201 12.73 114.21C14.63 114.3 16.53 114.37 18.43 114.38C22.22 114.38 26.02 114.38 29.82 114.38C31.8772 114.26 33.941 114.432 35.95 114.89C36.7216 115.056 37.5122 115.117 38.3 115.07C46.06 115.07 53.8134 115.07 61.56 115.07C62.5109 115.115 63.4634 115.028 64.39 114.81C66.2411 114.383 68.1431 114.218 70.04 114.32C72.57 114.32 75.1 114.24 77.63 114.32C81.4318 114.243 85.1938 113.53 88.76 112.21C89.2204 112.068 89.6213 111.779 89.9013 111.387C90.1813 110.995 90.3249 110.522 90.31 110.04C90.39 107.83 90.47 105.62 90.46 103.4C90.46 95.81 90.36 88.21 90.31 80.62H90.5C90.5 77.79 90.51 74.94 90.49 72.09ZM39.22 25.54C39.2892 25.1452 39.4827 24.7829 39.7724 24.5058C40.062 24.2288 40.4326 24.0515 40.83 24C42.71 23.88 44.6 23.79 46.49 23.68C46.7223 23.6232 46.9361 23.508 47.1111 23.3452C47.2862 23.1824 47.4166 22.9775 47.49 22.75C47.56 22.29 47.67 21.82 47.7 21.36C47.7 20.36 47.7 19.46 47.76 18.52C47.7761 18.0475 47.8432 17.5781 47.96 17.12C48.1159 16.4372 48.4282 15.7999 48.8725 15.2584C49.3168 14.717 49.8808 14.2862 50.52 14C51.9821 13.3699 53.6152 13.2571 55.15 13.68C55.9079 13.878 56.5663 14.3478 57 15C57.8289 16.1672 58.2633 17.5686 58.24 19C58.13 22.72 59.63 22.75 61.97 23.48C63.1981 23.757 64.4513 23.9078 65.71 23.93C66.2608 23.9935 66.7832 24.2085 67.2192 24.5509C67.6552 24.8934 67.9878 25.35 68.18 25.87C68.5246 26.5788 68.6862 27.3627 68.65 28.15C68.6372 28.7864 68.3941 29.3966 67.9656 29.8674C67.5371 30.3381 66.9525 30.6375 66.32 30.71C66.01 30.71 65.69 30.78 65.38 30.79H61.38C59.0949 30.902 56.8059 30.6694 54.59 30.1C53.6566 29.9294 52.7032 29.8957 51.76 30C48.76 30 45.76 30 42.76 30C42.13 30 41.5 29.94 40.87 29.9C40.4783 29.8531 40.1109 29.6854 39.8188 29.4202C39.5267 29.1549 39.3245 28.8054 39.24 28.42C39.1705 27.4615 39.1638 26.4994 39.22 25.54V25.54ZM85.75 104.38C85.7188 104.698 85.5965 105 85.3978 105.25C85.1992 105.5 84.9326 105.688 84.63 105.79C83.009 106.421 81.2891 106.759 79.55 106.79C77.34 106.79 75.12 106.79 72.9 106.79C70.5272 106.675 68.1496 106.877 65.83 107.39C64.7447 107.61 63.6349 107.684 62.53 107.61C53.51 107.777 44.49 107.907 35.47 108C33.8922 108.038 32.3187 108.182 30.76 108.43C28.4065 108.735 26.0318 108.845 23.66 108.76C22.2498 108.608 20.857 108.323 19.5 107.91C19.1081 107.84 18.7355 107.688 18.4063 107.464C18.0772 107.24 17.7991 106.949 17.59 106.61C16.9959 105.683 16.2366 104.873 15.35 104.22C15.1047 104.014 14.9076 103.757 14.7727 103.467C14.6379 103.177 14.5687 102.86 14.57 102.54C14.51 98.42 14.46 94.31 14.46 90.2C14.4975 89.4091 14.6353 88.6262 14.87 87.87C15.1792 86.7898 15.2238 85.6511 15 84.55C14.8766 83.7687 14.9037 82.971 15.08 82.2C15.4151 80.167 15.4151 78.0929 15.08 76.06C14.9251 75.2843 14.9251 74.4857 15.08 73.71C15.36 72.32 15.63 70.92 15.83 69.52C16.03 68.12 16.08 67 16.16 65.74C16.2063 65.1126 16.0134 64.491 15.62 64C14.7803 62.8411 14.3638 61.4291 14.44 60C14.4674 57.946 14.8637 55.9137 15.61 54C15.7257 53.7074 15.7767 53.3932 15.7594 53.079C15.7421 52.7649 15.6571 52.4582 15.51 52.18C14.7247 50.6338 14.3461 48.913 14.41 47.18C14.41 42.59 14.34 38 14.31 33.41C14.3069 32.9344 14.3437 32.4594 14.42 31.99C14.4658 31.5928 14.6209 31.2161 14.8681 30.9018C15.1153 30.5875 15.4448 30.348 15.82 30.21C17.8879 29.4251 20.0624 28.9565 22.27 28.82C23.54 28.82 24.81 28.89 26.07 28.87C27.33 28.85 28.6 28.77 29.86 28.76C30.91 28.76 31.96 27.69 33 28.66C33.77 29.38 33.52 30.43 33.64 31.34C33.7895 32.443 34.2048 33.4931 34.85 34.4C35.0168 34.6744 35.2441 34.9071 35.5144 35.0804C35.7847 35.2537 36.0911 35.363 36.41 35.4C37.99 35.52 39.57 35.56 41.15 35.6C43.2063 35.5065 45.2661 35.6745 47.28 36.1C48.0549 36.2674 48.8481 36.3346 49.64 36.3C55.64 36.3 61.64 36.3 67.64 36.3C68.2723 36.3018 68.904 36.2584 69.53 36.17C69.9231 36.1059 70.2941 35.9454 70.61 35.7028C70.9259 35.4603 71.1767 35.1432 71.34 34.78C71.8376 33.9278 72.151 32.9808 72.26 32C72.34 31.21 72.41 30.42 72.54 29.64C72.6805 29.185 72.9516 28.7813 73.3197 28.479C73.6877 28.1768 74.1364 27.9893 74.61 27.94C75.0738 27.8914 75.5422 27.9116 76 28C77.8297 28.5066 79.7217 28.7524 81.62 28.73C82.2624 28.7163 82.8899 28.9247 83.3964 29.32C83.9029 29.7154 84.2574 30.2735 84.4 30.9C84.616 31.6568 84.7501 32.4346 84.8 33.22C84.87 34.96 84.8 36.71 84.86 38.45C84.86 41.61 84.96 44.78 85 47.94C85.0033 49.3626 85.1372 50.7819 85.4 52.18C85.6197 53.4408 85.7068 54.7211 85.66 56C85.66 63.6 85.66 71.19 85.66 77.7C85.74 86.23 85.81 93.7 85.87 101.11C85.8885 102.201 85.8485 103.293 85.75 104.38V104.38ZM115.89 62.31C115.03 59.71 115.09 57.01 115.03 54.31C114.964 52.588 114.581 50.8929 113.9 49.31C113.776 49.0179 113.585 48.7595 113.341 48.556C113.098 48.3526 112.809 48.21 112.5 48.14C112.04 48.0211 111.572 47.9376 111.1 47.89C110.709 47.8379 110.335 47.6939 110.01 47.4697C109.685 47.2454 109.418 46.9474 109.23 46.6C107.95 44.39 107.33 44.74 107.43 40.9C107.418 40.429 107.362 39.9601 107.26 39.5C107.161 39.2021 106.974 38.9408 106.724 38.7501C106.475 38.5593 106.174 38.4478 105.86 38.43C105.17 38.37 104.34 38.7 104.21 39.11C104.035 39.5421 103.921 39.9965 103.87 40.46C103.89 41.0197 103.79 41.5772 103.576 42.0948C103.362 42.6123 103.04 43.0779 102.63 43.46C102.317 43.7814 102.099 44.1828 102 44.62C101.465 46.6015 101.163 48.6386 101.1 50.69C101.16 56.23 101.1 61.76 101.1 67.29C101.1 72.82 101.1 78.35 101.1 83.89C101.04 85.3097 101.138 86.7316 101.39 88.13C101.765 89.9887 101.923 91.8848 101.86 93.78C101.86 95.04 101.86 96.3 101.86 97.57C101.82 98.2042 101.946 98.838 102.227 99.4082C102.508 99.9783 102.933 100.465 103.46 100.82C103.844 101.097 104.163 101.454 104.394 101.867C104.626 102.28 104.764 102.738 104.8 103.21C104.927 103.819 105.154 104.404 105.47 104.94C105.603 105.137 105.789 105.292 106.007 105.388C106.225 105.483 106.465 105.515 106.7 105.48C107.32 105.42 108.03 104.82 108.02 104.32C108.01 103.82 107.85 103.08 107.85 102.46C107.863 102 107.958 101.546 108.13 101.12C108.274 100.838 108.483 100.595 108.74 100.41C109.286 99.9509 109.716 99.3691 109.994 98.7121C110.272 98.0551 110.391 97.3416 110.34 96.63C110.29 92.04 110.29 87.46 110.24 82.88C110.257 82.088 110.166 81.2975 109.97 80.53C109.587 78.9942 109.425 77.4115 109.49 75.83C109.43 68.7233 109.387 61.6133 109.36 54.5C109.373 53.8693 109.437 53.2406 109.55 52.62C109.55 52.48 109.7 52.35 109.8 52.24C109.9 52.13 110.03 51.92 110.12 51.93C110.411 51.9455 110.695 52.0276 110.95 52.17C111.132 52.3248 111.269 52.5244 111.35 52.7489C111.431 52.9734 111.451 53.2151 111.41 53.45C111.48 58.19 111.52 62.93 111.59 67.67C111.583 68.7762 111.647 69.8818 111.78 70.98C111.935 71.5885 112.185 72.1689 112.52 72.7C112.716 72.9441 112.976 73.13 113.27 73.2375C113.564 73.345 113.883 73.3701 114.19 73.31C114.575 73.2307 114.93 73.0439 115.213 72.7714C115.496 72.4988 115.696 72.1516 115.79 71.77C115.895 70.9874 115.955 70.1995 115.97 69.41C116 67 115.93 64.67 115.89 62.31V62.31ZM106.14 94.55C105.74 94.23 105.8 93.74 105.79 93.29C105.77 93.144 105.77 92.996 105.79 92.85C105.79 92.71 105.88 92.53 105.99 92.47C106.1 92.41 106.39 92.47 106.45 92.9C106.45 93.05 106.45 93.2 106.45 93.35C106.57 94.12 106.34 94.71 106.14 94.55ZM75.14 74.77C74.359 74.6741 73.5672 74.7147 72.8 74.89C71.2631 75.2673 69.6817 75.4321 68.1 75.38C64.1 75.43 60.2 75.48 56.25 75.58C54.987 75.5663 53.7262 75.6904 52.49 75.95C50.98 76.34 49.74 75.27 48.31 75.43C47.6772 75.465 47.0429 75.465 46.41 75.43C44.67 75.43 42.93 75.51 41.19 75.53C38.8186 75.4231 36.4436 75.6384 34.13 76.17C33.0441 76.3633 31.9431 76.4604 30.84 76.46C30.2076 76.4819 29.5814 76.593 28.98 76.79C28.417 77.0396 27.8971 77.3771 27.44 77.79C27.3834 77.8438 27.3396 77.9096 27.3119 77.9827C27.2842 78.0557 27.2733 78.134 27.28 78.2118C27.2868 78.2897 27.3109 78.365 27.3508 78.4322C27.3906 78.4994 27.445 78.5567 27.51 78.6C29.1049 79.6574 31.0517 80.0453 32.93 79.68C33.6775 79.4485 34.4578 79.3404 35.24 79.36C37.2609 79.634 39.2643 80.0246 41.24 80.53C42.4641 80.9134 43.776 80.9134 45 80.53C45.7358 80.2498 46.5131 80.0944 47.3 80.07C49.5112 80.1665 51.7234 79.9031 53.85 79.29C54.6257 79.129 55.4189 79.0685 56.21 79.11C57.63 79.11 59.06 79.11 60.48 79C61.9 78.89 63.3 78.57 64.71 78.58C65.8477 78.6312 66.9805 78.7615 68.1 78.97C70.9061 79.2309 73.7344 78.8337 76.36 77.81C76.6226 77.6353 76.8206 77.3793 76.9236 77.0812C77.0265 76.7831 77.0288 76.4595 76.93 76.16C76.789 75.7838 76.5458 75.4545 76.2278 75.2089C75.9098 74.9634 75.5297 74.8114 75.13 74.77H75.14ZM69.42 90.9C66.26 90.9 63.1 90.9 59.94 90.9C59.4667 90.9055 58.996 90.9727 58.54 91.1C56.0755 91.7053 53.5293 91.9079 51 91.7C48.94 91.7 46.89 91.7 44.84 91.7C43.41 91.7 41.99 91.7 40.57 91.7C36.3086 91.6412 32.0517 91.9996 27.86 92.77C27.7201 92.822 27.5936 92.9047 27.4897 93.012C27.3859 93.1192 27.3074 93.2484 27.26 93.39C27.2105 93.6923 27.2747 94.0022 27.44 94.26C27.5982 94.5301 27.8406 94.7409 28.13 94.86C30.2163 95.595 32.4001 96.0163 34.61 96.11C37.29 96.11 39.98 96.18 42.66 96.11C44.7149 96.2137 46.7732 95.9943 48.76 95.46C49.5313 95.2863 50.3195 95.1991 51.11 95.2C52.0556 95.1786 52.9967 95.0648 53.92 94.86C55.9113 94.3486 57.9652 94.123 60.02 94.19C62.07 94.19 64.13 94.19 66.18 94.19C67.7643 94.1944 69.3258 93.8134 70.73 93.08C70.8331 93.016 70.9221 92.9319 70.9918 92.8327C71.0615 92.7334 71.1104 92.6211 71.1357 92.5025C71.1609 92.3839 71.1619 92.2614 71.1386 92.1424C71.1153 92.0234 71.0681 91.9103 71 91.81C70.8449 91.5285 70.6156 91.2949 70.3371 91.1344C70.0585 90.974 69.7414 90.8929 69.42 90.9V90.9ZM29.69 64.7C30.32 64.7 30.95 64.8 31.58 64.83C33.58 64.9 35.68 64.71 37.67 65.42C38.1223 65.4969 38.5874 65.4305 39 65.23C39.4253 65.0231 39.8921 64.9156 40.365 64.9156C40.838 64.9156 41.3048 65.0231 41.73 65.23C42.2878 65.5323 42.9158 65.6813 43.5499 65.662C44.184 65.6427 44.8017 65.4557 45.34 65.12C46.3044 64.5598 47.4517 64.4051 48.53 64.69C49.6011 65.0095 50.7459 64.9814 51.8 64.61C53.5912 63.9928 55.4964 63.7777 57.38 63.98C59.58 64.06 61.79 63.98 64 63.98C66.68 63.98 69.36 63.98 72 63.98C72.7821 63.9333 73.5604 63.8364 74.33 63.69C74.63 63.69 75.04 62.94 75.02 62.54C75 62.14 74.49 61.54 74.2 61.48C72.94 61.41 71.69 61.28 70.43 61.29C67.43 61.29 64.43 61.07 61.5 61.95C60.8807 62.0584 60.2439 62.0068 59.65 61.8C58.8922 61.5772 58.1585 61.279 57.46 60.91C56.4654 60.4267 55.3645 60.203 54.26 60.26L43.85 60.41C42.7512 60.4698 41.6583 60.6102 40.58 60.83C37.32 61.31 34.1 62.13 30.77 62.17C30.2987 62.198 29.8304 62.2649 29.37 62.37C29.0616 62.4152 28.778 62.5651 28.5668 62.7945C28.3556 63.0238 28.2297 63.3188 28.21 63.63C28.3181 63.938 28.5178 64.2056 28.7824 64.3969C29.0469 64.5882 29.3637 64.6939 29.69 64.7V64.7ZM79.1 50C77.7137 49.6824 76.2842 49.5979 74.87 49.75L56.36 49.9C54.6211 49.9926 52.8792 49.7863 51.21 49.29C50.4454 49.0773 49.6534 48.9796 48.86 49C47.44 49 46.01 49 44.59 49H42.22C40.9556 48.9123 39.6855 48.9559 38.43 49.13C36.43 49.61 34.43 49.8 32.36 50.13C31.4268 50.3143 30.52 50.6133 29.66 51.02C29.5387 51.1013 29.4396 51.2115 29.3715 51.3407C29.3034 51.4699 29.2686 51.614 29.27 51.76C29.3176 51.8987 29.3952 52.0253 29.4971 52.1307C29.5991 52.2361 29.723 52.3178 29.86 52.37C30.4706 52.5272 31.0996 52.6012 31.73 52.59C39.01 52.27 46.29 52.7 53.56 52.59C55.81 52.59 57.96 53.23 60.15 53.2C62.34 53.17 64.5 52.46 66.74 52.51C69.9 52.57 73.07 52.51 76.23 52.43C77.0171 52.4031 77.8002 52.306 78.57 52.14C78.8055 52.087 79.0225 51.9719 79.1984 51.8066C79.3743 51.6412 79.5026 51.4318 79.57 51.2C79.6458 50.9767 79.6401 50.7338 79.5541 50.5142C79.4681 50.2946 79.3073 50.1125 79.1 50ZM52.39 20.72C52.8 20.83 53.27 20.36 53.27 19.84C53.2142 19.5501 53.1236 19.2681 53 19C52.9604 18.9338 52.9068 18.877 52.8429 18.8336C52.779 18.7903 52.7065 18.7614 52.6303 18.749C52.5541 18.7366 52.4761 18.741 52.4018 18.7619C52.3275 18.7828 52.2586 18.8197 52.2 18.87C51.9693 19.0712 51.8171 19.3475 51.77 19.65C51.7243 19.8733 51.7621 20.1057 51.8764 20.303C51.9907 20.5002 52.1735 20.6486 52.39 20.72V20.72Z" fill="black"/>
</svg>
