<svg width="14" height="14" viewBox="0 0 14 14" fill="none" xmlns="http://www.w3.org/2000/svg">
<path fill-rule="evenodd" clip-rule="evenodd" d="M3.969 0H10.038C12.411 0 14 1.666 14 4.144V9.8637C14 12.3347 12.411 14 10.038 14H3.969C1.596 14 0 12.3347 0 9.8637V4.144C0 1.666 1.596 0 3.969 0ZM9.10689 9.09941C9.34489 8.86211 9.34489 8.47711 9.10689 8.23911L7.86089 6.99311L9.10689 5.74641C9.34489 5.50911 9.34489 5.11711 9.10689 4.87911C8.86889 4.64041 8.48389 4.64041 8.23889 4.87911L6.99989 6.12441L5.75389 4.87911C5.50889 4.64041 5.12389 4.64041 4.88589 4.87911C4.64789 5.11711 4.64789 5.50911 4.88589 5.74641L6.13189 6.99311L4.88589 8.23211C4.64789 8.47711 4.64789 8.86211 4.88589 9.09941C5.00489 9.21841 5.16589 9.28211 5.31989 9.28211C5.48089 9.28211 5.63489 9.21841 5.75389 9.09941L6.99989 7.86111L8.24589 9.09941C8.36489 9.22611 8.51889 9.28211 8.67289 9.28211C8.83389 9.28211 8.98789 9.21841 9.10689 9.09941Z" fill="white"/>
</svg>
