<svg width="18" height="18" viewBox="0 0 18 18" fill="none" xmlns="http://www.w3.org/2000/svg"><path fill-rule="evenodd" clip-rule="evenodd" d="M3.517 8.74c-.13-.058-.087-.292-.094-.475.13.053.144.392.094.475zm.333-1.234c-.434-.076-.831-.026-1.091.189-.081.315-.182.61-.19.997.016.11.075.179.047.333.108.098.136.275.237.38.103.102.249.163.381.236.575.007.89-.248 1.092-.616-.022-.164.018-.267.046-.38a1.03 1.03 0 01-.046-.427c-.11-.08-.063-.318-.19-.38-.057-.148-.193-.22-.286-.332zm12.007 1.613c-.136.197-.26.404-.427.57-.058.162-.101.341-.189.474-.056.767-.137 1.509-.333 2.136a7.263 7.263 0 01-.853.617c-.051.203-.162.344-.142.617-.012.186.1.246.142.38-.091.575-.098 1.23-.381 1.613-.285.268-.768.338-1.234.427-.194-.122-.493-.139-.807-.142-.18.033.05-.247-.142-.285-.34-.04-.3.302-.568.333-.26.021-.391-.085-.666-.048 0-.302.27-.331.237-.664-.017-.062-.083-.075-.095-.143-.475.015-.652.328-.9.57-.143-.096-.448-.027-.665-.048.018-.205.168-.358.047-.57-.578-.054-.613.43-.996.57.035-.253.292-.644 0-.807-.262-.038-.204.242-.38.285-.122.1-.132.312-.332.333-.104-.086-.196-.185-.333-.238.154-.305.361-.557.522-.853.12-.254.444-.615.237-.903-.413-.018-.585.205-.759.427a.973.973 0 00-.285.285c-.106.083-.108.27-.283.285-.121-.427.315-.604.38-.997.145-.09.132-.341.284-.427.03-.196.199-.325.094-.522-.432-.037-.5.291-.758.427-.038.153-.174.207-.239.333-.107.083-.109.27-.285.283v-.9c.154-.37.342-.705.57-.998.146-.36.48-.531.522-.995-.167-.083-.393.129-.568.189-.174.11-.29.28-.524.332.077-.177.04-.467.048-.712.155-.16.279-.354.428-.521.058-.1.13-.186.189-.285.134-.009.202-.083.19-.237-.048-.111-.219-.1-.38-.096-.1.058-.137.179-.284.19.058-.447.159-.853.237-1.282a13.888 13.888 0 002.562-1.85c.048-.19.197-.278.239-.475a9.63 9.63 0 001.328-1.044 7.132 7.132 0 001.234-1.14c.055-.04.128-.06.237-.046-.035-.146.048-.174.048-.285.331-.255.505-.666.853-.902-.02-.163.02-.265.048-.38.085-.041.12-.132.285-.094.055-.225-.11-.39 0-.522.078-.013.081.045.142.047.192.268.293.624.333 1.045.028.16.13.248.143.427-.121.782-.534 1.269-.903 1.802-.15.31-.341.578-.568.807-.131.313-.447.44-.618.712-.214.088-.384.219-.57.333-.195.09-.406.164-.427.427-.041.31.225.312.38.426.365.035.609-.055.854-.14.633.094 1.43.026 2.137.046.33.048.674.084 1.043.094.071.071.209.078.331.096.06.068.164.09.285.094.083.14.226.22.333.333-.013.398.037.86-.048 1.186zM5.084 8.17c-.084.09-.104.244-.19.331-.131.71-.239 1.44-.332 2.185.002.446-.031.635 0 1.044-.124.66.057 1.345.047 2.04.108.242.177.52.333.713.04.387.137.715.19 1.091-.513.035-1.209.106-1.709 0 .008-.15.11-.35 0-.475-.341-.073-.348.188-.616.19.073-.291.258-.469.331-.758.124-.188.331-.51.237-.76-.194-.082-.439.148-.568.284-.214.053-.274.469-.476.38v-.713c.101-.119.115-.328.237-.425.007-.2.184-.229.19-.428.118-.104.287-.157.334-.333.006-.117-.075-.147-.096-.236-.015-.112-.207-.047-.237-.143-.146-.035-.173.048-.285.048-.068-.027-.116.184-.143.046.226-1.672-.1-3.897.57-5.124.038-.01.048-.048.095-.048.038-.009.048-.048.096-.048.208.077.414.005.568.048a.921.921 0 01.333.142c.512-.021.748.232 1.234.237-.081.205-.101.469-.143.712zm-2.847.143c.013-.161-.036-.385.046-.476-.01-.343.105-.56.19-.806.047.001.037.058.049.096-.104.528-.234 1.032-.285 1.613-.096-.053-.055-.368 0-.427zm14.665-.807c-.195-.311-.488-.525-.712-.807-.374-.099-.687-.261-1.092-.333-.435-.054-.915-.064-1.33-.142h-.853c.083-.154.237-.237.285-.427.17-.083.17-.337.332-.426-.027-.204.034-.315.048-.475.159-.158.23-.403.379-.57.093-.239.331-.333.38-.616.004-.615-.036-1.27.095-1.758-.097-.187-.2-.37-.19-.664-.29-.152-.428-.459-.759-.57h-.57c-.553.207-.751.767-1.328.951-.62 1.216-1.68 1.991-2.658 2.847-.458.46-.918.918-1.425 1.329-.215.243-.48.435-.758.618-.275.198-.524.424-.855.568-.002-.313-.197-.436-.331-.617-.562-.152-1.067-.359-1.758-.379-.424.002-.773.08-1.234.047-.071.07-.207.076-.331.096a.472.472 0 01-.285.14 1.298 1.298 0 01-.333.333c-.397.837-.376 2.092-.57 3.132a182.867 182.867 0 00-.046 5.743c.076.113.091.288.142.427.106.1.136.277.237.38.289.124.603.22.997.238.544.295 1.443.232 2.278.237.21-.06.354-.184.57-.237.304.035.343-.195.521-.285.043.24.227.341.381.474.178-.245.476.094.711.096.207.124.565.1.807.189.934.08 1.833.194 2.8.237.41-.08.945-.037 1.423-.047.674-.102 1.284-.268 1.899-.427.1-.075.193-.156.332-.19.38-.385.73-.853.807-1.566.046-.43-.033-.9 0-1.424.252-.24.56-.42.807-.664.041-.164.149-.264.238-.38a33.74 33.74 0 00.332-2.277c.313-.37.594-.767.712-1.33.003-.525.023-1.067-.095-1.471z" fill="#303030"/></svg>