<svg width="18" height="16" viewBox="0 0 18 16" fill="none" xmlns="http://www.w3.org/2000/svg"><path d="M10.022 7.808c-.056-.025-.092-.081-.069-.14.064-.16.136-.316.206-.472.005-.01.028-.024.031-.022.018.013.046.031.046.047-.003.1-.012.199-.013.224.025.115.038.157.043.2.011.109-.136.21-.244.163zm-.95 1.38c-.023-.004-.055-.058-.054-.088.001-.054.078-.106.113-.08.019.01.025.044.036.067-.006.059-.027.113-.095.101zm-.171-2.94c-.003.012-.016.023-.024.032-.016-.01-.046-.024-.047-.038-.003-.068 0-.135.003-.203 0-.011.014-.02.022-.031.015.013.04.024.045.04.01.038.01.08.013.11-.005.037-.006.066-.012.09zM8.78 7.45l-.29-.045c-.12-.02-.185-.068-.147-.104a.276.276 0 01.138-.07c.083-.011.168-.007.252-.004a.25.25 0 01.082.016c.055.024.089.065.084.128-.005.057-.057.095-.12.08zm-.63-1.678c-.03-.045-.041-.106-.052-.16-.018-.09.018-.158.086-.17a.16.16 0 01.177.086c.02.036.026.081.039.122-.013.043-.016.09-.04.12a.15.15 0 01-.105.058.14.14 0 01-.106-.056zM6.961 7.634a.103.103 0 01-.06.052c-.02.004-.059-.011-.067-.027a.992.992 0 01-.073-.194c-.016-.066.056-.147.12-.14.06.007.1.043.112.106l.008.068c-.009.029-.02.083-.04.135zm3.815-1.475c-.296.056-.591.12-.887.176-.175.033-.277-.05-.28-.235-.001-.171.019-.343.03-.514.01-.158.031-.316.031-.474 0-.266-.124-.386-.4-.395-.159-.007-.318-.002-.476-.002-.33.02-.66.007-.987.088-.274.065-.428.216-.453.492l-.08.9c-.01.097-.056.164-.154.18-.155.027-.311.068-.467.07-.226 0-.422.077-.614.18-.08.046-.136.107-.15.2-.035.225-.048.46-.107.678-.087.334-.048.654.006.984.032.19.126.277.297.316.056.013.112.04.167.038.33-.002.662.056.987-.043l.043-.007c.075-.009.144.03.16.11.06.296.123.59.164.89a.37.37 0 00.331.343c.168.027.351.04.515.004.337-.074.671-.149 1.02-.16.182-.007.305-.174.298-.36a.702.702 0 00-.037-.21c-.066-.183-.047-.373-.04-.558.005-.138.07-.212.203-.241.252-.054.504-.12.767-.097.115.009.231.006.345-.003.227-.022.363-.158.4-.385.026-.156.06-.314.066-.47.011-.331.028-.663.003-.992-.027-.37-.334-.576-.7-.503zm6.181-.007c-.11.268-.223.532-.33.799-.16.392-.413.724-.676 1.049a.994.994 0 01-.156.148 58.21 58.21 0 01-2.518 1.965c-.174.129-.338.271-.504.409-.333.275-.676.539-.993.83-.264.243-.528.487-.749.776a8.117 8.117 0 01-.68.783c-.374.381-.714.79-1.034 1.216a.477.477 0 01-.123.12c-.031.017-.094.024-.117.006-.125-.097-.247-.2-.27-.374a11.542 11.542 0 00-.193-1.059c-.013-.051-.06-.097-.097-.14-.049-.058-.153-.042-.176.032-.041.138-.075.278-.11.418-.013.054-.01.115-.035.164-.012.027-.082.054-.102.04-.211-.13-.4-.295-.46-.547-.082-.35-.141-.704-.21-1.056-.032-.17-.052-.343-.094-.508-.038-.149-.246-.187-.352-.076a.442.442 0 00-.128.313c.002.2.012.402.024.602.004.057.029.13-.038.143-.043.01-.112-.025-.148-.061-.473-.47-.423-.305-.577-.97-.055-.24-.104-.479-.16-.718a2.133 2.133 0 00-.077-.246.181.181 0 00-.202-.126c-.093.014-.17.059-.191.151a1.63 1.63 0 00-.033.298c-.006.115.002.232-.005.347-.003.039-.024.09-.054.109-.028.015-.087.006-.118-.014-.21-.142-.366-.327-.402-.589-.05-.37-.193-.724-.21-1.1a.345.345 0 00-.14-.258.18.18 0 00-.234.01.386.386 0 00-.129.308c0 .201 0 .404-.007.605 0 .034-.036.086-.067.095-.032.013-.085-.005-.118-.027-.145-.09-.213-.235-.24-.395-.042-.24-.074-.483-.103-.724-.038-.314-.104-.625-.103-.943a.423.423 0 00-.068-.203c-.115-.19-.303-.17-.42-.003a.562.562 0 00-.088.33c-.002.26-.001.519-.003.778 0 .056-.008.115-.015.172-.007.054-.09.083-.136.056a.394.394 0 01-.185-.23c-.037-.14-.082-.28-.098-.42-.043-.386-.073-.774-.108-1.16.035-.275-.006-.55.078-.818.034-.106-.015-.197-.095-.269-.084-.076-.211-.074-.26.02-.051.102-.106.21-.119.32-.037.314-.125.621-.106.942a.178.178 0 01-.038.12c-.021.022-.091.033-.106.02-.057-.061-.122-.13-.148-.206a11.48 11.48 0 01-.279-.907 3.513 3.513 0 01-.118-1.11c.054-.758.225-1.48.67-2.111.181-.26.388-.501.591-.742.159-.19.351-.341.582-.44.079-.034.16-.07.229-.12.396-.293.856-.4 1.329-.474.27-.042.538-.085.815-.079a4.493 4.493 0 012.781 1.031c.108.086.125.152.052.26-.14.203-.26.417-.32.656-.026.11-.05.228-.041.339a.47.47 0 00.11.225c.07.09.21.077.247-.034.076-.225.253-.38.375-.575.145-.232.33-.437.475-.67.316-.503.748-.87 1.27-1.141.447-.23.9-.452 1.396-.571.2-.047.402-.056.6-.016.52.104 1.043.212 1.547.388.149.052.305.086.458.129.28.076.54.19.777.363.528.383 1.003.817 1.385 1.351.15.21.3.42.41.657.061.133.095.268.1.415.01.302-.022.607.063.904-.063.339-.015.693-.15 1.018zm1.035-.819a3.733 3.733 0 00-.208-1.448c-.262-.763-.72-1.406-1.275-1.981-.597-.618-1.308-1.076-2.085-1.44-.558-.261-1.147-.37-1.753-.405a4.296 4.296 0 00-.945.065 3.704 3.704 0 00-1.481.555 3.99 3.99 0 00-.664.55 7.06 7.06 0 01-.345.328c-.07.063-.152.047-.228-.025-.073-.068-.136-.156-.222-.199-.309-.153-.616-.318-.94-.433-.57-.198-1.15-.36-1.75-.456a5.166 5.166 0 00-1.42-.022 6.04 6.04 0 00-1.093.246 4.72 4.72 0 00-1.516.803c-.261.205-.488.44-.705.692-.219.255-.377.544-.554.822-.262.417-.48.852-.58 1.34-.062.295-.153.586-.194.884-.048.356-.048.717.009 1.076.08.5.252.977.437 1.444.17.428.39.835.713 1.175.098.104.169.233.255.35.076.101.147.212.236.304.132.136.249.28.318.458a.567.567 0 00.29.303c.191.099.39.196.556.329.504.406 1.04.77 1.509 1.22.206.199.445.355.696.499.448.26.891.532 1.244.925.454.505.979.932 1.506 1.356.056.045.115.092.154.151.18.26.42.474.571.756.055.101.124.194.191.289.084.117.17.135.293.05.13-.089.249-.184.353-.312.435-.535.865-1.076 1.35-1.57.06-.061.118-.127.168-.197.288-.401.667-.715 1.03-1.042.128-.115.262-.223.387-.343.156-.149.3-.311.46-.455.44-.393.896-.77 1.327-1.171.423-.393.865-.758 1.332-1.097.162-.117.311-.261.435-.417.215-.273.443-.528.726-.733.093-.066.173-.154.244-.242.18-.225.343-.462.466-.726.06-.129.13-.257.216-.37.15-.2.24-.424.318-.657a3.14 3.14 0 00.168-1.229z" fill="#EE3851"/></svg>