<svg width="20" height="20" viewBox="0 0 20 20" fill="none" xmlns="http://www.w3.org/2000/svg"><path fill-rule="evenodd" clip-rule="evenodd" d="M15.042 9.679c-.457-.006-.954.027-1.337-.05H12.06c-.372-.058-.78-.078-1.131-.155-2.453-.036-4.747.084-7.198.05-.132.004-.063-.038-.052-.103.046-.021.092-.045.103-.102a.47.47 0 00.206-.205c.458-.382.826-.854 1.285-1.235.748-.94 1.707-1.66 2.468-2.623.243-.306.444-.637.72-.923.471-.643 1.081-1.147 1.645-1.698a.262.262 0 01.154-.155c.044-.009.048.02.052.053.255.104.409.31.617.462.178.164.301.384.513.515.344.358.756.65 1.03 1.078.699.706 1.341 1.47 2.004 2.213.244.509.495 1.011.823 1.438.1.277.303.452.463.67.112.262.327.426.514.615-.138.103-.454.027-.618.104-.204.018-.492-.048-.616.05zm-.617 7.866c-.219-.03-.34.038-.514.052-.053-.335.239-.455.103-.72-.478-.16-.797.26-.823.72h-.875c.103-.48.492-.673.515-1.235-.43-.115-.625.387-.926.565-.15-.043.068-.127 0-.255v-.978c.049-.894.198-1.686.206-2.622-.01-.042-.051-.05-.05-.103-.035-.155-.235-.144-.31-.257-.752-.033-1.645.201-2.21-.103-.62.033-1.37-.065-1.903.052-.183.056-.135.344-.206.513-.045.195-.044.436-.103.618-.03.432-.083.842-.154 1.235-.1.84-.243 1.641-.256 2.57-.343-.077-.668-.115-1.03-.052.102-.378.397-.564.464-.976-.03-.108-.108-.167-.154-.257-.518-.02-.642.35-.875.615-.112.146-.191.323-.308.463.008.13-.081.16-.103.257-.09.03-.302-.06-.308.053-.173-.143.132-.242.154-.36.079-.11.186-.191.257-.308.179-.198.395-.36.36-.773-.165-.338-.567-.115-.823 0 .124-.201.277-.374.36-.617.126-.198.338-.313.309-.668-.023-.15-.109-.234-.257-.257-.533.05-.654.511-.926.822-.129-.082.091-.246.103-.36.076-.111.1-.277.205-.358.035-.327.268-.453.206-.874-.068-.135-.228-.1-.36-.053.178-.42.575-.623.669-1.13 0-.187-.146-.23-.206-.36-.277-.036-.44.041-.617.103V10.86c.31.015.693-.041.926.05 1.23-.001 2.499.033 3.598-.1.762.066 1.486-.15 2.16 0a27.64 27.64 0 012.52.1h1.027c.022 1.694-.08 3.51.155 4.989v1.645zm-3.702.052c-.876.032-1.744.072-2.674.05.032-1.384.331-2.74.155-4.163.128.025.21.097.308.153.821.036 1.574.14 2.468.104-.197 1.142-.329 2.614-.257 3.856zM14.476 3.56a5.24 5.24 0 011.131.103c.1 1.076-.217 1.737-.308 2.623-.259-.033-.372-.213-.463-.412-.165-.125-.325-.258-.411-.463.029-.605.074-1.193.051-1.85zm2.57 14.037c-.435-.027-1.014.09-1.233-.155.057-2.068.148-4.505-.103-6.426 1.02-.016 1.688.013 2.57.103-.101-.26.013-.377.053-.618-.09-.304-.271-.518-.412-.77-.085-.31-.356-.432-.514-.67-.329-.459-.755-.82-1.08-1.285.209-.22.056-.8.102-1.182V5.256c.09-.338.04-.817.052-1.233.031-.477-.013-.878-.257-1.08-.359-.137-.872-.12-1.337-.153-.133-.139-.49.027-.565-.052-.246.01-.386.128-.565.205-.16.373-.19.873-.258 1.337-.164-.144-.364-.253-.411-.514a1.61 1.61 0 01-.463-.513c-.19-.171-.427-.294-.565-.515-.244-.133-.331-.423-.618-.515-.141-.218-.383-.337-.565-.513-.236-.142-.337-.418-.668-.463-.022-.115-.273-.04-.309 0-.091-.046-.13-.144-.308-.102-.065.02-.106.065-.103.153-.168.14-.302.315-.412.515-.396.34-.735.738-1.181 1.027-.228.494-.579.863-.926 1.235-.312.425-.673.801-.977 1.233-.793.683-1.35 1.599-2.108 2.313-.289.072-.403.319-.669.413-.371.417-.769.808-1.182 1.182-.117.063-.2.171-.309.258-.122.097-.262.147-.36.257-.016.018.01.08 0 .103-.007.016-.09.032-.102.05-.102.147-.185.274-.206.412-.016.104.011.186 0 .308.12.097.22.212.411.103.257-.035.398.048.617.052.19.032.512-.067.617.052.19.032.512-.067.617.05-.098 1.17-.107 2.43-.308 3.496.095.983 0 1.874.051 2.93-.032.14.065.409-.051.465H1.828c-.174.012-.295.08-.514.05a.896.896 0 00-.309.308c-.05.43.284.472.412.72 1.51.068 3.048.047 4.422-.153h1.234c1.836-.144 3.893.142 5.655-.052.28-.04.399.08.669.052.25.043.264-.148.514-.103h1.44c.196.043.412.067.667.05.121.138.553-.037.67.103.519-.04.89.069 1.387.053.574.075.879-.116.925-.566-.073-.783-1.24-.475-1.953-.617z" fill="#fff"/></svg>