<svg width="22" height="22" viewBox="0 0 22 22" fill="none" xmlns="http://www.w3.org/2000/svg"><path fill-rule="evenodd" clip-rule="evenodd" d="M12.209 12.138c-.178-.18-.36-.307-.61-.333-.13-.013-.26-.018-.3-.02-.983-.026-1.685.35-2.235 1.03a.782.782 0 00-.149.356 2.53 2.53 0 00-.02.584c.043.509.27.909.736 1.15.097.049.194.101.297.134.158.047.182.155.177.298-.02.522-.052 1.044-.046 1.565.008.706.021.706.68 1.022.06.028.116.06.175.086a.496.496 0 00.597-.117c.102-.108.201-.233.253-.372.093-.242.15-.495.143-.762-.01-.37.005-.74-.01-1.11-.014-.338.022-.64.308-.879.111-.09.17-.249.245-.38.178-.308.286-.637.222-.997-.078-.446-.112-.9-.463-1.255zm4.923.281c-.002.414-.03.825-.072 1.239-.05.493-.035 1-.008 1.5.023.415-.034.82-.083 1.227-.021.184-.127.372-.235.53a17.46 17.46 0 01-.89 1.21c-.405.494-.93.844-1.49 1.145-.307.165-.624.312-.921.492a1.574 1.574 0 01-.803.235c-.806.013-1.612.03-2.417.018-.232-.005-.466-.096-.694-.163-.186-.054-.363-.143-.548-.2-.121-.038-.2-.083-.148-.224.059-.158.002-.303-.054-.441a.375.375 0 00-.595-.141c-.114.1-.211.22-.326.32-.195.167-.59.104-.755-.123-.027-.04-.017-.136.014-.173.18-.219.374-.425.561-.637.072-.082.147-.162.211-.249.095-.13.139-.275.05-.426a.476.476 0 00-.508-.206.95.95 0 00-.457.238c-.158.15-.315.301-.474.45-.124.115-.204.098-.297-.066-.032-.057-.058-.117-.09-.174-.06-.108-.057-.207.033-.296.172-.167.353-.325.513-.502.13-.143.248-.301.343-.47.109-.19.082-.368-.04-.478-.15-.137-.327-.124-.49-.048-.195.093-.378.212-.566.322-.074.046-.143.1-.217.146-.065.036-.16-.04-.18-.13-.04-.17.034-.293.146-.407.423-.44.848-.877 1.345-1.236a1.32 1.32 0 00.279-.264c.113-.152.11-.373.009-.487-.123-.143-.28-.21-.467-.165a1.842 1.842 0 00-.848.466c-.188.18-.386.348-.585.517-.017.013-.082-.004-.103-.026-.025-.028-.044-.08-.036-.115a.41.41 0 01.074-.175c.08-.104.173-.197.263-.29.421-.442.845-.881 1.263-1.325.12-.125.236-.26.324-.407a.61.61 0 00.056-.312c-.003-.155-.205-.255-.35-.164-.312.197-.612.411-.92.617-.14.095-.23.27-.43.266 0 .093-.05.13-.138.123v.003H5.38c-.003.117-.085.17-.176.216-.007.005-.03-.015-.038-.028-.01-.013-.02-.037-.015-.05.036-.11.115-.154.229-.138v-.002h.001c-.011-.094.031-.137.123-.137.07-.242.259-.394.424-.563.306-.311.614-.619.92-.928.076-.078.155-.154.221-.24a.49.49 0 00-.027-.656c-.168-.186-.433-.25-.65-.117a5.1 5.1 0 00-.577.422c-.22.177-.43.368-.646.55-.03.026-.08.052-.115.045-.025-.004-.058-.065-.057-.1.012-.28.027-.562.048-.844.012-.151.047-.3.054-.452.01-.206.018-.4.279-.444.267-.316.616-.34 1-.318.912.052 1.825.08 2.738.113.587.02 1.176.032 1.763.036.654.003 1.304.042 1.955.083.89.052 1.785.032 2.677.06.478.015.955.06 1.43.109.062.006.153.1.165.164.03.171.028.346.028.522.002.718.002 1.437-.002 2.153zM6.34 7.257c.007-.015.039-.035.048-.03.3.16.611.283.95.335.024.005.04.07.054.108.002.005-.031.029-.051.033-.04.01-.083.013-.21.032-.17-.045-.419-.104-.66-.188-.068-.022-.119-.113-.163-.182-.014-.02.016-.071.032-.108zm.249-2.14c.01-.042.113-.105.144-.09.275.12.546.247.812.388.039.02.064.113.056.167a8.213 8.213 0 01-.126.697c-.01.045-.08.097-.128.108-.059.013-.126-.02-.223-.04-.157.02-.348.046-.539.061-.098.01-.16-.054-.172-.151-.048-.396.076-.766.176-1.14zm.904-1.88c.11-.17.118-.16.308.005.127.11.272.203.418.292.082.048.238-.02.259.117.01.07-.063.154-.104.227a25.13 25.13 0 01-.356.613c-.021.034-.063.056-.096.082-.02-.009-.04-.015-.059-.026-.054-.035-.11-.067-.16-.106-.77-.6-.78-.314-.21-1.204zm5.87 4.442c0 .123-.075.184-.217.186-.673.002-1.346 0-2.018 0v.002c-.63 0-1.26.003-1.888-.002-.18-.002-.272-.095-.297-.277-.173-1.277.185-2.402.995-3.387.353-.431.822-.708 1.351-.866.38-.113.777-.067 1.163-.017.108.013.224.127.298.225.187.249.262.55.318.846.11.574.223 1.15.276 1.73.047.517.019 1.04.018 1.56zm-4.74-5.552c.277-.17.561-.331.843-.496.403-.233.823-.39 1.303-.337.124.013.26-.015.384-.052.593-.178 1.201-.176 1.812-.171.226 0 .436.052.619.175.654.446 1.243.957 1.586 1.693.063.136.096.285.13.433.023.106.003.223.04.322.257.69.225 1.411.241 2.206.042.4-.06.879.051 1.355.052.22-.203.541-.42.597-.038.011-.095.005-.123-.02a12.43 12.43 0 01-.555-.45c-.107-.093-.122-.214-.094-.357.114-.558.096-1.12.007-1.684a4.112 4.112 0 01-.053-.52c-.013-.467-.181-.893-.373-1.306-.185-.397-.492-.7-.839-.979-.459-.37-.93-.628-1.539-.563-.15.016-.304-.013-.456-.02a1.524 1.524 0 00-.697.142c-.5.223-.973.487-1.364.878a4.23 4.23 0 01-.29.262c-.048.041-.136.005-.142-.06-.029-.301-.009-.609-.153-.892-.016-.033.036-.13.081-.156zm10.231 7.9c0-.218-.018-.434-.013-.653.01-.435-.17-.751-.559-.955a6.928 6.928 0 01-.566-.32c-.183-.12-.355-.242-.59-.245-.118 0-.19-.106-.203-.22-.015-.13-.009-.262-.01-.392-.006-1.065-.014-2.13-.148-3.193a4.994 4.994 0 00-.708-2.006c-.146-.243-.3-.492-.5-.684C14.68.514 13.64.023 12.401.01c-.436-.004-.873-.024-1.307.007-.453.03-.921.056-1.349.192-.493.156-.96.41-1.414.663-.246.136-.48.29-.744.398-.368.15-.685.374-.906.719-.236.365-.482.725-.72 1.088a2.026 2.026 0 00-.326.844c-.044.323-.135.639-.19.96-.131.748-.273 1.497-.229 2.266.013.216 0 .435-.006.651-.004.115-.09.19-.211.204-.41.043-.82.084-1.23.13-.064.006-.155.015-.18.056-.176.288-.463.504-.446.909.031.74.01 1.48.01 2.223h.038c0 .63.013 1.262-.005 1.894-.01.353.04.69.116 1.032.046.21.094.425.1.639.018.654.047 1.3.128 1.952.066.528.196 1.022.437 1.492.07.136.153.266.205.409.23.634.67 1.11 1.158 1.547.193.173.394.37.629.457.673.251 1.323.55 1.974.848.02.01.043.011.063.02.466.195.962.284 1.457.329.714.07 1.43.115 2.143-.065.549-.136 1.11-.23 1.68-.177.298.026.55-.078.8-.223a15.57 15.57 0 003.48-2.736c.088-.093.182-.195.226-.312.272-.732.624-1.437.745-2.22.043-.28.106-.557.142-.836.067-.518.161-1.035.172-1.552.027-1.264.013-2.526.013-3.79z" fill="#303030"/></svg>