<svg width="124" height="124" viewBox="0 0 124 124" fill="none" xmlns="http://www.w3.org/2000/svg">
<path fill-rule="evenodd" clip-rule="evenodd" d="M98.59 57.3301C98.59 56.3301 98.5 55.3301 98.53 54.3301C98.597 53.419 98.3851 52.5091 97.9224 51.7214C97.4598 50.9337 96.7684 50.3054 95.94 49.9201C95.05 49.4601 94.17 48.9801 93.33 48.4401C92.5539 47.8046 91.608 47.4117 90.61 47.3101C90.3448 47.3101 90.0905 47.2048 89.9029 47.0172C89.7154 46.8297 89.61 46.5753 89.61 46.3101C89.55 45.7101 89.61 45.1001 89.61 44.5001C89.6732 39.5744 89.4461 34.6492 88.93 29.7501C88.515 26.4604 87.3963 23.2988 85.65 20.4801C85.023 19.3319 84.2499 18.2697 83.35 17.3201C79.5085 13.387 74.2673 11.1331 68.77 11.0501C66.77 11.0501 64.77 10.9401 62.77 11.0501C60.6495 11.1144 58.5444 11.4333 56.5 12.0001C54.2396 12.7831 52.0623 13.788 50 15.0001C48.8925 15.6839 47.7436 16.2984 46.56 16.8401C44.8508 17.4772 43.3875 18.6395 42.38 20.1601C41.29 21.8501 40.15 23.5101 39.05 25.1601C38.2578 26.328 37.7446 27.6624 37.55 29.0601C37.34 30.5501 36.92 32.0101 36.66 33.4901C35.8976 36.9403 35.5352 40.4669 35.58 44.0001C35.64 45.0001 35.58 46.0001 35.58 47.0001C35.5623 47.253 35.4491 47.4897 35.2635 47.6624C35.0778 47.835 34.8336 47.9307 34.58 47.9301C32.68 48.1301 30.78 48.3201 28.89 48.5301C28.6 48.5301 28.18 48.6001 28.06 48.7901C27.25 50.1601 25.92 51.1601 26 53.0001C26.15 56.4101 26 59.8401 26 63.2601H26.22C26.22 66.1701 26.28 69.0901 26.22 72.0101C26.199 73.6165 26.3805 75.2191 26.76 76.7801C27.0054 77.7638 27.1594 78.7681 27.22 79.7801C27.3 82.7801 27.44 85.7801 27.81 88.7801C28.0671 91.1764 28.7441 93.5086 29.81 95.6701C30.1644 96.2805 30.4816 96.9116 30.76 97.5601C31.9145 100.355 33.7544 102.814 36.11 104.71C36.9368 105.586 37.9161 106.305 39 106.83C42.11 107.99 45.11 109.38 48.12 110.75C48.21 110.75 48.32 110.75 48.41 110.84C50.5674 111.685 52.8394 112.2 55.15 112.37C58.4433 112.837 61.7924 112.732 65.05 112.06C67.5722 111.353 70.1957 111.075 72.81 111.24C74.1182 111.308 75.4141 110.958 76.51 110.24C82.4461 106.804 87.8609 102.538 92.59 97.5701C93.0139 97.1598 93.3536 96.6706 93.59 96.1301C94.85 92.7501 96.48 89.4901 97.04 85.8701C97.23 84.5801 97.53 83.3001 97.69 82.0101C98.0855 79.6362 98.3525 77.2428 98.49 74.8401C98.65 69.0001 98.59 63.1701 98.59 57.3301ZM51.32 20.8301C52.6 20.0001 53.91 19.3001 55.21 18.5501C56.9831 17.3815 59.0918 16.8297 61.21 16.9801C61.8167 17.0208 62.4255 16.9392 63 16.7401C65.7404 16.074 68.5654 15.8246 71.38 16.0001C72.3934 15.9739 73.3909 16.2564 74.24 16.8101C77.24 18.8701 79.98 21.2301 81.57 24.6301C81.8373 25.2739 82.0351 25.9443 82.16 26.6301C82.1919 27.1303 82.2554 27.6279 82.35 28.1201C83.54 31.3101 83.35 34.6401 83.47 38.3101C83.66 40.1601 83.19 42.3701 83.7 44.5701C83.94 45.5701 82.76 47.0701 81.76 47.3301C81.6641 47.3565 81.5636 47.3621 81.4653 47.3466C81.367 47.3311 81.2732 47.2948 81.19 47.2401C80.32 46.5701 79.46 45.8801 78.63 45.1601C78.4081 44.955 78.2496 44.6905 78.1733 44.3981C78.0971 44.1056 78.1064 43.7975 78.2 43.5101C78.665 40.9376 78.665 38.3026 78.2 35.7301C78.0663 34.9362 77.9828 34.1346 77.95 33.3301C77.7895 31.2342 77.2043 29.1928 76.23 27.3301C75.304 25.5434 73.9758 23.9962 72.35 22.8101C70.23 21.1001 68.05 19.9101 65.24 20.2101C64.5427 20.1886 63.8476 20.1184 63.16 20.0001C62.0681 19.9771 60.9859 20.21 60 20.6801C57.6628 21.6298 55.523 23.0066 53.69 24.7401C53.27 25.1701 52.81 25.5601 52.36 25.9501C52.3015 25.992 52.2332 26.0182 52.1617 26.0261C52.0901 26.034 52.0177 26.0234 51.9515 25.9953C51.8852 25.9672 51.8273 25.9225 51.7833 25.8656C51.7392 25.8086 51.7106 25.7413 51.7 25.6701C51.7345 24.2636 51.4933 22.864 50.99 21.5501C50.87 21.4001 51.11 21.0001 51.32 20.8301ZM73.21 46.4801C73.21 47.0501 72.87 47.3301 72.21 47.3401H62.89C59.98 47.3401 57.08 47.3401 54.17 47.3401C53.9942 47.354 53.8174 47.3311 53.6509 47.2729C53.4844 47.2147 53.3318 47.1225 53.2029 47.002C53.074 46.8816 52.9717 46.7357 52.9023 46.5735C52.8329 46.4113 52.7981 46.2365 52.8 46.0601C52.3974 43.2749 52.5989 40.4357 53.3909 37.7353C54.1829 35.0349 55.5468 32.5366 57.39 30.4101C59.02 28.4744 61.1996 27.0795 63.64 26.4101C65.4017 26.0114 67.2272 25.9841 69 26.3301C69.5604 26.4913 70.0457 26.8455 70.37 27.3301C71.162 28.4963 71.6689 29.8321 71.85 31.2301C72.35 33.8801 72.85 36.5401 73.12 39.2301C73.35 41.6601 73.22 44.0801 73.21 46.4801ZM46.1 26.0001C46.61 25.2101 46.65 25.2601 47.52 26.0001C48.1257 26.5017 48.7711 26.9532 49.45 27.3501C49.83 27.5701 50.55 27.2601 50.65 27.8901C50.7 28.2101 50.36 28.6001 50.17 28.9401C49.63 29.8901 49.09 30.8401 48.52 31.7701C48.3973 31.9221 48.2483 32.0508 48.08 32.1501C47.9875 32.1162 47.8973 32.0761 47.81 32.0301C47.56 31.8701 47.3 31.7201 47.07 31.5401C43.51 28.7501 43.46 30.0701 46.1 26.0001ZM41.92 34.6801C41.97 34.4901 42.44 34.2001 42.59 34.2701C43.86 34.8201 45.11 35.4101 46.34 36.0601C46.52 36.1501 46.63 36.5801 46.6 36.8401C46.45 37.8801 46.26 39.0001 46 40.0001C45.944 40.1232 45.861 40.232 45.7571 40.3186C45.6532 40.4051 45.5312 40.4672 45.4 40.5001C45.059 40.4959 44.7211 40.4351 44.4 40.3201C43.68 40.4101 42.8 40.5301 41.92 40.6001C41.8204 40.6128 41.7191 40.6043 41.623 40.575C41.5269 40.5457 41.4381 40.4963 41.3625 40.4302C41.2869 40.364 41.2261 40.2825 41.1844 40.1912C41.1426 40.0998 41.1206 40.0006 41.12 39.9001C41.046 38.1116 41.3176 36.3257 41.92 34.6401V34.6801ZM40.77 44.5701C40.77 44.5001 40.95 44.4101 40.99 44.4301C42.3549 45.192 43.8394 45.7162 45.38 45.9801C45.49 45.9801 45.57 46.3001 45.63 46.4801C45.63 46.4801 45.49 46.6101 45.4 46.6301C45.31 46.6501 45.01 46.6901 44.4 46.7801C43.62 46.5701 42.47 46.3001 41.4 45.9201C41.08 45.8101 40.85 45.3901 40.64 45.0701C40.56 44.9401 40.7 44.7001 40.77 44.5301V44.5701ZM90.63 68.3801C90.63 70.3001 90.49 72.1901 90.3 74.1001C90.12 76.4066 90.12 78.7236 90.3 81.0301C90.3392 82.9276 90.2121 84.8248 89.92 86.7001C89.7509 87.59 89.3778 88.4287 88.83 89.1501C87.52 91.0601 86.19 92.9601 84.72 94.7401C82.7797 96.9335 80.4245 98.7212 77.79 100C76.38 100.76 74.91 101.44 73.54 102.27C72.4242 102.961 71.1423 103.338 69.83 103.36C66.11 103.42 62.39 103.5 58.67 103.44C57.5718 103.332 56.4925 103.08 55.46 102.69C54.6 102.44 53.78 102.03 52.93 101.76C52.37 101.59 52 101.38 52.24 100.76C52.4189 100.087 52.333 99.3715 52 98.7601C51.8953 98.5031 51.7306 98.275 51.5197 98.0946C51.3088 97.9142 51.0578 97.7869 50.7877 97.7233C50.5175 97.6597 50.2361 97.6616 49.9669 97.7289C49.6977 97.7962 49.4485 97.9269 49.24 98.1101C48.72 98.5701 48.24 99.1101 47.74 99.5901C47.1892 99.9437 46.5263 100.079 45.8809 99.9701C45.2355 99.861 44.654 99.5151 44.25 99.0001C44.1949 98.8713 44.1724 98.7309 44.1846 98.5913C44.1968 98.4517 44.2433 98.3174 44.32 98.2001C45.15 97.2001 46.04 96.2001 46.91 95.2601C47.24 94.8901 47.59 94.5101 47.91 94.1101C48.1578 93.8455 48.3139 93.5082 48.3553 93.1481C48.3967 92.788 48.3213 92.4241 48.14 92.1101C47.9027 91.7205 47.5497 91.4146 47.1302 91.2354C46.7107 91.0561 46.2456 91.0123 45.8 91.1101C45.0051 91.2733 44.2712 91.6541 43.68 92.2101C42.95 92.9001 42.23 93.6001 41.49 94.2901C40.92 94.8201 40.55 94.7401 40.12 93.9801C39.97 93.7201 39.86 93.4401 39.71 93.1801C39.5575 92.9768 39.4882 92.7231 39.516 92.4704C39.5439 92.2178 39.6669 91.9853 39.86 91.8201C40.65 91.0401 41.49 90.3101 42.23 89.4901C42.839 88.8305 43.3693 88.1022 43.81 87.3201C44.0515 86.9919 44.1662 86.5875 44.1331 86.1815C44.1001 85.7754 43.9214 85.3949 43.63 85.1101C43.3095 84.8508 42.9148 84.7004 42.503 84.6806C42.0913 84.6609 41.6839 84.7728 41.34 85.0001C40.44 85.4301 39.59 86.0001 38.72 86.4901C38.38 86.7001 38.06 86.9501 37.72 87.1601C37.38 87.3701 36.98 86.9801 36.88 86.5601C36.8185 86.2146 36.8489 85.859 36.9683 85.529C37.0876 85.1991 37.2917 84.9063 37.56 84.6801C39.4584 82.5982 41.5365 80.6875 43.77 78.9701C44.2582 78.6297 44.6929 78.2185 45.06 77.7501C45.3085 77.43 45.4474 77.0385 45.4564 76.6334C45.4654 76.2282 45.344 75.831 45.11 75.5001C44.873 75.177 44.5481 74.9289 44.174 74.7853C43.7999 74.6417 43.3924 74.6086 43 74.6901C41.4966 75.0312 40.114 75.7743 39 76.8401C38.13 77.6701 37.22 78.4501 36.3 79.2301C36.22 79.2901 35.92 79.2301 35.82 79.1101C35.7587 79.0373 35.7129 78.9527 35.6854 78.8616C35.6579 78.7705 35.6493 78.6747 35.66 78.5801C35.7039 78.2859 35.8208 78.0075 36 77.7701C36.3796 77.3026 36.7835 76.8553 37.21 76.4301C39.16 74.4301 41.12 72.3701 43.05 70.3101C43.6179 69.7433 44.1179 69.1124 44.54 68.4301C44.7618 67.9876 44.8619 67.4941 44.83 67.0001C44.8091 66.8233 44.7435 66.6548 44.6395 66.5103C44.5356 66.3658 44.3965 66.2501 44.2355 66.1741C44.0746 66.0982 43.8969 66.0643 43.7193 66.0759C43.5416 66.0874 43.3698 66.1439 43.22 66.2401C41.78 67.1501 40.39 68.1401 38.97 69.0901C38.32 69.5301 37.91 70.3401 36.97 70.3201C36.97 70.7501 36.74 70.9201 36.33 70.8901C36.33 71.4301 35.93 71.6801 35.51 71.8901C35.51 71.8901 35.38 71.8201 35.34 71.7601C35.3131 71.7287 35.293 71.692 35.281 71.6524C35.2689 71.6128 35.2652 71.5712 35.27 71.5301C35.3268 71.3053 35.4699 71.112 35.6684 70.9921C35.8669 70.8723 36.1047 70.8356 36.33 70.8901V70.8901C36.28 70.4601 36.48 70.2601 36.9 70.2601C37.3354 69.2378 38.0236 68.3431 38.9 67.6601C40.31 66.2201 41.73 64.8001 43.15 63.3701C43.5063 63.0215 43.8403 62.6507 44.15 62.2601C44.4967 61.8303 44.6756 61.2893 44.6535 60.7376C44.6315 60.1858 44.4099 59.6608 44.03 59.2601C43.6734 58.8316 43.1771 58.5426 42.6284 58.4438C42.0797 58.3451 41.5137 58.4429 41.03 58.7201C40.0912 59.319 39.1987 59.9876 38.36 60.7201C37.36 61.5401 36.36 62.4201 35.36 63.2601C35.2173 63.3962 35.0273 63.4715 34.83 63.4701C34.71 63.4701 34.56 63.1701 34.57 63.0101C34.57 61.7101 34.69 60.4101 34.79 59.1101C34.84 58.4101 35.01 57.7201 35.04 57.0201C35.04 56.0201 35.12 55.1701 36.33 55.0201C37.56 53.5601 39.17 53.4501 40.95 53.5501C45.16 53.7901 49.38 53.9301 53.6 54.0701C56.31 54.1601 59.03 54.2201 61.74 54.2401C64.74 54.2401 67.74 54.4401 70.74 54.6201C74.86 54.8601 78.99 54.7701 83.11 54.9001C85.32 54.9701 87.52 55.1901 89.72 55.4001C89.8986 55.4561 90.061 55.5544 90.1934 55.6868C90.3257 55.8191 90.4241 55.9815 90.48 56.1601C90.5936 56.9581 90.6371 57.7645 90.61 58.5701C90.6434 61.7968 90.65 65.0668 90.63 68.3801ZM67.89 67.0801C67.1686 66.2409 66.166 65.6934 65.07 65.5401C64.47 65.4801 63.86 65.4601 63.69 65.4501C61.7088 65.3272 59.7281 65.6978 57.9253 66.5285C56.1224 67.3592 54.5539 68.6242 53.36 70.2101C52.9975 70.6911 52.7604 71.2547 52.67 71.8501C52.5353 72.7436 52.505 73.6497 52.58 74.5501C52.6167 75.6617 52.9541 76.7426 53.5563 77.6777C54.1585 78.6127 55.0031 79.367 56 79.8601C56.4374 80.1071 56.8958 80.3146 57.37 80.4801C58.1 80.7001 58.21 81.2001 58.19 81.8601C58.1 84.2701 57.95 86.6801 57.97 89.0901C57.97 92.3501 58.07 92.3501 61.12 93.8101C61.39 93.9401 61.65 94.0901 61.93 94.2101C62.3835 94.4374 62.8996 94.5076 63.3973 94.4099C63.895 94.3122 64.3462 94.052 64.68 93.6701C65.1637 93.1897 65.5537 92.6233 65.83 92.0001C66.2793 90.8781 66.5035 89.6787 66.49 88.4701C66.49 86.7601 66.49 85.0501 66.49 83.3401C66.3681 82.5986 66.4342 81.8383 66.6822 81.129C66.9303 80.4197 67.3525 79.784 67.91 79.2801C68.3734 78.7467 68.7421 78.1379 69 77.4801C69.8771 76.1175 70.2322 74.4839 70 72.8801C69.67 70.8201 69.51 68.7201 67.89 67.0801V67.0801Z" fill="black"/>
</svg>
