<svg width="18" height="18" viewBox="0 0 18 18" fill="none" xmlns="http://www.w3.org/2000/svg"><path fill-rule="evenodd" clip-rule="evenodd" d="M17.189 14.654a.751.751 0 01-.066.264c-.042.106-.216.188-.324.148a2.483 2.483 0 01-.344-.164c-.086-.05-.12-.135-.106-.235.071-.475-.032-.943-.063-1.415-.011-.182-.044-.362-.051-.545-.031-.912-.1-1.824-.2-2.731-.017-.146-.008-.293-.008-.44-.013-1.317-.018-2.634-.04-3.952-.005-.362-.06-.727-.093-1.09a2.054 2.054 0 01.118-.864.494.494 0 01.383-.351c.075-.017.138-.03.207.012.079.046.16.09.243.13.113.056.15.153.153.27.005.181.005.365.005.547.002.696 0 1.39 0 2.085h.024c0 .384-.002.769.002 1.153.003.657-.013 1.31.049 1.97.069.745.034 1.499.042 2.249.005.548.003 1.095.065 1.643.05.433.011.877.004 1.316zm-1.974-1.01c-.002.07-.02.142-.037.213-.021.087-.12.158-.209.138-.104-.022-.227-.036-.302-.102-.217-.188-.47-.271-.734-.353-.157-.048-.3-.133-.448-.204-.084-.04-.09-.091-.02-.168.1-.11.21-.21.297-.324a.976.976 0 00.156-.286.344.344 0 00-.387-.45c-.252.048-.498.119-.645.366-.075.124-.177.233-.273.345-.073.081-.257.038-.326-.075-.017-.027-.026-.078-.011-.098.076-.102.162-.197.24-.299a1.49 1.49 0 00.117-.186c.093-.164.082-.297-.031-.397-.113-.102-.233-.076-.359-.023-.277.114-.506.29-.686.53-.033.041-.068.089-.112.118-.016.01-.069-.013-.092-.035-.018-.02-.037-.074-.026-.087.126-.133.259-.259.386-.39.1-.106.206-.21.292-.326.112-.158.001-.388-.194-.422-.167-.03-.33-.015-.471.089-.16.122-.315.248-.466.38-.122.11-.23.237-.354.345-.067.06-.141.003-.187-.046-.03-.03-.046-.116-.026-.14.152-.184.315-.357.476-.534.072-.08.153-.156.222-.24.067-.082.065-.22-.002-.308-.07-.089-.157-.158-.279-.138a.766.766 0 00-.398.17c-.235.201-.474.402-.709.604-.083.07-.155.16-.246.218-.052.035-.134.033-.205.035-.033.002-.07-.02-.1-.038-.135-.079-.321-.073-.397-.244.11-.091.225-.182.338-.272.228-.184.46-.364.683-.551.07-.057.128-.131.182-.202.09-.117.095-.252.026-.36a.3.3 0 00-.38-.121c-.593.227-1.106.562-1.489 1.08-.122.165-.123.165-.304.087a7.424 7.424 0 01-.3-.135c-.131-.063-.13-.144.007-.235.137-.089.284-.167.413-.27a.468.468 0 00.139-.225c.056-.224-.102-.413-.328-.388a1.007 1.007 0 00-.364.102c-.226.12-.457.242-.65.404-.255.215-.494.203-.754.048a1.124 1.124 0 01-.179-.126c-.014-.013-.01-.076.004-.087.21-.146.42-.288.634-.43.089-.062.186-.117.266-.19a.221.221 0 00.05-.253.185.185 0 00-.22-.118c-.122.026-.25.06-.358.118-.255.142-.518.28-.75.456-.208.154-.39.154-.598.03-.045-.027-.106-.025-.158-.043-.097-.033-.1-.066-.02-.15.24-.25.48-.502.723-.751.025-.028.05-.053.076-.079.064-.069.11-.147.084-.247-.022-.088-.122-.135-.273-.12-.51.049-.95.249-1.311.617-.026.025-.042.06-.066.087-.335.397-.61.37-.978.044a.7.7 0 01-.158-.28.733.733 0 01-.035-.268c.02-.44.042-.878.077-1.315.003-.055.078-.135.132-.148.91-.202 1.821-.391 2.73-.591a24.995 24.995 0 002.32-.641c.122-.04.244-.102.368-.102.41-.006.79-.137 1.174-.248 1.004-.29 2.025-.477 3.05-.661.521-.093 1.039-.206 1.561-.293a1.77 1.77 0 00.665-.24 1.37 1.37 0 01.246-.115c.147-.055.26.016.267.165.004.073 0 .148 0 .22h.004c0 .037.007.075 0 .11-.14.725-.07 1.459-.09 2.187-.02.732-.021 1.464-.018 2.198.004.787.015 1.573.037 2.362.01.4.065.801.08 1.202.01.366-.002.732-.01 1.1zm-8.562-1.22c0-.128-.004-.257 0-.385.005-.247.113-.318.353-.222.27.107.537.228.803.346.184.082.357.19.546.253.264.09.386.248.456.528.109.435.018.39-.292.472a1.35 1.35 0 01-.597-.004 4.5 4.5 0 00-.869-.093.68.68 0 01-.16-.02c-.122-.03-.231-.153-.235-.273-.007-.2-.003-.402-.003-.603h-.002zm3.176 2.188c-.219.093-.445.159-.69.117a5.185 5.185 0 00-.653-.066c-.455-.02-.91-.016-1.363-.089-.234-.038-.476-.01-.712-.031a4.511 4.511 0 01-.643-.111.415.415 0 01-.313-.346c-.068-.34-.137-.68-.2-1.018a.684.684 0 01-.014-.218c.066-.436-.003-.87-.005-1.304-.002-.157.1-.224.255-.177.186.06.322.157.333.377.011.235.037.472.05.614-.037.464.03.82.13 1.174a.352.352 0 00.193.248c.25.116.503.218.787.2.091-.005.184.004.275-.002.568-.03 1.125.066 1.68.164.074.013.143.031.216.037.147.012.251-.073.256-.217.008-.2-.005-.402.013-.603.013-.122.06-.244.111-.359.015-.036.091-.069.135-.063.166.023.275.138.288.282.027.346.056.69.078 1.036.011.16-.062.293-.207.355zM1.823 9.561c-.002.182-.1.302-.255.39-.203.112-.366.045-.4-.183-.054-.376-.08-.759-.145-1.136-.09-.506-.09-1.016-.095-1.526 0-.127.008-.257.028-.38.029-.186.138-.275.333-.295.053-.006.11-.006.164-.011.084-.01.133.032.167.105.131.286.18.592.193.902.013.346.004.692.004 1.038h.007c0 .366.002.732-.001 1.096zm16.093 4.257a.463.463 0 01-.009-.267c.08-.233.062-.47.062-.707a42.765 42.765 0 00-.067-3.017c-.044-.712-.026-1.428-.037-2.142-.002-.129.018-.264-.018-.382-.078-.253-.056-.508-.06-.763-.004-.219 0-.439 0-.66h.01c-.052-.82-.1-1.642-.163-2.463-.018-.217-.082-.43-.138-.643a.686.686 0 00-.277-.386c-.246-.184-.492-.306-.801-.291a.798.798 0 01-.272-.031.327.327 0 00-.307.056c-.345.24-.692.477-1.033.72-.182.129-.37.229-.6.254-.799.088-1.578.288-2.359.472-.408.097-.812.215-1.224.295a25.31 25.31 0 00-3.02.783c-.33.11-.664.211-1.002.28-.45.093-.88.24-1.308.4a8.11 8.11 0 01-.57.196c-.595.173-1.202.311-1.78.543-.285.113-.55.17-.77-.135-.06-.084-.172-.139-.272-.18-.631-.272-1.212-.2-1.598.378-.09.133-.171.292-.193.448-.058.415-.124.836-.107 1.253.023.565.116 1.125.187 1.688.031.253.078.506.13.756.063.319.25.513.58.579.15.03.288.004.434 0 .368-.011.68-.09.856-.46.07-.154.225-.17.382-.132a.97.97 0 01.104.033c.484.164.968.326 1.453.492.085.029.173.06.255.098.09.042.147.118.13.218-.097.545-.06 1.095-.063 1.643-.002.202 0 .404-.023.603-.057.5.034.985.169 1.458.085.304.315.49.644.508.219.011.44.015.658.008.495-.019.985.014 1.478.05.895.064 1.789.095 2.685-.036.316-.045.459-.184.506-.462.03-.179.036-.363.047-.545.017-.273.026-.546.046-.82.005-.094.113-.158.2-.121.355.15.73.231 1.1.337.35.102.703.205 1.036.35.486.209.96.447 1.433.688.319.16.692.234.91.562.019.028.057.05.092.059.322.092.588.293.877.446.233.123.474.178.732.043.128-.067.283-.082.412-.145.315-.153.53-.388.533-.763.006-.385.053-.769-.069-1.146z" fill="#303030"/></svg>