<svg width="18" height="18" viewBox="0 0 18 18" fill="none" xmlns="http://www.w3.org/2000/svg"><path d="M14.358 10.603c.262-.407.276-.864.214-1.32a.972.972 0 00-.175-.403c-.14-.2-.34-.298-.594-.232-.182.046-.362.09-.53.181-.38.204-.743.43-1.046.74-.159.164-.332.315-.477.49-.24.286-.487.573-.684.89a5.67 5.67 0 00-.586 1.319c-.101.332-.203.665-.292 1a3.01 3.01 0 00-.106.833c.008.415.001.833.004 1.249.001.133 0 .269.022.4a7.71 7.71 0 00.411 1.51c.088.227.201.439.398.594.025.02.066.024.1.027.008 0 .025-.049.024-.073-.007-.16 0-.323-.03-.479-.057-.302-.137-.599-.204-.9-.1-.458-.185-.917-.16-1.39.004-.068 0-.136 0-.201h.003c0-.188-.002-.376 0-.564.002-.094.005-.188.018-.28.078-.56.23-1.1.466-1.615.017-.037.036-.072.048-.111.155-.512.466-.936.808-1.33.36-.414.735-.816 1.071-1.249.066-.085.134-.168.201-.252.097-.118.226-.144.364-.1a.342.342 0 01.255.282.602.602 0 01-.06.392c-.09.164-.169.336-.272.492a6.31 6.31 0 01-.741.894c-.27.28-.555.547-.776.869a1.246 1.246 0 00-.16.319c-.045.144.058.269.207.28.108.006.214 0 .305-.072.221-.173.448-.34.663-.52.217-.18.38-.414.568-.622.29-.322.512-.687.743-1.048zm-6.375 1.621a1.264 1.264 0 00-.119-.295c-.25-.414-.505-.823-.762-1.232-.5-.794-1.176-1.42-1.91-1.99-.147-.114-.308-.212-.466-.315-.219-.14-.46-.136-.7-.081a.438.438 0 00-.34.313c-.047.166-.107.343-.091.51.03.317.073.638.218.933.22.447.465.875.844 1.212.04.035.08.072.114.114.228.267.527.453.788.684a.237.237 0 00.145.055c.047-.002.11-.028.134-.065.023-.038.027-.12.001-.147-.184-.181-.296-.411-.439-.621-.196-.287-.404-.569-.591-.86a3.89 3.89 0 01-.48-1.013.62.62 0 01-.031-.317c.012-.052.074-.087.124-.06a.983.983 0 01.103.06c.239.15.453.33.677.503.55.423.976.952 1.354 1.523.281.424.528.87.802 1.3a.945.945 0 01.157.528c-.003.444-.004.886.001 1.328.005.352-.067.691-.135 1.032-.088.438-.266.843-.43 1.254a1.114 1.114 0 00-.078.267c-.016.118-.024.247.085.334.098.077.347.068.461-.01a.485.485 0 00.12-.108c.064-.083.132-.17.178-.264.38-.781.591-1.604.58-2.479 0-.172.02-.35-.005-.52-.074-.53-.154-1.059-.31-1.573zm9.03-4.462c-.015-.91.035-1.822-.078-2.73-.018-.149-.025-.297-.113-.42-.157-.22-.348-.302-.589-.184a.611.611 0 00-.196.136c-.202.232-.398.47-.515.761-.11.274-.215.55-.272.84-.043.223-.082.446-.129.67-.075.354-.136.708-.12 1.073.006.108.015.22-.011.322-.085.33-.053.665-.068 1a4.99 4.99 0 00.003.441c.004.119.07.202.167.26.094.06.235.023.276-.076.037-.085.073-.175.09-.264.078-.423.166-.84.239-1.263.09-.525.137-1.06.174-1.592.029-.416.12-.82.18-1.23a.637.637 0 01.187-.35c.05-.052.112-.06.182-.028.119.057.199.143.199.278 0 .201.02.407-.021.6a3.764 3.764 0 00-.068.638c-.004.105-.017.212-.027.32-.014.146-.039.29-.04.437-.005.752-.003 1.503-.004 2.255 0 .188-.013.37-.067.556-.067.23-.101.47-.102.713-.001.326-.083.64-.22.932-.205.437-.47.842-.8 1.198-.354.385-.71.766-1.067 1.149a2.925 2.925 0 00-.786 1.638c-.03.225.062.689.183.892.03.05.095.055.136.016a.893.893 0 00.218-.381c.07-.216.15-.43.212-.65.088-.301.25-.564.45-.8a20.4 20.4 0 01.921-1.008 6.23 6.23 0 00.89-1.136c.077-.124.141-.258.195-.396.2-.5.304-1.023.31-1.566 0-.094-.007-.192.02-.28.061-.197.056-.398.057-.597.003-.671.001-1.343.001-2.012h.004v-.162zM3.749 14.53c-.275-.346-.541-.698-.825-1.037a3.124 3.124 0 01-.593-1.042c-.097-.29-.2-.581-.298-.874a2.342 2.342 0 01-.083-.311c-.099-.553-.187-1.107-.165-1.673.007-.188-.017-.377-.032-.562-.01-.134-.041-.265-.044-.399-.007-.308-.003-.616-.003-.925h.005c0-.321-.009-.643.004-.964.008-.202.045-.4.076-.598a.303.303 0 01.068-.142c.07-.08.148-.155.226-.23.045-.043.094-.039.143 0 .119.095.214.21.253.357.048.18.108.363.113.547.012.444.119.877.095 1.323-.002.04 0 .081.012.118.072.224.053.453.056.679.003.255-.006.511.013.765.018.252.06.503.1.755.01.07.07.111.143.122.08.011.17-.04.192-.111.015-.05.033-.105.03-.158a11.17 11.17 0 00-.04-.518c-.009-.107-.034-.212-.039-.317-.017-.361.008-.724-.069-1.083-.022-.103-.006-.214-.008-.322-.005-.253.018-.514-.022-.763a6.565 6.565 0 01-.062-1.002c-.002-.245-.064-.477-.12-.71a.81.81 0 00-.31-.456.378.378 0 00-.179-.083.837.837 0 00-.706.208c-.332.295-.464.678-.525 1.098-.036.252-.052.508-.104.755C.944 7.484 1 7.992 1.004 8.5c.097.315.057.639.063.958.011.562-.014 1.125.068 1.687.073.492.182.97.312 1.45.064.232.144.457.317.64.08.088.13.202.2.303.09.13.185.262.281.389.145.192.296.38.44.575.264.352.526.709.788 1.066.04.052.074.111.11.166.235.363.405.754.513 1.172.057.221.137.435.208.652a.82.82 0 00.269.394c.084.067.17.063.249-.018.203-.21.216-.479.237-.746-.131-.776-.389-1.502-.879-2.13-.14-.18-.29-.352-.432-.53zM11.078 5a8.684 8.684 0 01-1.773 1.307c-.106.06-.206.127-.312.184-.068.037-.145.105-.218.055-.045-.03-.05-.118-.075-.177-.04-.094-.17-.12-.227-.038-.07.097-.125.206-.187.307-.05.083-.119.096-.205.041-.046-.028-.088-.061-.132-.092-.185-.13-.253-.3-.175-.522.044-.127.072-.259.104-.39a.374.374 0 00.01-.118.167.167 0 00-.116-.149c-.067-.026-.137-.015-.183.042-.05.063-.087.136-.127.203-.047.081-.09.164-.138.245-.023.038-.117.044-.142.003a.402.402 0 01-.08-.175c-.006-.077.022-.158.033-.237.019-.133.04-.264.051-.398.007-.079.009-.162-.057-.225-.04-.037-.138.02-.22.133-.07.099-.136.202-.207.298-.061.083-.135.1-.206.052-.093-.06-.134-.153-.103-.236.014-.04.036-.072.05-.111.104-.26.208-.521.309-.784.013-.037.02-.085.007-.118a.266.266 0 00-.093-.12c-.05-.033-.11-.009-.139.04-.127.205-.247.413-.307.651a.538.538 0 01-.083.177c-.015.02-.09.029-.105.014-.22-.228-.256-.32-.17-.565.079-.219.22-.398.325-.6.044-.082.107-.157.141-.242a.638.638 0 00.035-.234c0-.1-.11-.166-.202-.129a1.257 1.257 0 00-.488.343c-.035.04-.06.09-.101.123-.025.02-.083.028-.105.01-.025-.017-.032-.065-.036-.102-.003-.026.01-.052.018-.079.143-.43.252-.875.47-1.281a.197.197 0 00.025-.114.156.156 0 00-.057-.099c-.029-.017-.084-.024-.11-.008a.523.523 0 00-.148.13c-.115.15-.22.303-.335.451-.02.029-.082.06-.095.05-.038-.03-.063-.078-.09-.12-.006-.01-.006-.026-.003-.039.064-.304.153-.604.365-.838.312-.343.71-.472 1.165-.382.143.026.29.076.412.155.314.201.623.407.858.715.17.221.356.433.515.665.075.11.172.206.272.295.045.04.119.06.182.068.114.015.223-.063.232-.175.011-.146.015-.295.006-.442a.687.687 0 01.132-.45c.384-.556.89-.915 1.566-1.028.226-.038.44-.062.672-.01.33.077.55.268.716.539.224.37.239.453.24 1.1.05.508-.183.974-.496 1.429-.253.37-.542.7-.865 1.001zm1.857-.948c.233-.43.41-.873.377-1.373-.004-.055-.001-.108-.001-.162h.01c-.012-.228.01-.464-.043-.683-.155-.66-.48-1.218-1.091-1.566A1.338 1.338 0 0011.86.12c-.35-.085-.703-.183-1.068-.063-.05.017-.107.01-.16.02-.596.092-1.07.41-1.473.837a2.266 2.266 0 00-.407.595c-.025.053-.096.062-.138.024-.04-.037-.087-.067-.115-.111-.182-.291-.448-.494-.708-.707C7.168.204 6.457.095 5.71.318c-.74.222-1.194.757-1.389 1.492-.07.265-.138.55-.04.831-.022.372.117.711.222 1.057.118.383.288.746.552 1.059.18.214.332.457.525.658.463.486.945.951 1.55 1.264a.463.463 0 01.129.096c.196.208.444.346.679.5.144.093.313.15.472.218a.3.3 0 00.155.03c.358-.05.712-.102 1.036-.29.783-.451 1.484-1.009 2.14-1.626.48-.45.88-.969 1.194-1.555z" fill="#8B5CD6"/></svg>