<svg width="22" height="22" viewBox="0 0 22 22" fill="none" xmlns="http://www.w3.org/2000/svg"><path fill-rule="evenodd" clip-rule="evenodd" d="M1.908 5.117c.272.18.307-.297.585-.293.127-.206.325-.34.528-.47.202-.024.329.023.468.059-.009.068.014.104.06.118.031.401-.129.615-.353.76-.075.217-.543.287-.41.528.322-.03.401-.303.645-.409.226-.127.31-.397.585-.47.439.055.175.69 0 .821-.153.06-.197.23-.35.293-.034.181-.277.154-.294.351.19.17.256-.135.412-.176.141-.092.257-.21.35-.351.244-.204.408-.49.645-.703.168-.3.405-.532.586-.82.206-.244.457-.443.586-.763-.524-.53-.806-1.303-1.407-1.756h-.76c-.137.177-.368.258-.47.468-.154.139-.353.233-.41.47-.342.243-.496.675-.82.936.06.131.27-.076.468 0 .139.02.133.181.234.235-.04.33-.245.495-.467.644-.042.135-.195.156-.235.293-.102.059-.314.1-.176.235zm3.924 2.635c.057.316.414.33.47.644.239.112.312.393.526.528 1.107 1.061 2.204 2.132 3.222 3.28.721.726 1.388 1.503 2.11 2.226.06.189.222.336.35.47.374.384.86.766 1.233 1.23.23.12.266.436.525.527-.016-.29.01-.538.058-.762-.087-.218-.247-.412-.409-.586-.428-.46-.979-.92-1.465-1.405-.644-.646-1.207-1.371-1.874-1.992-.596-.692-1.22-1.357-1.758-2.11-.347-.297-.656-.631-.995-.937-.305-.338-.762-.527-.879-1.055.006-.247.158-.35.351-.41.383-.05.49.175.644.352.123.212.35.316.47.528.426.239.671.656 1.056.937.758 1.194 1.836 2.067 2.692 3.164.942.993 1.933 1.934 2.872 2.928.307-.034.442.104.76.06.036-.31-.101-.445-.058-.762.06-.177-.13-.104-.235-.117-.116-.002-.074-.16-.232-.118-.077-.256-.297-.368-.47-.528-.102-.21-.282-.34-.41-.526-.292-.353-.643-.646-.938-.997-.624-.665-1.23-1.345-1.875-1.99-.23-.414-.623-.668-.937-.996-.376-.268-.658-.632-1.053-.88-.314-.331-.603-.687-.937-.996-.046-.266-.318-.308-.412-.526-.103-.156-.403-.345-.232-.586.01-.048.058-.06.058-.118.145-.227.586-.092.702.058.19.143.308.357.468.528.947 1.047 2 1.982 3.048 2.93.097.232.278.382.467.525.098.235.28.385.47.528.12.212.347.316.467.528.175.16.393.27.47.527.191-.016.125.227.293.235a.52.52 0 00.235.233c.151.18.253.41.467.528.245.42.678.65.88 1.113.172-.062.302-.166.585-.118h.702c.15.002.073-.044.06-.117-.076-.02-.093-.103-.176-.116-.465-.544-.993-1.006-1.523-1.523-.164-.16-.285-.397-.528-.47-.756-.785-1.566-1.518-2.341-2.283-.784-.762-1.6-1.488-2.286-2.344a29.219 29.219 0 01-1.758-1.758c-.245-.124-.328-.413-.586-.527.017-.094-.054-.1-.058-.175-.05-.01-.054.021-.058.058-.05-.01-.056.023-.058.059C7.48 5.884 6.72 6.88 5.832 7.752zM18.02 18.999c.349-.293.681-.607 1.172-.76-.485-1.177-.873-2.448-1.407-3.574h-1.056c.013.34.22.798.119 1.171-.067.242-.264.327-.41.47h-.82c-.063.563-.106 1.143-.177 1.698.958.234 1.665.718 2.579.995zM.619 4.53c-.041-.334.1-.488.058-.82.64-.807 1.287-1.607 1.993-2.344.29-.137.555-.306.819-.468.687-.062 1.153.096 1.583.291.511.547.82 1.288 1.346 1.816.152-.218.185-.557.586-.526.43.02.52.379.763.586.255.212.499.437.76.644.433.507.954.923 1.349 1.465.287.17.53.414.76.644.233.233.462.482.644.76.524.416.969.907 1.465 1.35.956.918 1.897 1.85 2.872 2.752.492.445.962.913 1.404 1.407.262.208.468.472.645.76.147.088.207.264.293.41.122.114.245.226.293.411.257-.002.363.146.527.235.015.18.164.227.235.35.035.18.125.307.177.469.133.297.297.56.35.939.15.258.227.592.352.877.085.345.239.621.351.939.256.584.461 1.217.763 1.756.122.594.72 1.408.116 1.874-.783.062-1.126-.318-1.7-.468-.18-.17-.571-.13-.76-.293-.183.007-.28-.07-.412-.116-.106-.09-.328-.062-.409-.177-.555-.166-1.047-.398-1.581-.585-.555-.188-1.178-.306-1.7-.528-.108-.162-.164-.383-.235-.584-.228-.04-.324-.272-.467-.412a84.08 84.08 0 00-1.348-1.288c-.235-.156-.379-.403-.645-.527-1.02-1.38-2.366-2.438-3.632-3.574a65.207 65.207 0 01-3.983-3.281c-.035-.14-.083-.266-.058-.468-.282-.11-.509-.274-.528-.644.065-.289.214-.49.47-.586.233-.118.384-.318.644-.411.112-.24.39-.312.528-.528.243-.106.29-.41.525-.526.308-.396.647-.76.938-1.171.151-.2.317-.387.47-.586.167-.196.342-.464 0-.586-.121-.119-.117.023-.175.116-.152.006-.086.23-.237.235a1.098 1.098 0 01-.41.528c-.187.436-.577.67-.76 1.113-.33.275-.515.694-.879.937-.3.324-.6.649-1.055.819H3.02c-.31-.197-.515-.499-.76-.76a4.314 4.314 0 01-1.056-.763c-.012-.32-.195-.468-.235-.76-.097-.08-.091-.26-.174-.352-.033-.143-.227-.124-.177-.35z" fill="#303030"/></svg>