<svg width="28" height="28" viewBox="0 0 28 28" fill="none" xmlns="http://www.w3.org/2000/svg"><path fill-rule="evenodd" clip-rule="evenodd" d="M22.755 14.808c-.592.012-1.047.16-1.711.094.074-.422-.127-.57-.095-.95-.225-.094-.086-.547-.286-.666.42-.31 1.307-.15 1.997-.19-.048.652.168 1.037.095 1.712zm-4.185.094c-.3-.044-.336.171-.665.096-.1-.784-.056-1.206.19-1.806h1.047c-.221.52-.85.994-.572 1.71zm-3.614-5.706c-.225.44-.42.912-.76 1.237-.157.16-.207.428-.38.572-.08.238-.125.51-.477.475.144-.872.447-1.584.667-2.378.194-.672.78-1.421.475-2.284-.577.028-.78.425-.952.856-.325.278-.522.685-.665 1.144-.288-.144.079-.419 0-.666.131-.122.058-.45.19-.571.09-.45.208-.872.285-1.332-.076-.49-.554-.065-.666-.19.02-.297-.064-.697.096-.856.664-.203 1.78-.422 2.568-.19-.234 1.286-.294 2.749-.38 4.183zm.286 13.317c-.166.247-.631.19-1.047.188.108-1 .76-1.46.857-2.472.08-.019.089.038.094.097-.1.419.188.734 0 .95.065.41.262.868.096 1.237zm-1.713-7.799c.237.012.028.322 0 .378-.236-.012-.027-.322 0-.378zm-.19 6.846c-.084.235-.085.55-.38.572.498-1.784 1.391-3.175 1.902-4.946.217.103.036.6.095.856.134.531.071 1.262.19 1.806-.11-.078-.255-.125-.475-.094-.454.244-.605.79-.95 1.14-.141.21-.187.513-.382.666zm-3.613-6.37H9.25c-.006-.64.225-1.044.286-1.616-.052-.212.181-.137.19-.287.161-.034.18.075.19.19-.259.37-.392 1.179-.19 1.713zm-1.9-.666c-.355.185-.087.994-.667.95.032-.79.275-1.371.38-2.09H8.3c-.14.397-.44.637-.475 1.14zm16.927-2.568c-.324-.213-.396-.681-.856-.762-.442-.213-1.058.122-1.712 0-.367-.05-.463.171-.856.097-.258.059-.754-.122-.856.093-1.237-.05-2.822.085-3.519 0-.013-1.406-.011-2.8.095-4.087-.023-.722.078-1.318.191-1.903.038-.656.35-1.234.095-1.903-.318-.19-.442-.571-1.046-.475-.595.388-1.698.27-2.663.285-.434.106-.918.16-1.237.381-.236-.081-.738-.188-.95 0-.357.31-.418.912-.381 1.615-.062 2.031.124 4.312-.095 6.184-1.826.203-4.022.038-5.802.284-.278-.006-.353-.215-.475-.38a2.06 2.06 0 00-.856-.095c-.598.322-.725 1.113-.666 2.094-.133.816-.093 1.81-.095 2.759.176.203.103.656.285.853.15.262.324.5.571.666.458.175 1.203.065 1.807.096.368.05.464-.171.855-.096.18-.138.631-.004.761-.188.664.028 1.11-.162 1.713-.19h.95c.29.059.82-.122.952.093v6.562c.283.353.46.81.95.953.988.216 2.375.034 3.52.094.565-.113 1.522-.119 1.807-.19.29-.073.234-.145.38-.285.174-.166.396-.275.38-.572.064-.572-.144-.869-.38-1.14-.322-.216-.246-.832-.475-1.141.067-1.59-.1-2.943-.096-4.471 1.56-.154 3.344-.078 5.04-.094.433-.14 1.047-.097 1.428-.288.37-.23.978-.225 1.236-.568.488-1.247-.165-2.747 0-4.281z" fill="#fff"/></svg>