<svg width="20" height="20" viewBox="0 0 20 20" fill="none" xmlns="http://www.w3.org/2000/svg"><path fill-rule="evenodd" clip-rule="evenodd" d="M17.134 17.76l-2.436.133c0-.009 0-.015-.002-.024-.407 0-.814-.01-1.22.005-.299.01-.595.064-.893.085-.383.023-.769.042-1.154.049-.513.01-1.029-.028-1.536.094-.02.006-.042.004-.063.004-.77.05-1.538.102-2.307.147-.83.05-1.661.121-2.498.128-.56.006-1.105-.099-1.661-.118-.092-.002-.162-.091-.143-.17.09-.375.164-.754.281-1.12.192-.596.526-1.125.905-1.617.139-.179.356-.304.552-.43.707-.45 1.474-.786 2.247-1.1a3.92 3.92 0 001.08-.676c.438-.377.621-.865.675-1.408.05-.515-.043-1.022-.203-1.516-.144-.447-.304-.89-.366-1.359-.113-.848-.245-1.69-.115-2.553.077-.507.083-1.023.166-1.532.102-.64.337-1.235.582-1.827a.876.876 0 01.091-.17c.16-.245 1.137-1.072 1.416-1.189.682-.287 1.302-.13 1.86.305.48.377.681.926.794 1.503.123.629.213 1.261.162 1.91-.043.554-.015 1.11-.109 1.664-.102.596-.251 1.17-.507 1.717-.142.308-.242.636-.455.915a3.32 3.32 0 01-1.003.884 6.56 6.56 0 01-1.283.584c-.153.049-.185.264-.055.364a.6.6 0 00.283.13c.3.032.595.006.886-.094.205-.072.294-.013.292.192-.002.509.151.969.394 1.405.202.367.483.644.854.846a5.619 5.619 0 001.62.592c.386.075.735.21 1.066.42.398.25.805.492 1.143.824.494.479.778 1.067.86 1.748.02.166-.046.247-.2.256zM6.774 6.728c-.024.055-.118.055-.15-.002-.032-.054-.07-.111-.078-.169-.009-.057.002-.138.038-.172.025-.026.115-.009.162.017.044.025.07.085.093.12-.027.087-.042.148-.066.206zm7.52-.63c.01-.05.082-.086.127-.126.032.047.077.091.094.142.017.06.01.128.017.224-.017.096-.028.224-.064.345a.213.213 0 01-.136.117c-.047.009-.15-.053-.147-.072a5.63 5.63 0 01.108-.63zm3.518 9.549a3.112 3.112 0 00-1.564-1.374c-.828-.34-1.686-.609-2.523-.933a5.257 5.257 0 01-.912-.466c-.63-.396-.911-1.576-.332-2.206a5.035 5.035 0 001.142-2.13c.027-.104.074-.202.104-.305.04-.132.115-.232.258-.25a.523.523 0 00.332-.178c.266-.317.481-.656.468-1.092-.008-.3-.017-.6-.012-.901 0-.268-.058-.513-.256-.703-.12-.113-.147-.247-.162-.402-.025-.254-.068-.507-.104-.763-.096-.7-.256-1.382-.59-2.017-.418-.792-1.05-1.269-1.936-1.422a3.618 3.618 0 00-1.267-.01 3.439 3.439 0 00-2.021 1.156c-.775.888-1.238 1.94-1.402 3.113-.025.188-.076.324-.285.37-.405.09-.618.408-.7.765-.107.456-.128.935.036 1.393.078.222.174.437.257.656.096.251.247.473.496.562.362.134.526.382.612.744.093.391.24.773.37 1.158.196.584.14 1.182.111 1.78-.01.218-.13.346-.334.42-.343.126-.675.273-1.012.409-.613.25-1.233.486-1.842.752-.667.292-1.306.639-1.88 1.095-.516.408-.868.93-1.11 1.54-.222.55-.27 1.12-.25 1.718 0 .262-.01.54.005.818.019.392.206.562.607.592.553.04 1.107.015 1.66.017 2.676.013 5.353-.05 8.026-.17.726-.033 1.452-.088 2.178-.13.043-.005.085-.007.128-.011.703-.07 1.404-.162 2.106-.202.535-.03 1.059-.133 1.598-.143.513-.009.698-.322.688-.741a5.247 5.247 0 00-.688-2.509z" fill="#fff"/></svg>