<svg width="28" height="28" viewBox="0 0 28 28" fill="none" xmlns="http://www.w3.org/2000/svg">
<path fill-rule="evenodd" clip-rule="evenodd" d="M7.938 0H20.076C24.822 0 28 3.332 28 8.288V19.7274C28 24.668 24.822 28 20.076 28H7.938C3.192 28 0 24.668 0 19.7274V8.288C0 3.332 3.192 0 7.938 0ZM13.2019 18.186L19.8519 11.536C20.3279 11.06 20.3279 10.29 19.8519 9.8C19.3759 9.324 18.5919 9.324 18.1159 9.8L12.3339 15.582L9.88392 13.132C9.40792 12.656 8.62392 12.656 8.14792 13.132C7.67192 13.608 7.67192 14.378 8.14792 14.868L11.4799 18.186C11.7179 18.424 12.0259 18.536 12.3339 18.536C12.6559 18.536 12.9639 18.424 13.2019 18.186Z" fill="white"/>
</svg>
