<svg width="18" height="18" viewBox="0 0 18 18" fill="none" xmlns="http://www.w3.org/2000/svg"><path fill-rule="evenodd" clip-rule="evenodd" d="M4.642 14.46c-.139-.184-.167-.481-.308-.665-.165-.142-.211-.404-.41-.512-.214-.045-.242.099-.41.102.036-.258-.087-.358-.051-.616.11-.112.249-.195.512-.153.508.307 1.035 1.141.667 1.845zm-.872-.254c-.026-.027.037-.066.051-.052.028.027-.036.066-.05.052zm-1.127.563c-.07-.135-.217-.195-.257-.36-.04-.177.057-.216.103-.306.111-.009.023.18.05.255.057.15.21.202.36.257.004.081-.025.197.051.205-.072.15-.176-.09-.307-.05zm1.846-3.127a4.028 4.028 0 00-.975-.154c-.011.04-.042.06-.103.051-.123-.021-.111.094-.255.051-.192.03-.21.236-.41.257-.053.17-.374.071-.463.204-.47.624-.904 1.285-.871 2.41.201 1.031.951 1.51 2.205 1.488 1.074-.104 1.762-.597 2.153-1.386.253-1.24-.321-2.06-.871-2.666-.174-.048-.27-.174-.41-.255zm5.64 3.896c-.18.043-.274.172-.513.154-.051-.29.094-.384.204-.512.005-.236.149-.331.104-.617-.072-.184-.333-.024-.41-.102-.151-.5.43-.989.102-1.487-.306-.067-.383.098-.563.154.001-.225-.13-.317-.207-.46.053-.445.283-.71.308-1.18a.456.456 0 00-.205-.206c-.229.01-.347.131-.461.257-.123-.127.077-.365.102-.514.065-.173.09-.388.154-.563v-.154c.046.023.092.046.102.102.142.321.207.718.41.975.137.308.266.624.412.923-.01.06.01.092.05.103-.022.28.091.421.052.717.117.583.252 1.149.358 1.744v.666zm-1.846-5.486c-.137.05-.17.206-.257.307-.203.156-.278.44-.41.666-.124-.097-.203-.239-.307-.358-.047-.508.251-.671.255-1.128-.018-.068-.09-.08-.101-.154-.54-.027-.705.322-.872.668-.15-.045.03-.167 0-.257.07-.032.007-.197.102-.206-.023-.416.177-.61.257-.923-.029-.278-.17-.445-.257-.666.513.324 1.032.643 1.436 1.077.1.259.274.443.41.666.016.204-.237.138-.256.309zM5.822 8.976c.004.062-.075.032 0 0-.02-.377.184-.533.204-.872.167.022.102.275.205.36-.109.199-.24.372-.41.512zm-.41-1.077c-.116.229-.288.397-.41.617-.044.127-.142.2-.155.357-.113.041.01.318-.205.257-.118-.143.09-.29.154-.41.008-.235.043-.2 0-.41.166-.227.23-.556.359-.82.244-.022.37.074.564.102-.018.186-.175.234-.308.307zm-1.693.923h-.36c.05-.225.197-.353.155-.666.153-.275.293-.56.41-.872.207-.035.293.05.462.051-.193.525-.592.844-.667 1.487zm-1.076-.46c-.029.074.06.263-.052.255-.049.097.154.171 0 .205-.234-.005-.028-.29 0-.358v-.257c.181-.264.224-.664.41-.923-.014-.083.049-.088.052-.154.178-.04.197.076.358.051-.24.41-.534.764-.768 1.18zm8.665 6.82c-.002-.633-.134-1.131-.257-1.642-.094-.538-.145-1.12-.257-1.642-.194-.232-.27-.581-.409-.872-.2-.242-.276-.611-.41-.923-.268-.62-.632-1.145-.974-1.69-.554-.507-1.153-.968-1.898-1.283-.328-.2-.771-.289-1.18-.41-.39-.157-.893-.2-1.383-.256-.297-.041-.439.074-.719.051-.377-.032-.685-.135-1.127-.103-.065.071-.252.022-.257.155-.161.024-.18-.093-.359-.052-.191-.055-.145.128-.307.103-.254.531-.122 1.451-.154 2.204-.03.167.035.24.051.36.121.016.03.242.205.204.129.207.38-.013.667.05.14.118.474.04.616.155.303-.03.456.09.768.051.44.279.858.58 1.436.718.28.285.702.427.923.769.352.229.461.702.82.923.277.305.529.634.718 1.026.194.388.35.813.513 1.231.115.539.14 1.127.154 1.641.122.117.22.257.41.307.17.086.137.375.41.36.04.01.1.001.103.05.547.034.87-.155 1.282-.256.374-.154.822-.238.922-.666.014-.151-.115-.158-.101-.309-.146-.009-.22-.088-.206-.255zm3.794-.412c-.243-.037-.337.073-.461.154-.206.206-.38.44-.462.77-.144-.148-.04-.541-.153-.718.098-.107.161-.248.255-.36.011-.347.372-.721.103-1.024-.3-.103-.294.283-.46.152-.068-1.058.476-1.504.614-2.358-.056-.115-.085-.257-.154-.36-.404-.078-.464.186-.718.257.02-.578.355-.841.461-1.332.044-.01.05.02.052.051.044-.01.05.02.051.052.223.545.328 1.21.514 1.794.11.658.161 1.375.358 1.948v.974zm-1.538-5.23a2.728 2.728 0 00-.307.41c-.173-.166-.315-.412-.205-.666.014-.033.088-.076.1-.102.095-.195.298-.64.412-.77.044-.01.05.02.051.052.036.271.202.413.257.666-.023.217-.243.236-.308.41zm-.923-.872c-.202-.02-.236-.207-.358-.307.094-.16.165-.347.204-.565.015-.305-.107-.473-.153-.717-.12-.188-.08-.535-.36-.564-.251-.028-.246.199-.36.307-.155.067-.136.308-.357.308A.824.824 0 0011 6.821c-.037-.15-.277-.098-.255-.307.18-.11.37-.21.563-.308.243-.046.45-.131.512-.358-.016-.172-.088-.289-.205-.36-.62-.005-.954.277-1.333.514-.216-.025-.235-.243-.409-.308-.104-.016-.1-.14-.205-.154-.163.024-.02-.255-.206-.206.066-.165.11-.531-.103-.563-.347-.09-.37.358-.615.205-.01-.04-.043-.06-.102-.051-.047-.188.047-.61-.154-.77-.167-.03-.24.035-.36.052.007.062-.074.03 0 0 .017-.393.114-.774-.05-1.077-.062.005-.032-.074 0 0h.154c.543.294 1.221.454 1.742.769.558.282 1.06.617 1.437 1.077.866.808 1.315 2.034 2.05 2.973-.08.092-.308.034-.358.154-.191.153-.38.303-.462.564zM7.309 4.053c-.205-.065-.124-.205 0-.308.016-.172.052-.323.154-.41v-.154c.158-.005.152.155.153.309-.08.209-.236.345-.307.563zm-.77-.411c-.19.037-.22-.087-.41-.051-.123-.036.15-.362-.103-.358.06-.25.148-.47.257-.666.253.003.412.099.615.152-.102.326-.373.482-.358.923zm-1.282-.306c-.251-.057-.586-.03-.82-.103.17-.36.327-.734.513-1.078.287.04.52.13.769.206-.17.308-.396.56-.462.975zm-1.589-.052h-.615c.059-.556.108-1.123.358-1.488.238.035.467.032.719.154-.133.445-.611.776-.462 1.334zM2.54 2.412c-.125-.132.02-.531-.154-.616.06-.138.268 0 .36 0-.089.186-.18.37-.206.616zm13.844 11.28a6.457 6.457 0 01-.36-1.845c-.106-.014-.013-.226-.102-.257.002-.12-.088-.15-.051-.308-.116-.124-.108-.37-.153-.563-.126-.372-.255-.737-.36-1.129-.194-.283-.27-.686-.409-1.024-.19-.308-.287-.707-.41-1.077-.336-.52-.656-1.055-1.027-1.538-.246-.608-.668-1.042-1.026-1.54a22.684 22.684 0 01-.972-.82c-.21-.1-.374-.243-.565-.358-.183-.124-.445-.172-.615-.309-.849-.38-1.774-.687-2.615-1.077a17.122 17.122 0 01-1.846-.46c-.54-.229-1.316-.224-1.949-.36H2.848c-.066.003-.072.065-.154.051-.145-.042-.133.073-.257.052-.133.072-.244.166-.205.41-.063.079-.127.052-.205.103-.08.054-.084.087-.154.153.01.473-.09.834-.051 1.334-.127.007-.015.174 0 .206-.037.155.053.186.051.306-.05.29.194.285.257.462.863.077 1.792.087 2.717.103a15.45 15.45 0 001.59.41c.444.36.95.657 1.435.974.246.147.393.395.667.512.077.13.23.18.359.257.135.07.176.234.358.257.153.292.397.492.617.717.172.27.48.408.615.718.207.238.38.51.563.769.229.234.464.46.615.769.172.257.246.61.411.872.12.324.271.618.36.974.088.611.092 1.31.204 1.898.055.647.028 1.373.154 1.947-.007.383-.02.773.103 1.026.19.152.349.335.717.308.089.254.454.23.666.358.71-.11 1.537-.103 2-.46.151-.176.164-.486.309-.667-.081-.705-.244-1.329-.206-2.154z" fill="#303030"/></svg>