<svg width="18" height="18" viewBox="0 0 18 18" fill="none" xmlns="http://www.w3.org/2000/svg"><path fill-rule="evenodd" clip-rule="evenodd" d="M10.28 12.938c-.44.307-1.04.453-1.856.383-.358-.067-.683-.375-1.092-.22-.106.485.244.598.382.765.014.018.09-.01.11 0 .03.018.072.095.109.11.361.141.85.145 1.31.163.201-.086.438-.04.655-.108.02-.007.084-.097.11-.11.054-.03.12-.033.163-.055.178-.084.333-.138.436-.217.134-.104.176-.287.165-.492-.094-.143-.2-.274-.492-.219zm-1.528-1.256h.709c.01-.063.087-.059.164-.054.038-.143.249-.114.273-.273.108-.114.042-.362 0-.491-.328-.056-.393.152-.655.163-.418.074-.572-.118-.874-.163-.014.077-.12.063-.164.11.005.094-.011.17-.054.218.068.113.133.23.218.327.086.097.292.072.383.163zM6.186 8.845c-.112.106-.19.17-.273.327-.056.105-.139.233-.11.328.047.353.169.632.546.655.592-.014.613-1.037.274-1.366-.217-.014-.386.006-.437.056zm5.568-.273c-.515-.005-.409.84-.328 1.255.167.071.255.219.546.165.424-.277.475-1.407-.218-1.42zm-5.95-1.147c-.127.183-.403.217-.382.546.035.145.156.208.218.328.28.043.415-.059.6-.11.333.006.606-.05.765-.218v-.436c-.205-.26-.84-.162-1.201-.11zm5.896-.272c-.16.059-.286.15-.274.382.033.113.115.176.165.273.084.079.254.071.327.163.2.057.539.197.764.054.155-.573-.36-.9-.982-.872zm3.821 3.275a1.794 1.794 0 01-.71.11c.111-.09-.002-.405.109-.492.256-.117.984-.227 1.147.053-.043.25-.337.248-.546.329zm-.873-3.112c-.309-.072-.258.217-.492.219-.105-.442-.352-.741-.437-1.203.352-.12.761-.184.82-.599-.063-.418-.597-.117-.82-.056-1.147.02-2.188-.068-3.002-.38.051-.296.404-.289.383-.657-.02-.18-.165-.235-.274-.326-.458-.022-.68.193-1.037.272H7.933c-.654-.055-1.244-.176-1.911-.219-.583-.125-1.108-.31-1.692-.436-.253.056-.426.194-.6.327-.104.443-.31.782-.383 1.256-.077.47-.133.958-.218 1.42-.229-.298-.223-.833-.382-1.2.017-.622-.045-1.32.054-1.857.239-.38.512-.726.765-1.092.202-.106.247-.372.436-.492.043-.12.191-.137.273-.217.082-.065.065-.228.219-.22.45.096.42.672.982.656.27.014.235-.275.382-.383.472-.366 1.206-.468 1.856-.655.672-.165 1.486-.188 2.348-.163.345.072.686.15 1.038.22.25.186.574.297.818.49a.977.977 0 01.436.218c.198.022.365.072.491.163.432.024.828.083 1.311.056.429-.136.86-.27 1.2-.492.181.081-.112.133-.054.273-.112.014-.109.145-.163.219-.141.133-.259.287-.382.436-.31.127-.646.23-.71.601.045.19.207.266.436.273.116.795.377 1.443.492 2.238v1.473c-.046.271-.152-.212-.327-.163zm-1.256 5.403c-.206.559-.463 1.066-.71 1.585-.206.176-.306.458-.491.655-.183.217-.39.411-.546.655-.458.379-.926.747-1.474 1.037-.08.03-.282-.064-.273.054-.526.016-1.005-.014-1.419-.11-.417-.109-.823-.23-1.093-.49-.392-.136-.643-.412-.928-.656-.274-.251-.577-.477-.764-.818-.536-.519-.86-1.25-1.255-1.912-.133-.394-.316-.739-.382-1.2-.217-.31-.235-.82-.328-1.255.006-.479.01-.956-.054-1.365-.07-.36.144-.67 0-.928-.14-.124-.385-.022-.491.054.005.066-.08.034 0 0 .011-.041 0-.108.054-.108-.068-.253.087-.093.164-.11.153-.034.242.015.327-.109.399-.567.352-1.577.546-2.347.038-.275-.093-.38-.055-.655.798.203 1.478.524 2.348.655.82.199 1.818.22 2.839.217.096-.03.32.066.327-.054.096-.03.321.067.328-.054.719.59 1.727.892 3.057.872-.02.275.034.478.11.657.065.207.105.44.217.6.1.447.328.764.546 1.09a12.37 12.37 0 01-.6 4.04zM3.074 8.19c-.028-.028.04-.07.055-.055.028.029-.04.07-.055.056zm13.92 1.693c-.138-.39-.427-.628-.764-.82-.172.027-.192-.099-.382-.054-.113-.032-.358.068-.382-.055.082-.39.201-.745.273-1.145.012-.715.003-1.12 0-1.856-.115-.869-.402-1.565-.6-2.35.08-.299.406-.356.491-.652.224-.178.313-.489.491-.711-.048-.287.046-.5.055-.655.016-.284.057-.345-.055-.546-.794-.129-1.368.408-2.075.546h-.818c-.074-.018-.104-.077-.219-.054-.507-.203-1.004-.414-1.418-.71a11.046 11.046 0 00-1.42-.327C8.123.393 6.54.755 5.367 1.53c-.216-.149-.356-.373-.71-.382-.384-.004-.64.122-.928.217-.047.08-.081.174-.218.165-.476.652-1.012 1.244-1.42 1.965-.036.253-.124.458-.163.71v1.419c.062.228.11.472.164.708.142.167.13.49.272.657.127.492.363.872.492 1.364.175.11.17-.215.218-.054-.088.53-.012 1.224-.109 1.747-.074.276.13.558 0 .708-.204-.068-.475-.07-.6-.217-.23-.043-.479-.068-.437-.382.13.022-.03-.25.164-.163.095-.033.32.064.327-.056.208-.047.315-.194.328-.436-.043-.504-.576-.517-1.147-.492-.1.156-.31.2-.382.382-.114.14-.116.394-.218.546v.764c.043.013.064.045.054.11.421.653 1.426.721 2.184 1.037.249.697.5 1.391.874 1.965.29.655.764 1.127 1.146 1.693.986.924 1.979 1.84 3.712 2.019h.982c.23-.062.472-.11.71-.164a11.99 11.99 0 001.474-.981c.173-.246.426-.413.6-.655.195-.225.334-.505.547-.711.122-.278.291-.508.436-.765.143-.276.26-.577.383-.873.125-.291.2-.636.327-.928-.017-.217.126-.273.11-.49.093-.126.05-.386.163-.492 1.022-.016 1.781-.293 2.238-.874.046-.208.072-.438.055-.709z" fill="#1DAEEC"/></svg>